<svg xmlns="http://www.w3.org/2000/svg" width="288" height="60" viewBox="0 0 288 60"><g transform="translate(-150 -320)"><rect width="288" height="60" transform="translate(150 320)"/><rect width="4" height="60" transform="translate(150 320)" fill="#ff38a3"/><path d="M2.444-4.55H8.411c4.426,0,7.449-2.73,7.449-6.825S12.837-18.2,8.411-18.2H2.444ZM4.979-6.695v-9.36H8.294c3.042,0,5.012,1.852,5.012,4.68s-1.969,4.68-5.012,4.68ZM28.574-4.55h2.652L25.064-18.2h-2.5L16.426-4.55h2.613l1.345-3.159h6.825ZM21.242-9.7,23.8-15.665,26.371-9.7Zm21.333-8.5v9.243L35.048-18.2H32.961V-4.55h2.515v-9.243L43-4.55H45.09V-18.2ZM51.526-4.55h2.535v-11.5h4.524V-18.2H47v2.145h4.524Zm11.5-2.126v-3.763h6.591v-2.087H63.03v-3.549h7.43V-18.2H60.5V-4.55H70.733V-6.675ZM88.556-18.2v9.243L81.029-18.2H78.942V-4.55h2.516v-9.243L88.985-4.55h2.086V-18.2Zm16.4,13.65h2.652L101.446-18.2h-2.5L92.807-4.55H95.42l1.345-3.159h6.825ZM97.624-9.7l2.554-5.967L102.752-9.7ZM121-4.55l-3.14-4.485a4.364,4.364,0,0,0,2.906-4.309c0-3.023-2.223-4.855-5.811-4.855h-5.616V-4.55h2.535V-8.528h3.081a4.752,4.752,0,0,0,.526-.019l2.789,4Zm-2.789-8.794c0,1.716-1.15,2.73-3.373,2.73h-2.964v-5.44h2.964C117.065-16.055,118.215-15.06,118.215-13.344Zm15.6,8.794h2.652L130.305-18.2h-2.5L121.667-4.55h2.613l1.345-3.159h6.825ZM126.483-9.7l2.555-5.967L131.612-9.7ZM147.719-4.55h2.964L144.6-12.1l5.733-6.1h-2.847l-6.747,7v-7H138.2V-4.55h2.535V-8.04l2.165-2.223Zm10.374.2c3.725,0,5.967-2.165,5.967-6.142v-7.7h-2.5v7.6c0,2.808-1.248,4.017-3.451,4.017s-3.471-1.209-3.471-4.017v-7.6h-2.535v7.7C152.106-6.519,154.349-4.355,158.093-4.355Z" transform="translate(170.389 371.05)" fill="#fff"/><g transform="translate(171.035 332.379)"><rect width="13.5" height="0.75" transform="translate(0.715 10.871)" fill="#ff38a3"/><path d="M64.638-2.025a2.166,2.166,0,0,1-1.566-.553A1.992,1.992,0,0,1,62.5-4.086V-6.462a1.954,1.954,0,0,1,.576-1.485A2.176,2.176,0,0,1,64.638-8.5a2.192,2.192,0,0,1,1.57.549,1.946,1.946,0,0,1,.581,1.485v2.376a1.984,1.984,0,0,1-.581,1.507A2.182,2.182,0,0,1,64.638-2.025Zm0-1.089a.852.852,0,0,0,.644-.248.913.913,0,0,0,.238-.661V-6.5a.913.913,0,0,0-.238-.661.852.852,0,0,0-.644-.248A.841.841,0,0,0,64-7.159a.913.913,0,0,0-.238.661v2.475A.913.913,0,0,0,64-3.362.841.841,0,0,0,64.638-3.114Zm7.074-2.061a2.189,2.189,0,0,1,.216,1.035,2.432,2.432,0,0,1-.171.936,1.831,1.831,0,0,1-.729.837,2.18,2.18,0,0,1-1.17.306,2.188,2.188,0,0,1-1.2-.319,1.814,1.814,0,0,1-.729-.887,2.309,2.309,0,0,1-.162-.882V-6.858a1.481,1.481,0,0,1,.257-.859,1.653,1.653,0,0,1,.715-.576A2.586,2.586,0,0,1,69.8-8.5a2.5,2.5,0,0,1,1.035.2,1.624,1.624,0,0,1,.7.567,1.462,1.462,0,0,1,.247.842v.252a.1.1,0,0,1-.032.076.1.1,0,0,1-.076.031H70.614a.1.1,0,0,1-.076-.031.1.1,0,0,1-.031-.076v-.081a.672.672,0,0,0-.2-.495.694.694,0,0,0-.513-.2.755.755,0,0,0-.545.2.685.685,0,0,0-.211.517v.846q0,.027.018.031a.037.037,0,0,0,.036-.013,1.46,1.46,0,0,1,.981-.315,1.9,1.9,0,0,1,.967.247A1.72,1.72,0,0,1,71.712-5.175Zm-1.188,1.62a1.117,1.117,0,0,0,.135-.567,1.117,1.117,0,0,0-.144-.594.728.728,0,0,0-.657-.36.691.691,0,0,0-.675.369,1.2,1.2,0,0,0-.135.6,1.179,1.179,0,0,0,.117.549.7.7,0,0,0,.684.4A.706.706,0,0,0,70.524-3.555Z" transform="translate(-15.66 8.496)" fill="#ff38a3"/><path d="M2.316-2.115h.459V-8H5.043v-.414h-5V-8H2.316Zm8.451-.954a2.758,2.758,0,0,1-1.791.576A2.748,2.748,0,0,1,6.123-5.265,2.743,2.743,0,0,1,8.976-8.037a2.656,2.656,0,0,1,1.971.747l.288-.306A3.081,3.081,0,0,0,8.967-8.46a3.156,3.156,0,0,0-3.3,3.2A3.153,3.153,0,0,0,8.958-2.07a3.243,3.243,0,0,0,2.25-.81V-5.238h-.441Zm4.293,1c1.557,0,2.268-.774,2.268-1.665,0-2.286-3.933-1.17-3.933-3.06,0-.693.549-1.26,1.773-1.26a3.113,3.113,0,0,1,1.728.531l.171-.369a3.38,3.38,0,0,0-1.9-.567c-1.548,0-2.232.783-2.232,1.674,0,2.322,3.933,1.188,3.933,3.078,0,.684-.558,1.233-1.818,1.233a3,3,0,0,1-2.079-.792l-.207.342A3.23,3.23,0,0,0,15.06-2.07Zm3.951-.459,2.322-2.313A2.594,2.594,0,0,0,22.359-6.8c0-1.026-.792-1.665-2.025-1.665a2.774,2.774,0,0,0-2.169.864l.324.288A2.241,2.241,0,0,1,20.3-8.037c1.044,0,1.593.495,1.593,1.287,0,.477-.144.918-.891,1.665L18.336-2.439v.324h4.329v-.414Zm7.128.459c1.449,0,2.466-1.224,2.466-3.195s-1.017-3.2-2.466-3.2-2.466,1.224-2.466,3.2S24.69-2.07,26.139-2.07Zm0-.423c-1.188,0-2.007-1.017-2.007-2.772s.819-2.772,2.007-2.772,2.007,1.017,2.007,2.772S27.327-2.493,26.139-2.493Zm4.176-.036,2.322-2.313A2.594,2.594,0,0,0,33.663-6.8c0-1.026-.792-1.665-2.025-1.665a2.774,2.774,0,0,0-2.169.864l.324.288A2.241,2.241,0,0,1,31.6-8.037c1.044,0,1.593.495,1.593,1.287,0,.477-.144.918-.891,1.665L29.64-2.439v.324h4.329v-.414ZM34.6-8.415V-8h1.539v5.886H36.6v-6.3Zm6.327,4.086h2.313v-.4H40.926Z" transform="translate(-0.049 8.486)" fill="#fff"/></g></g></svg>