<svg xmlns="http://www.w3.org/2000/svg" width="288" height="60" viewBox="0 0 288 60"><g transform="translate(-150 -320)"><rect width="288" height="60" transform="translate(150 320)"/><rect width="4" height="60" transform="translate(150 320)" fill="#ff38a3"/><path d="M12.057-18.473V-9.23L4.531-18.473H2.444v13.65H4.96v-9.243l7.527,9.243h2.087v-13.65Zm15.736,8.5a5.078,5.078,0,0,0-5.265-5.382,5.179,5.179,0,0,0-5.382,5.324c0,3.1,2.262,5.343,5.752,5.343a5.278,5.278,0,0,0,4.193-1.7l-1.306-1.5a3.732,3.732,0,0,1-2.828,1.131,3.152,3.152,0,0,1-3.374-2.5h8.171C27.774-9.483,27.794-9.776,27.794-9.971ZM22.529-13.4a2.835,2.835,0,0,1,2.945,2.535H19.565A2.878,2.878,0,0,1,22.529-13.4Zm14.82-1.833L34.015-7.514l-3.237-7.722H28.243L32.708-4.823h2.516l4.465-10.413ZM50.706-9.971a5.078,5.078,0,0,0-5.265-5.382A5.179,5.179,0,0,0,40.06-10.03c0,3.1,2.262,5.343,5.752,5.343A5.278,5.278,0,0,0,50-6.383L48.7-7.885A3.732,3.732,0,0,1,45.87-6.753,3.152,3.152,0,0,1,42.5-9.25h8.171C50.687-9.483,50.706-9.776,50.706-9.971ZM45.442-13.4a2.835,2.835,0,0,1,2.944,2.535H42.478A2.878,2.878,0,0,1,45.442-13.4Zm9.925-.312v-1.521h-2.32V-4.823h2.438v-5.05c0-2.125,1.17-3.217,3.022-3.217a3.094,3.094,0,0,1,.565.058v-2.321A4.1,4.1,0,0,0,55.367-13.715ZM69.387-6.948v-3.764h6.591V-12.8H69.387v-3.549h7.43v-2.125H66.853v13.65H77.09V-6.948Zm16.2-8.4A4.528,4.528,0,0,0,82-13.891v-1.345H79.683V-4.823h2.438v-5.265c0-2.086,1.17-3.139,2.906-3.139,1.56,0,2.477.9,2.477,2.749v5.655H89.94V-10.79C89.94-13.93,88.088-15.353,85.592-15.353ZM100.9-19.292v5.343a4.264,4.264,0,0,0-3.354-1.4A5.052,5.052,0,0,0,92.28-10.03a5.067,5.067,0,0,0,5.265,5.343A4.294,4.294,0,0,0,101-6.168v1.345h2.34V-19.292ZM97.838-6.773a3.043,3.043,0,0,1-3.1-3.257,3.043,3.043,0,0,1,3.1-3.256,3.043,3.043,0,0,1,3.1,3.256A3.043,3.043,0,0,1,97.838-6.773Zm11.914,2.086c2.925,0,4.719-1.267,4.719-3.218,0-4.076-6.435-2.2-6.435-4.309,0-.682.7-1.17,2.184-1.17a5.7,5.7,0,0,1,2.983.78l.936-1.852a8.287,8.287,0,0,0-3.9-.9c-2.808,0-4.583,1.287-4.583,3.257,0,4.154,6.435,2.281,6.435,4.271,0,.722-.643,1.151-2.184,1.151a7.006,7.006,0,0,1-3.627-1.034l-.936,1.853A8.273,8.273,0,0,0,109.753-4.687Zm22.659-.136h2.652L128.9-18.473h-2.5l-6.143,13.65h2.613l1.345-3.159h6.825ZM125.08-9.971l2.554-5.967,2.574,5.967Zm16.165,5.284a4.734,4.734,0,0,0,4.446-2.437l-1.872-1.092a2.947,2.947,0,0,1-2.594,1.443,3.046,3.046,0,0,1-3.159-3.257,3.056,3.056,0,0,1,3.159-3.256,2.947,2.947,0,0,1,2.594,1.443l1.872-1.092a4.686,4.686,0,0,0-4.446-2.418c-3.3,0-5.635,2.2-5.635,5.324A5.284,5.284,0,0,0,141.245-4.687ZM153.51-7.124a2.192,2.192,0,0,1-1.365.429c-.936,0-1.443-.546-1.443-1.56v-4.953h2.788v-1.95H150.7v-2.379h-2.437v2.379h-1.716v1.95h1.716V-8.2c0,2.3,1.306,3.51,3.588,3.51a3.83,3.83,0,0,0,2.34-.7Z" transform="translate(170.389 371.323)" fill="#fff"/><g transform="translate(171.035 332.379)"><rect width="13.5" height="0.75" transform="translate(0.715 10.871)" fill="#ff38a3"/><path d="M64.638-2.025a2.166,2.166,0,0,1-1.566-.553A1.992,1.992,0,0,1,62.5-4.086V-6.462a1.954,1.954,0,0,1,.576-1.485A2.176,2.176,0,0,1,64.638-8.5a2.192,2.192,0,0,1,1.57.549,1.946,1.946,0,0,1,.581,1.485v2.376a1.984,1.984,0,0,1-.581,1.507A2.182,2.182,0,0,1,64.638-2.025Zm0-1.089a.852.852,0,0,0,.644-.248.913.913,0,0,0,.238-.661V-6.5a.913.913,0,0,0-.238-.661.852.852,0,0,0-.644-.248A.841.841,0,0,0,64-7.159a.913.913,0,0,0-.238.661v2.475A.913.913,0,0,0,64-3.362.841.841,0,0,0,64.638-3.114Zm7.173-1.881a2.915,2.915,0,0,1,.135.855,2.262,2.262,0,0,1-.144.828,1.778,1.778,0,0,1-.729.914,2.2,2.2,0,0,1-1.224.337,2.193,2.193,0,0,1-1.2-.329,1.791,1.791,0,0,1-.734-.9,2.611,2.611,0,0,1-.135-.5V-3.8q0-.1.108-.1h1.089a.115.115,0,0,1,.117.1.32.32,0,0,0,.027.09.493.493,0,0,1,.027.063.756.756,0,0,0,.27.36.719.719,0,0,0,.423.126.739.739,0,0,0,.441-.135.785.785,0,0,0,.279-.378,1.049,1.049,0,0,0,.09-.468,1.276,1.276,0,0,0-.081-.468.605.605,0,0,0-.252-.36.776.776,0,0,0-.441-.126.967.967,0,0,0-.468.117.59.59,0,0,0-.288.306.113.113,0,0,1-.117.09H67.9a.1.1,0,0,1-.076-.031.1.1,0,0,1-.032-.076V-8.316a.1.1,0,0,1,.032-.076.1.1,0,0,1,.076-.031h3.717a.1.1,0,0,1,.077.031.1.1,0,0,1,.031.076v.873a.1.1,0,0,1-.031.077.1.1,0,0,1-.077.031H69.1a.04.04,0,0,0-.045.045l-.009,1.332q0,.063.054.027a1.69,1.69,0,0,1,.936-.261,1.921,1.921,0,0,1,1.1.319A1.725,1.725,0,0,1,71.811-4.995Z" transform="translate(-15.66 8.496)" fill="#ff38a3"/><path d="M2.316-2.115h.459V-8H5.043v-.414h-5V-8H2.316Zm8.451-.954a2.758,2.758,0,0,1-1.791.576A2.748,2.748,0,0,1,6.123-5.265,2.743,2.743,0,0,1,8.976-8.037a2.656,2.656,0,0,1,1.971.747l.288-.306A3.081,3.081,0,0,0,8.967-8.46a3.156,3.156,0,0,0-3.3,3.2A3.153,3.153,0,0,0,8.958-2.07a3.243,3.243,0,0,0,2.25-.81V-5.238h-.441Zm4.293,1c1.557,0,2.268-.774,2.268-1.665,0-2.286-3.933-1.17-3.933-3.06,0-.693.549-1.26,1.773-1.26a3.113,3.113,0,0,1,1.728.531l.171-.369a3.38,3.38,0,0,0-1.9-.567c-1.548,0-2.232.783-2.232,1.674,0,2.322,3.933,1.188,3.933,3.078,0,.684-.558,1.233-1.818,1.233a3,3,0,0,1-2.079-.792l-.207.342A3.23,3.23,0,0,0,15.06-2.07Zm3.951-.459,2.322-2.313A2.594,2.594,0,0,0,22.359-6.8c0-1.026-.792-1.665-2.025-1.665a2.774,2.774,0,0,0-2.169.864l.324.288A2.241,2.241,0,0,1,20.3-8.037c1.044,0,1.593.495,1.593,1.287,0,.477-.144.918-.891,1.665L18.336-2.439v.324h4.329v-.414Zm7.128.459c1.449,0,2.466-1.224,2.466-3.195s-1.017-3.2-2.466-3.2-2.466,1.224-2.466,3.2S24.69-2.07,26.139-2.07Zm0-.423c-1.188,0-2.007-1.017-2.007-2.772s.819-2.772,2.007-2.772,2.007,1.017,2.007,2.772S27.327-2.493,26.139-2.493Zm4.176-.036,2.322-2.313A2.594,2.594,0,0,0,33.663-6.8c0-1.026-.792-1.665-2.025-1.665a2.774,2.774,0,0,0-2.169.864l.324.288A2.241,2.241,0,0,1,31.6-8.037c1.044,0,1.593.495,1.593,1.287,0,.477-.144.918-.891,1.665L29.64-2.439v.324h4.329v-.414ZM34.6-8.415V-8h1.539v5.886H36.6v-6.3Zm6.327,4.086h2.313v-.4H40.926Z" transform="translate(-0.049 8.486)" fill="#fff"/></g></g></svg>