<svg xmlns="http://www.w3.org/2000/svg" width="288" height="60" viewBox="0 0 288 60"><g transform="translate(-150 -320)"><rect width="288" height="60" transform="translate(150 320)"/><rect width="4" height="60" transform="translate(150 320)" fill="#ff38a3"/><path d="M2.444-5.018H4.979v-13.65H2.444Zm19.13-10.53a4.86,4.86,0,0,0-3.9,1.736,3.9,3.9,0,0,0-3.51-1.736A4.313,4.313,0,0,0,10.751-14.1v-1.326H8.431V-5.018h2.438V-10.3c0-2.067,1.092-3.12,2.71-3.12,1.482,0,2.34.9,2.34,2.749v5.655h2.437V-10.3c0-2.067,1.111-3.12,2.71-3.12,1.482,0,2.34.9,2.34,2.749v5.655h2.438v-5.967C25.844-14.125,24.089-15.548,21.574-15.548Zm13.162,0a4.294,4.294,0,0,0-3.451,1.482v-1.365H28.964v14.2H31.4v-5.05a4.278,4.278,0,0,0,3.334,1.4,5.072,5.072,0,0,0,5.285-5.343A5.067,5.067,0,0,0,34.736-15.548Zm-.273,8.58a3.043,3.043,0,0,1-3.1-3.257,3.043,3.043,0,0,1,3.1-3.256,3.028,3.028,0,0,1,3.081,3.256A3.028,3.028,0,0,1,34.463-6.968Zm17.667-3.2a5.078,5.078,0,0,0-5.265-5.382,5.179,5.179,0,0,0-5.382,5.323c0,3.1,2.262,5.343,5.753,5.343a5.278,5.278,0,0,0,4.192-1.7l-1.306-1.5a3.732,3.732,0,0,1-2.827,1.131,3.152,3.152,0,0,1-3.374-2.5h8.171C52.111-9.678,52.13-9.971,52.13-10.166ZM46.865-13.6a2.835,2.835,0,0,1,2.944,2.535H43.9A2.878,2.878,0,0,1,46.865-13.6Zm9.925-.312v-1.521H54.47V-5.018h2.438v-5.051c0-2.125,1.17-3.217,3.023-3.217a3.094,3.094,0,0,1,.565.058v-2.32A4.1,4.1,0,0,0,56.79-13.91Zm7-3.237a1.5,1.5,0,0,0,1.56-1.521,1.451,1.451,0,0,0-1.56-1.4,1.485,1.485,0,0,0-1.56,1.462A1.485,1.485,0,0,0,63.791-17.147ZM62.563-5.018H65V-15.431H62.563Zm9.613-10.53a7.321,7.321,0,0,0-4.407,1.287l.956,1.774a5.155,5.155,0,0,1,3.159-1.034c1.736,0,2.593.839,2.593,2.262v.156H71.786c-3.159,0-4.329,1.365-4.329,3.1,0,1.813,1.5,3.12,3.881,3.12a3.69,3.69,0,0,0,3.276-1.4v1.267h2.3v-6.1C76.914-14.125,75.179-15.548,72.176-15.548Zm-.331,8.892c-1.248,0-1.989-.566-1.989-1.443,0-.76.448-1.384,2.106-1.384h2.515v1.209A2.654,2.654,0,0,1,71.845-6.656Zm8.19,1.638h2.438V-19.487H80.034Zm28.782-13.65L105.326-8.236l-3.451-10.432h-2.34L96-8.294,92.612-18.668H89.979L94.5-5.018h2.71l3.432-10.1,3.374,10.1h2.691l4.524-13.65Zm5.577,1.521a1.5,1.5,0,0,0,1.56-1.521,1.451,1.451,0,0,0-1.56-1.4,1.485,1.485,0,0,0-1.56,1.462A1.485,1.485,0,0,0,114.394-17.147ZM113.165-5.018H115.6V-15.431h-2.437Zm7.878-1.95,5.733-6.922v-1.541h-8.717v1.95h5.6l-5.714,6.922v1.541h8.99v-1.95Zm12.11-8.58a7.322,7.322,0,0,0-4.407,1.287l.956,1.774a5.155,5.155,0,0,1,3.159-1.034c1.736,0,2.594.839,2.594,2.262v.156h-2.691c-3.159,0-4.329,1.365-4.329,3.1,0,1.813,1.5,3.12,3.88,3.12a3.69,3.69,0,0,0,3.276-1.4v1.267h2.3v-6.1C137.891-14.125,136.155-15.548,133.152-15.548Zm-.332,8.892c-1.248,0-1.989-.566-1.989-1.443,0-.76.449-1.384,2.106-1.384h2.516v1.209A2.654,2.654,0,0,1,132.821-6.656Zm10.51-7.254v-1.521h-2.32V-5.018h2.438v-5.051c0-2.125,1.17-3.217,3.023-3.217a3.094,3.094,0,0,1,.565.058v-2.32A4.1,4.1,0,0,0,143.331-13.91Zm13.436-5.577v5.343a4.264,4.264,0,0,0-3.354-1.4,5.052,5.052,0,0,0-5.265,5.323,5.067,5.067,0,0,0,5.265,5.343,4.294,4.294,0,0,0,3.451-1.482v1.345h2.34V-19.487ZM153.705-6.968a3.043,3.043,0,0,1-3.1-3.257,3.043,3.043,0,0,1,3.1-3.256,3.043,3.043,0,0,1,3.1,3.256A3.043,3.043,0,0,1,153.705-6.968Z" transform="translate(170.389 371.518)" fill="#fff"/><g transform="translate(171.035 332.379)"><rect width="13.5" height="0.75" transform="translate(0.715 10.871)" fill="#ff38a3"/><path d="M64.638-2.025a2.166,2.166,0,0,1-1.566-.553A1.992,1.992,0,0,1,62.5-4.086V-6.462a1.954,1.954,0,0,1,.576-1.485A2.176,2.176,0,0,1,64.638-8.5a2.192,2.192,0,0,1,1.57.549,1.946,1.946,0,0,1,.581,1.485v2.376a1.984,1.984,0,0,1-.581,1.507A2.182,2.182,0,0,1,64.638-2.025Zm0-1.089a.852.852,0,0,0,.644-.248.913.913,0,0,0,.238-.661V-6.5a.913.913,0,0,0-.238-.661.852.852,0,0,0-.644-.248A.841.841,0,0,0,64-7.159a.913.913,0,0,0-.238.661v2.475A.913.913,0,0,0,64-3.362.841.841,0,0,0,64.638-3.114Zm3.87.99q-.135,0-.09-.126l1.953-5.031q.018-.054-.036-.054H68.652a.04.04,0,0,0-.045.045v.414a.1.1,0,0,1-.032.076.1.1,0,0,1-.076.032H67.68A.1.1,0,0,1,67.6-6.8a.1.1,0,0,1-.032-.076l.009-1.44a.1.1,0,0,1,.032-.076.1.1,0,0,1,.076-.031h3.933a.1.1,0,0,1,.076.031.1.1,0,0,1,.031.076v.909a.444.444,0,0,1-.027.135L69.759-2.205a.118.118,0,0,1-.126.081Z" transform="translate(-15.66 8.496)" fill="#ff38a3"/><path d="M2.316-2.115h.459V-8H5.043v-.414h-5V-8H2.316Zm8.451-.954a2.758,2.758,0,0,1-1.791.576A2.748,2.748,0,0,1,6.123-5.265,2.743,2.743,0,0,1,8.976-8.037a2.656,2.656,0,0,1,1.971.747l.288-.306A3.081,3.081,0,0,0,8.967-8.46a3.156,3.156,0,0,0-3.3,3.2A3.153,3.153,0,0,0,8.958-2.07a3.243,3.243,0,0,0,2.25-.81V-5.238h-.441Zm4.293,1c1.557,0,2.268-.774,2.268-1.665,0-2.286-3.933-1.17-3.933-3.06,0-.693.549-1.26,1.773-1.26a3.113,3.113,0,0,1,1.728.531l.171-.369a3.38,3.38,0,0,0-1.9-.567c-1.548,0-2.232.783-2.232,1.674,0,2.322,3.933,1.188,3.933,3.078,0,.684-.558,1.233-1.818,1.233a3,3,0,0,1-2.079-.792l-.207.342A3.23,3.23,0,0,0,15.06-2.07Zm3.951-.459,2.322-2.313A2.594,2.594,0,0,0,22.359-6.8c0-1.026-.792-1.665-2.025-1.665a2.774,2.774,0,0,0-2.169.864l.324.288A2.241,2.241,0,0,1,20.3-8.037c1.044,0,1.593.495,1.593,1.287,0,.477-.144.918-.891,1.665L18.336-2.439v.324h4.329v-.414Zm7.128.459c1.449,0,2.466-1.224,2.466-3.195s-1.017-3.2-2.466-3.2-2.466,1.224-2.466,3.2S24.69-2.07,26.139-2.07Zm0-.423c-1.188,0-2.007-1.017-2.007-2.772s.819-2.772,2.007-2.772,2.007,1.017,2.007,2.772S27.327-2.493,26.139-2.493Zm4.176-.036,2.322-2.313A2.594,2.594,0,0,0,33.663-6.8c0-1.026-.792-1.665-2.025-1.665a2.774,2.774,0,0,0-2.169.864l.324.288A2.241,2.241,0,0,1,31.6-8.037c1.044,0,1.593.495,1.593,1.287,0,.477-.144.918-.891,1.665L29.64-2.439v.324h4.329v-.414ZM34.6-8.415V-8h1.539v5.886H36.6v-6.3Zm6.327,4.086h2.313v-.4H40.926Z" transform="translate(-0.049 8.486)" fill="#fff"/></g></g></svg>