<svg xmlns="http://www.w3.org/2000/svg" width="288" height="60" viewBox="0 0 288 60"><g transform="translate(-150 -200)"><rect width="288" height="60" transform="translate(150 200)"/><rect width="4" height="60" transform="translate(150 200)" fill="#ff38a3"/><path d="M3.617-9.4a18.111,18.111,0,0,0,3.171-1.768H3.617Zm5.708-1.192h6.862v-.577H9.94Q9.748-10.975,9.325-10.591ZM7.96-6.516q-1.019-.6-2.191-1.192L7.461-8.8H6.884A20.431,20.431,0,0,1,2.752-6.881L1.329-8.515q.865-.288,2-.769H1.156v-3.767h17.49v3.863h-2.4V-8.8a10.594,10.594,0,0,1-4.786,3.4A30.349,30.349,0,0,1,2.905-3.71l-.634-2A38.575,38.575,0,0,0,7.96-6.516Zm2.633-.826a9.728,9.728,0,0,0,2.5-1.461H7.9Q9.306-8.092,10.593-7.343Zm-2.845-10.4h4.305v-.73H7.749Zm3.191,2.672v-1.192H8.864v1.192Zm2.114,0h2v-1.192h-2Zm1.5-5.362h4.132v1.96H14.553v.73h2.9v4.19H2.348v-4.19h2.9v-.73H1.118v-1.96H5.25v-.961h2.5v.961h4.305v-.961h2.5Zm-7.8,4.171h-2v1.192h2ZM30.717-7.189a4.8,4.8,0,0,0,3.229-1.634,5.6,5.6,0,0,0,1.134-3.69,4.9,4.9,0,0,0-1.22-3.373,5.013,5.013,0,0,0-3.181-1.643,52.223,52.223,0,0,1-1.086,6.122A14.8,14.8,0,0,1,28.208-7.65a5.358,5.358,0,0,1-1.538,1.8,3.174,3.174,0,0,1-1.778.509,3.626,3.626,0,0,1-2.864-1.787,7.19,7.19,0,0,1-1.307-4.363,7.832,7.832,0,0,1,2.537-6.054,9.429,9.429,0,0,1,6.631-2.326A7.577,7.577,0,0,1,35.358-17.8a7.01,7.01,0,0,1,2.162,5.285,8.045,8.045,0,0,1-1.7,5.362,6.46,6.46,0,0,1-4.584,2.268ZM28.141-17.414A6.073,6.073,0,0,0,24.489-15.4a5.853,5.853,0,0,0-1.326,3.9,5.5,5.5,0,0,0,.6,2.595q.6,1.134,1.134,1.134a.852.852,0,0,0,.557-.259,3.455,3.455,0,0,0,.644-.951,12.178,12.178,0,0,0,.7-1.749,26.334,26.334,0,0,0,.7-2.787Q27.853-15.242,28.141-17.414ZM45.074-13.57q-.4-1.538-.442-1.691-.73,1.192-1.115,1.787Zm-5.92,8.5a49.077,49.077,0,0,0,.634-5.324l1.672.135a42.7,42.7,0,0,1-.653,5.5Zm5.42-5.285,1.538-.211q.019.173.067.509t.067.49a15.044,15.044,0,0,0,3.806-1.884q-.019-.038-.211-.327a23.233,23.233,0,0,1-2.595,1.211l-.173-.519-1.345.288q-.077-.423-.135-.634l-1.345.1v7.534H41.826v-7.361l-2.383.173-.077-2.23,1.691-.1q.077-.1.221-.317a3.777,3.777,0,0,0,.2-.336q-.692-1-2.23-3.152l1.038-2.306q.423.577.634.884.673-1.441,1.211-2.9l1.98.692q-.807,1.941-1.922,4.075l.5.75q.9-1.518,1.9-3.46l1.864.826q-.711,1.365-1.672,3.037l1.422-.365q.365,1.249.865,3.383a13.5,13.5,0,0,0,2.306-1.019H46.861v-1.884h6.612v-.846H47.438v-1.787h6.035v-.846H47.227v-1.922h8.8v5.4H57.24v1.884H54.665a13.977,13.977,0,0,0,.327,1.73q.365-.346,1.134-1.23l1.4,1.48a15.472,15.472,0,0,1-1.864,1.826A10.506,10.506,0,0,0,57.721-6.42L56.548-4.19a12.752,12.752,0,0,1-2.537-3.94,20.015,20.015,0,0,1-1.441-5.4h-.346q-.135.135-.48.442a11.109,11.109,0,0,1,1.826,6.112,4.7,4.7,0,0,1-.423,2.335A1.465,1.465,0,0,1,51.8-3.96q-.711,0-2.441-.1L49.245-5.92q1.038.1,1.557.1.365,0,.461-.183a2.461,2.461,0,0,0,.1-.894q0-.135-.01-.279T51.32-7.5a2.6,2.6,0,0,1-.019-.269,15.671,15.671,0,0,1-4.92,3.383l-.826-1.864a16.21,16.21,0,0,0,5.382-3.325,3.621,3.621,0,0,0-.154-.384,14.412,14.412,0,0,1-3.94,2.249l-.519-1.153q.115.98.173,2.037l-1.6.135Q44.8-8.419,44.574-10.36Zm21.968-6.381V-18.99h8.265v2.249Zm-3-3.44a30.17,30.17,0,0,0-.923,7.669,30.17,30.17,0,0,0,.923,7.669l-2.518.288a31.349,31.349,0,0,1-.961-7.957,31.349,31.349,0,0,1,.961-7.957ZM74.98-8.15l.346,2.23a17.825,17.825,0,0,1-4.555.577,7.609,7.609,0,0,1-4.276-1.047,3.217,3.217,0,0,1-1.566-2.8,4.208,4.208,0,0,1,.644-1.989,8.484,8.484,0,0,1,1.759-2.143l1.807,1.441a8.256,8.256,0,0,0-1.23,1.47,2.328,2.328,0,0,0-.442,1.124q0,1.634,3.306,1.634A18.412,18.412,0,0,0,74.98-8.15Zm3.9-11.09q7.765,0,15.8-.384l.1,2.306A14.3,14.3,0,0,0,87.838-15.3a4.761,4.761,0,0,0-2.345,3.979A3.783,3.783,0,0,0,86.8-8.284a5.119,5.119,0,0,0,3.44,1.115A12.735,12.735,0,0,0,92.586-7.4l.288,2.345a15.086,15.086,0,0,1-2.768.269A7.969,7.969,0,0,1,84.744-6.5a5.716,5.716,0,0,1-2-4.574,5.759,5.759,0,0,1,1.1-3.344,8.652,8.652,0,0,1,3.114-2.652v-.038q-4.209.173-8.072.173Z" transform="translate(170.883 252.449)" fill="#fff"/><g transform="translate(171.035 212.379)"><rect width="13.5" height="0.75" transform="translate(0.715 10.871)" fill="#ff38a3"/><path d="M64.638-2.025a2.166,2.166,0,0,1-1.566-.553A1.992,1.992,0,0,1,62.5-4.086V-6.462a1.954,1.954,0,0,1,.576-1.485A2.176,2.176,0,0,1,64.638-8.5a2.192,2.192,0,0,1,1.57.549,1.946,1.946,0,0,1,.581,1.485v2.376a1.984,1.984,0,0,1-.581,1.507A2.182,2.182,0,0,1,64.638-2.025Zm0-1.089a.852.852,0,0,0,.644-.248.913.913,0,0,0,.238-.661V-6.5a.913.913,0,0,0-.238-.661.852.852,0,0,0-.644-.248A.841.841,0,0,0,64-7.159a.913.913,0,0,0-.238.661v2.475A.913.913,0,0,0,64-3.362.841.841,0,0,0,64.638-3.114Zm7.668-1.755a.1.1,0,0,1,.076.032.1.1,0,0,1,.032.076v.909a.1.1,0,0,1-.032.076.1.1,0,0,1-.076.032h-.387a.04.04,0,0,0-.045.045v1.467a.1.1,0,0,1-.032.076.1.1,0,0,1-.076.032H70.713a.1.1,0,0,1-.076-.032.1.1,0,0,1-.032-.076V-3.7a.04.04,0,0,0-.045-.045H67.8a.1.1,0,0,1-.076-.032.1.1,0,0,1-.032-.076v-.72a.444.444,0,0,1,.027-.135l1.62-3.636a.127.127,0,0,1,.126-.081h1.125a.1.1,0,0,1,.085.031.1.1,0,0,1,0,.094l-1.5,3.375a.038.038,0,0,0,0,.036.029.029,0,0,0,.027.018H70.56a.04.04,0,0,0,.045-.045V-6.03a.1.1,0,0,1,.032-.077.1.1,0,0,1,.076-.031h1.053a.1.1,0,0,1,.076.031.1.1,0,0,1,.032.077v1.116a.04.04,0,0,0,.045.045Z" transform="translate(-15.66 8.496)" fill="#ff38a3"/><path d="M2.316-2.115h.459V-8H5.043v-.414h-5V-8H2.316Zm8.451-.954a2.758,2.758,0,0,1-1.791.576A2.748,2.748,0,0,1,6.123-5.265,2.743,2.743,0,0,1,8.976-8.037a2.656,2.656,0,0,1,1.971.747l.288-.306A3.081,3.081,0,0,0,8.967-8.46a3.156,3.156,0,0,0-3.3,3.2A3.153,3.153,0,0,0,8.958-2.07a3.243,3.243,0,0,0,2.25-.81V-5.238h-.441Zm4.293,1c1.557,0,2.268-.774,2.268-1.665,0-2.286-3.933-1.17-3.933-3.06,0-.693.549-1.26,1.773-1.26a3.113,3.113,0,0,1,1.728.531l.171-.369a3.38,3.38,0,0,0-1.9-.567c-1.548,0-2.232.783-2.232,1.674,0,2.322,3.933,1.188,3.933,3.078,0,.684-.558,1.233-1.818,1.233a3,3,0,0,1-2.079-.792l-.207.342A3.23,3.23,0,0,0,15.06-2.07Zm3.951-.459,2.322-2.313A2.594,2.594,0,0,0,22.359-6.8c0-1.026-.792-1.665-2.025-1.665a2.774,2.774,0,0,0-2.169.864l.324.288A2.241,2.241,0,0,1,20.3-8.037c1.044,0,1.593.495,1.593,1.287,0,.477-.144.918-.891,1.665L18.336-2.439v.324h4.329v-.414Zm7.128.459c1.449,0,2.466-1.224,2.466-3.195s-1.017-3.2-2.466-3.2-2.466,1.224-2.466,3.2S24.69-2.07,26.139-2.07Zm0-.423c-1.188,0-2.007-1.017-2.007-2.772s.819-2.772,2.007-2.772,2.007,1.017,2.007,2.772S27.327-2.493,26.139-2.493Zm4.176-.036,2.322-2.313A2.594,2.594,0,0,0,33.663-6.8c0-1.026-.792-1.665-2.025-1.665a2.774,2.774,0,0,0-2.169.864l.324.288A2.241,2.241,0,0,1,31.6-8.037c1.044,0,1.593.495,1.593,1.287,0,.477-.144.918-.891,1.665L29.64-2.439v.324h4.329v-.414ZM34.6-8.415V-8h1.539v5.886H36.6v-6.3Zm6.327,4.086h2.313v-.4H40.926Z" transform="translate(-0.048 8.487)" fill="#fff"/></g></g></svg>