<svg xmlns="http://www.w3.org/2000/svg" width="288" height="60" viewBox="0 0 288 60"><g transform="translate(-150 -200)"><rect width="288" height="60" transform="translate(150 200)"/><rect width="4" height="60" transform="translate(150 200)" fill="#ff38a3"/><path d="M3.016-18.961h3.9v-2.223h2.4v2.223h8.248v2.067H9.314v1.755a17.865,17.865,0,0,1,2.087-.117,8.131,8.131,0,0,1,5.187,1.462,4.838,4.838,0,0,1,1.833,4A5.229,5.229,0,0,1,16.9-6.022a7.592,7.592,0,0,1-4.134,2.077L12.1-6.168a5.643,5.643,0,0,0,2.8-1.365A3.051,3.051,0,0,0,15.945-9.8a2.792,2.792,0,0,0-1.424-2.613,13.089,13.089,0,0,1-3.7,5.509A7.528,7.528,0,0,1,5.941-4.92,3.736,3.736,0,0,1,3.192-5.944,3.709,3.709,0,0,1,2.158-8.7a5.45,5.45,0,0,1,1.248-3.53,7.675,7.675,0,0,1,3.51-2.34v-2.32h-3.9Zm9.263,5.948q-.546-.039-.878-.039a11.779,11.779,0,0,0-2.087.175v4.29A11.534,11.534,0,0,0,12.279-13.013Zm-5.363.936q-2.281,1.209-2.281,3.12a1.982,1.982,0,0,0,.409,1.346,1.448,1.448,0,0,0,1.151.468,3.148,3.148,0,0,0,.722-.078ZM32.91-18.551l2.4-.7A28.1,28.1,0,0,1,37.979-6.617H35.386a30.467,30.467,0,0,0-.653-6.26A26.767,26.767,0,0,0,32.91-18.551Zm-7.351-.273a23.331,23.331,0,0,0-.9,6.552,8.588,8.588,0,0,0,.692,3.646q.692,1.482,1.375,1.482.488,0,1.306-1.112a13.967,13.967,0,0,0,1.619-3.179l2.281.878a12.029,12.029,0,0,1-2.5,4.426,4.218,4.218,0,0,1-2.905,1.6q-1.657,0-3.071-2.262a10.136,10.136,0,0,1-1.414-5.479,23.228,23.228,0,0,1,.975-6.845ZM41.431-16.5v-2.2h4.29q.176-.878.39-2.418l2.457.156q-.137,1.151-.351,2.262h8.931v2.2H47.691a27.9,27.9,0,0,1-1.111,3.257l.019.039a11.037,11.037,0,0,1,4-.819,6.256,6.256,0,0,1,4.1,1.18,4.135,4.135,0,0,1,1.414,3.364,4.243,4.243,0,0,1-1.96,3.637A8.99,8.99,0,0,1,48.9-4.472,22.939,22.939,0,0,1,44.005-5l.429-2.2a21.1,21.1,0,0,0,4.465.527,6.2,6.2,0,0,0,3.374-.8A2.427,2.427,0,0,0,53.521-9.6q0-2.223-3.062-2.223A9.309,9.309,0,0,0,45.292-10.2l-2.242-.936A33.69,33.69,0,0,0,45.194-16.5Zm27.3-1.385h2.321v1.638a5.329,5.329,0,0,1,3.442,1.336,4.374,4.374,0,0,1,1.18,3.266A4.294,4.294,0,0,1,74.4-8.313a5.745,5.745,0,0,1-3.715,1.287,3.989,3.989,0,0,1-1.189,1.833A6.808,6.808,0,0,1,67.229-4L66.137-5.818A3.946,3.946,0,0,0,68.243-7.28a6.324,6.324,0,0,1-2.828-1.794l1.229-1.658a5.022,5.022,0,0,0,2.087,1.385v-4.622a5.526,5.526,0,0,0-3.2,2.418A8.1,8.1,0,0,0,64.3-7.007H62.237v-9.282h2.125v3.178h.02a6.648,6.648,0,0,1,4.348-3.022Zm2.321,3.764v4.271q0,.117-.01.351t-.01.332a2.336,2.336,0,0,0,2.34-2.476A2.328,2.328,0,0,0,71.051-14.125Zm8.307,1.911a6.341,6.341,0,0,1,5.421-2.944,6.682,6.682,0,0,1,4.329,1.677,4.23,4.23,0,0,0,2.691,1.17,3.309,3.309,0,0,0,1.735-.468,7.119,7.119,0,0,0,1.736-1.658l1.95,1.716A6.341,6.341,0,0,1,91.8-9.776a6.682,6.682,0,0,1-4.329-1.677,4.23,4.23,0,0,0-2.691-1.17,3.36,3.36,0,0,0-1.745.468,7.162,7.162,0,0,0-1.765,1.677Zm30.03.039a11.514,11.514,0,0,1,1.6,2.184,3.938,3.938,0,0,1,.448,1.813,3.705,3.705,0,0,1-1.316,2.984,5.245,5.245,0,0,1-3.5,1.112A7.149,7.149,0,0,1,103.07-5l.858-2.165a7.647,7.647,0,0,0,2.554.741,2.367,2.367,0,0,0,1.55-.488,1.562,1.562,0,0,0,.595-1.267,2.647,2.647,0,0,0-.351-1.3,9.391,9.391,0,0,0-1.345-1.687,8.863,8.863,0,0,1-1.443-1.9,3.632,3.632,0,0,1-.429-1.687,3.968,3.968,0,0,1,1.813-3v-.039h-4.738v-2.223h8.346l1.989-.994q.9,1.657,1.657,3.159l-2.008.955q-.468-.936-1.443-2.711v2.164a5.076,5.076,0,0,0-2.116,1.034,1.916,1.916,0,0,0-.77,1.4,2.409,2.409,0,0,0,.341,1.19A10.657,10.657,0,0,0,109.388-12.174Zm7.859-6.4L115.2-17.6q-.878-1.7-1.7-3.159l2.047-1.034Q116.253-20.521,117.247-18.57Zm-5.48,5.5,2.184-.994a39.254,39.254,0,0,1,3,6.981l-2.282.682A32.478,32.478,0,0,0,111.767-13.072Zm-10.8-.722,2.34.566a35.125,35.125,0,0,1-2.73,6.961l-2.2-.9A36.266,36.266,0,0,0,100.964-13.793Z" transform="translate(170.46 252.697)" fill="#fff"/><g transform="translate(171.035 212.379)"><rect width="13.5" height="0.75" transform="translate(0.715 10.871)" fill="#ff38a3"/><path d="M64.638-2.025a2.166,2.166,0,0,1-1.566-.553A1.992,1.992,0,0,1,62.5-4.086V-6.462a1.954,1.954,0,0,1,.576-1.485A2.176,2.176,0,0,1,64.638-8.5a2.192,2.192,0,0,1,1.57.549,1.946,1.946,0,0,1,.581,1.485v2.376a1.984,1.984,0,0,1-.581,1.507A2.182,2.182,0,0,1,64.638-2.025Zm0-1.089a.852.852,0,0,0,.644-.248.913.913,0,0,0,.238-.661V-6.5a.913.913,0,0,0-.238-.661.852.852,0,0,0-.644-.248A.841.841,0,0,0,64-7.159a.913.913,0,0,0-.238.661v2.475A.913.913,0,0,0,64-3.362.841.841,0,0,0,64.638-3.114ZM71.685-5.13a2.373,2.373,0,0,1,.18.954,2.449,2.449,0,0,1-.162.9,1.778,1.778,0,0,1-.725.9,2.188,2.188,0,0,1-1.2.324,2.129,2.129,0,0,1-1.2-.342,1.9,1.9,0,0,1-.743-.927,2.562,2.562,0,0,1-.144-.756.1.1,0,0,1,.108-.108h1.062a.1.1,0,0,1,.108.108,1.671,1.671,0,0,0,.1.441.721.721,0,0,0,.265.365.736.736,0,0,0,.437.131.691.691,0,0,0,.693-.441,1.476,1.476,0,0,0,.126-.63,1.549,1.549,0,0,0-.135-.693.714.714,0,0,0-.693-.423.435.435,0,0,0-.207.058,2.705,2.705,0,0,0-.261.167.12.12,0,0,1-.072.027.086.086,0,0,1-.081-.054l-.531-.747a.111.111,0,0,1-.018-.063.122.122,0,0,1,.036-.09l1.431-1.251a.037.037,0,0,0,.014-.036q0-.018-.032-.018H67.923a.1.1,0,0,1-.076-.031.1.1,0,0,1-.032-.077v-.873a.1.1,0,0,1,.032-.076.1.1,0,0,1,.076-.031h3.753a.1.1,0,0,1,.076.031.1.1,0,0,1,.032.076v.99a.189.189,0,0,1-.063.135l-1.179,1.08a.037.037,0,0,0-.013.036q0,.018.04.018A1.471,1.471,0,0,1,71.685-5.13Z" transform="translate(-15.66 8.496)" fill="#ff38a3"/><path d="M2.316-2.115h.459V-8H5.043v-.414h-5V-8H2.316Zm8.451-.954a2.758,2.758,0,0,1-1.791.576A2.748,2.748,0,0,1,6.123-5.265,2.743,2.743,0,0,1,8.976-8.037a2.656,2.656,0,0,1,1.971.747l.288-.306A3.081,3.081,0,0,0,8.967-8.46a3.156,3.156,0,0,0-3.3,3.2A3.153,3.153,0,0,0,8.958-2.07a3.243,3.243,0,0,0,2.25-.81V-5.238h-.441Zm4.293,1c1.557,0,2.268-.774,2.268-1.665,0-2.286-3.933-1.17-3.933-3.06,0-.693.549-1.26,1.773-1.26a3.113,3.113,0,0,1,1.728.531l.171-.369a3.38,3.38,0,0,0-1.9-.567c-1.548,0-2.232.783-2.232,1.674,0,2.322,3.933,1.188,3.933,3.078,0,.684-.558,1.233-1.818,1.233a3,3,0,0,1-2.079-.792l-.207.342A3.23,3.23,0,0,0,15.06-2.07Zm3.951-.459,2.322-2.313A2.594,2.594,0,0,0,22.359-6.8c0-1.026-.792-1.665-2.025-1.665a2.774,2.774,0,0,0-2.169.864l.324.288A2.241,2.241,0,0,1,20.3-8.037c1.044,0,1.593.495,1.593,1.287,0,.477-.144.918-.891,1.665L18.336-2.439v.324h4.329v-.414Zm7.128.459c1.449,0,2.466-1.224,2.466-3.195s-1.017-3.2-2.466-3.2-2.466,1.224-2.466,3.2S24.69-2.07,26.139-2.07Zm0-.423c-1.188,0-2.007-1.017-2.007-2.772s.819-2.772,2.007-2.772,2.007,1.017,2.007,2.772S27.327-2.493,26.139-2.493Zm4.176-.036,2.322-2.313A2.594,2.594,0,0,0,33.663-6.8c0-1.026-.792-1.665-2.025-1.665a2.774,2.774,0,0,0-2.169.864l.324.288A2.241,2.241,0,0,1,31.6-8.037c1.044,0,1.593.495,1.593,1.287,0,.477-.144.918-.891,1.665L29.64-2.439v.324h4.329v-.414ZM34.6-8.415V-8h1.539v5.886H36.6v-6.3Zm6.327,4.086h2.313v-.4H40.926Z" transform="translate(-0.049 8.486)" fill="#fff"/></g></g></svg>