<svg xmlns="http://www.w3.org/2000/svg" width="288" height="60" viewBox="0 0 288 60"><g transform="translate(-150 -320)"><rect width="288" height="60" transform="translate(150 320)"/><rect width="4" height="60" transform="translate(150 320)" fill="#ff38a3"/><path d="M8.274-4.42c3.725,0,5.967-2.165,5.967-6.143v-7.7h-2.5v7.6c0,2.808-1.248,4.017-3.452,4.017S4.823-7.852,4.823-10.66v-7.6H2.288v7.7C2.288-6.584,4.53-4.42,8.274-4.42ZM27.4-18.265v9.243l-7.527-9.243H17.791v13.65h2.516v-9.243l7.527,9.243H29.92v-13.65Zm6.181,13.65H36.12v-13.65H33.585Zm12.6.2c4.232,0,7.351-2.964,7.351-7.02s-3.12-7.02-7.351-7.02a6.99,6.99,0,0,0-7.351,7.02A6.99,6.99,0,0,0,46.182-4.42Zm0-2.223a4.652,4.652,0,0,1-4.8-4.8,4.652,4.652,0,0,1,4.8-4.8,4.652,4.652,0,0,1,4.8,4.8A4.652,4.652,0,0,1,46.182-6.643ZM65.839-18.265v9.243l-7.527-9.243H56.225v13.65H58.74v-9.243l7.527,9.243h2.087v-13.65Z" transform="translate(170.428 371.115)" fill="#fff"/><g transform="translate(171.035 332.379)"><rect width="13.5" height="0.75" transform="translate(0.715 10.871)" fill="#ff38a3"/><path d="M64.638-2.025a2.166,2.166,0,0,1-1.566-.553A1.992,1.992,0,0,1,62.5-4.086V-6.462a1.954,1.954,0,0,1,.576-1.485A2.176,2.176,0,0,1,64.638-8.5a2.192,2.192,0,0,1,1.57.549,1.946,1.946,0,0,1,.581,1.485v2.376a1.984,1.984,0,0,1-.581,1.507A2.182,2.182,0,0,1,64.638-2.025Zm0-1.089a.852.852,0,0,0,.644-.248.913.913,0,0,0,.238-.661V-6.5a.913.913,0,0,0-.238-.661.852.852,0,0,0-.644-.248A.841.841,0,0,0,64-7.159a.913.913,0,0,0-.238.661v2.475A.913.913,0,0,0,64-3.362.841.841,0,0,0,64.638-3.114Zm4.851-.153a.029.029,0,0,0-.009.036.036.036,0,0,0,.036.018h2.439a.1.1,0,0,1,.076.032.1.1,0,0,1,.031.076v.873a.1.1,0,0,1-.031.076.1.1,0,0,1-.076.032H67.9a.1.1,0,0,1-.076-.032.1.1,0,0,1-.031-.076V-3.06a.183.183,0,0,1,.054-.135q.441-.432.9-.94t.576-.635q.252-.3.513-.567a2.6,2.6,0,0,0,.819-1.35.665.665,0,0,0-.225-.517.841.841,0,0,0-.585-.2.841.841,0,0,0-.585.2.686.686,0,0,0-.225.535v.225a.1.1,0,0,1-.032.076.1.1,0,0,1-.076.031H67.869a.1.1,0,0,1-.077-.031.1.1,0,0,1-.031-.076v-.423a1.547,1.547,0,0,1,.306-.859A1.775,1.775,0,0,1,68.81-8.3a2.621,2.621,0,0,1,1.039-.2,2.438,2.438,0,0,1,1.112.239,1.8,1.8,0,0,1,.729.643,1.648,1.648,0,0,1,.256.9,1.79,1.79,0,0,1-.189.774,4.28,4.28,0,0,1-.567.855q-.279.351-.6.693t-.963.99Z" transform="translate(-15.66 8.496)" fill="#ff38a3"/><path d="M2.316-2.115h.459V-8H5.043v-.414h-5V-8H2.316Zm8.451-.954a2.758,2.758,0,0,1-1.791.576A2.748,2.748,0,0,1,6.123-5.265,2.743,2.743,0,0,1,8.976-8.037a2.656,2.656,0,0,1,1.971.747l.288-.306A3.081,3.081,0,0,0,8.967-8.46a3.156,3.156,0,0,0-3.3,3.2A3.153,3.153,0,0,0,8.958-2.07a3.243,3.243,0,0,0,2.25-.81V-5.238h-.441Zm4.293,1c1.557,0,2.268-.774,2.268-1.665,0-2.286-3.933-1.17-3.933-3.06,0-.693.549-1.26,1.773-1.26a3.113,3.113,0,0,1,1.728.531l.171-.369a3.38,3.38,0,0,0-1.9-.567c-1.548,0-2.232.783-2.232,1.674,0,2.322,3.933,1.188,3.933,3.078,0,.684-.558,1.233-1.818,1.233a3,3,0,0,1-2.079-.792l-.207.342A3.23,3.23,0,0,0,15.06-2.07Zm3.951-.459,2.322-2.313A2.594,2.594,0,0,0,22.359-6.8c0-1.026-.792-1.665-2.025-1.665a2.774,2.774,0,0,0-2.169.864l.324.288A2.241,2.241,0,0,1,20.3-8.037c1.044,0,1.593.495,1.593,1.287,0,.477-.144.918-.891,1.665L18.336-2.439v.324h4.329v-.414Zm7.128.459c1.449,0,2.466-1.224,2.466-3.195s-1.017-3.2-2.466-3.2-2.466,1.224-2.466,3.2S24.69-2.07,26.139-2.07Zm0-.423c-1.188,0-2.007-1.017-2.007-2.772s.819-2.772,2.007-2.772,2.007,1.017,2.007,2.772S27.327-2.493,26.139-2.493Zm4.176-.036,2.322-2.313A2.594,2.594,0,0,0,33.663-6.8c0-1.026-.792-1.665-2.025-1.665a2.774,2.774,0,0,0-2.169.864l.324.288A2.241,2.241,0,0,1,31.6-8.037c1.044,0,1.593.495,1.593,1.287,0,.477-.144.918-.891,1.665L29.64-2.439v.324h4.329v-.414ZM34.6-8.415V-8h1.539v5.886H36.6v-6.3Zm6.327,4.086h2.313v-.4H40.926Z" transform="translate(-0.048 8.487)" fill="#fff"/></g></g></svg>