<svg xmlns="http://www.w3.org/2000/svg" width="288" height="60" viewBox="0 0 288 60"><g transform="translate(-150 -200)"><rect width="288" height="60" transform="translate(150 200)"/><rect width="4" height="60" transform="translate(150 200)" fill="#ff38a3"/><path d="M9.822-18.044h2.087v-.9H9.822Zm6.63,0v-.9h-1.97v.9Zm-2.008,6.9v.936H16.2v-.936Zm-2.5-1.56v-.936H10.095v.936Zm2.5,0H16.2v-.936H14.443Zm-4.349,2.5h1.852v-.936H10.095ZM3.582-7.085q.8-.254.975-.312V-12.35H3.913A31.814,31.814,0,0,1,3.582-7.085Zm3.861-7.352v2.087H6.584v4.173q.156-.058.478-.195t.478-.215l.02,1.014h4.349v-.9h-4.1v-6.9h4.1v-.838H8.457v-.683H7.482v-1.774q-.41,2.067-.917,3.744l-1.307-.448v.936Zm-6.9-5.557,1.716-.546q.448,1.794.858,4.056v-4.895H5.258v4.836a34.179,34.179,0,0,0,.78-4.134l1.443.292v-.585h11.31v4.076h-.975v.683H14.482v.838h4v6.9h-4v.9h4.5v1.989h-4.5v1.969H11.908V-5.583H7.228v-.741A25.322,25.322,0,0,1,3.835-5L3.562-7.066a7.83,7.83,0,0,1-1.4,3.491L.442-5.233A6.1,6.1,0,0,0,1.554-7.738a25.225,25.225,0,0,0,.331-4.612H.774v-2.087h2.34v-.917l-1.4.468Q1.164-17.654.539-19.994Zm26.344,2.827h5.85v-3.627h2.477v3.627h2.866v2.223H35.211v2.34q0,4-1.16,5.616t-4.612,2.5L28.62-6.7q.995-.273,1.56-.478a5.666,5.666,0,0,0,1.092-.536,2.489,2.489,0,0,0,.761-.683,3.666,3.666,0,0,0,.419-.975,6.2,6.2,0,0,0,.234-1.355q.049-.731.049-1.882v-2.34h-5.85ZM25.09-20.325a30.61,30.61,0,0,0-.936,7.78,30.61,30.61,0,0,0,.936,7.78l-2.555.293a31.806,31.806,0,0,1-.975-8.073,31.806,31.806,0,0,1,.975-8.073Zm28.84-1.482q.838,1.521,1.677,3.276Q55.529-11.9,52.4-8.557T42.757-4.609l-.468-2.418q5.187-.507,7.673-2.789t2.857-7.02H40.807v-2.477H52.936q-.312-.6-.839-1.579Zm4.485,2.632-1.872.9q-1.053-2.028-1.521-2.886l1.872-.936Q57.792-20.462,58.416-19.175Zm2.145,4.231H75.926v.448a8.709,8.709,0,0,1-3.013,7.137Q69.9-4.881,63.681-4.55l-.39-2.34a16.03,16.03,0,0,0,6.737-1.579A5.864,5.864,0,0,0,73.079-12.6H60.56Zm1.424-2.73v-2.34H74.737v2.34Zm18.33-.663h6.123v-2.925H89.03v2.925h6.376v3.646A9.081,9.081,0,0,1,92.54-7.524q-2.867,2.545-8.5,2.837l-.351-2.34q4.7-.254,6.9-2.135a6.867,6.867,0,0,0,2.2-5.528v-1.365H82.849v4.29H80.314Zm20.553,1.443v-2.535h12.987v2.535ZM99.5-5.661V-8.2h15.717v2.535Zm19.3-5.577v-2.613h16.107v2.613Z" transform="translate(170.889 252.775)" fill="#fff"/><g transform="translate(171.035 212.379)"><rect width="13.5" height="0.75" transform="translate(0.715 10.871)" fill="#ff38a3"/><path d="M64.638-2.025a2.166,2.166,0,0,1-1.566-.553A1.992,1.992,0,0,1,62.5-4.086V-6.462a1.954,1.954,0,0,1,.576-1.485A2.176,2.176,0,0,1,64.638-8.5a2.192,2.192,0,0,1,1.57.549,1.946,1.946,0,0,1,.581,1.485v2.376a1.984,1.984,0,0,1-.581,1.507A2.182,2.182,0,0,1,64.638-2.025Zm0-1.089a.852.852,0,0,0,.644-.248.913.913,0,0,0,.238-.661V-6.5a.913.913,0,0,0-.238-.661.852.852,0,0,0-.644-.248A.841.841,0,0,0,64-7.159a.913.913,0,0,0-.238.661v2.475A.913.913,0,0,0,64-3.362.841.841,0,0,0,64.638-3.114Zm4-5.283a.268.268,0,0,1,.135-.027h1.089a.1.1,0,0,1,.076.031.1.1,0,0,1,.032.076v6.084a.1.1,0,0,1-.032.076.1.1,0,0,1-.076.032H68.814a.1.1,0,0,1-.076-.032.1.1,0,0,1-.032-.076V-7.164a.052.052,0,0,0-.018-.036.029.029,0,0,0-.036-.009l-.891.243-.036.009q-.081,0-.081-.1l-.027-.774a.127.127,0,0,1,.081-.126Z" transform="translate(-15.66 8.496)" fill="#ff38a3"/><path d="M2.316-2.115h.459V-8H5.043v-.414h-5V-8H2.316Zm8.451-.954a2.758,2.758,0,0,1-1.791.576A2.748,2.748,0,0,1,6.123-5.265,2.743,2.743,0,0,1,8.976-8.037a2.656,2.656,0,0,1,1.971.747l.288-.306A3.081,3.081,0,0,0,8.967-8.46a3.156,3.156,0,0,0-3.3,3.2A3.153,3.153,0,0,0,8.958-2.07a3.243,3.243,0,0,0,2.25-.81V-5.238h-.441Zm4.293,1c1.557,0,2.268-.774,2.268-1.665,0-2.286-3.933-1.17-3.933-3.06,0-.693.549-1.26,1.773-1.26a3.113,3.113,0,0,1,1.728.531l.171-.369a3.38,3.38,0,0,0-1.9-.567c-1.548,0-2.232.783-2.232,1.674,0,2.322,3.933,1.188,3.933,3.078,0,.684-.558,1.233-1.818,1.233a3,3,0,0,1-2.079-.792l-.207.342A3.23,3.23,0,0,0,15.06-2.07Zm3.951-.459,2.322-2.313A2.594,2.594,0,0,0,22.359-6.8c0-1.026-.792-1.665-2.025-1.665a2.774,2.774,0,0,0-2.169.864l.324.288A2.241,2.241,0,0,1,20.3-8.037c1.044,0,1.593.495,1.593,1.287,0,.477-.144.918-.891,1.665L18.336-2.439v.324h4.329v-.414Zm7.128.459c1.449,0,2.466-1.224,2.466-3.195s-1.017-3.2-2.466-3.2-2.466,1.224-2.466,3.2S24.69-2.07,26.139-2.07Zm0-.423c-1.188,0-2.007-1.017-2.007-2.772s.819-2.772,2.007-2.772,2.007,1.017,2.007,2.772S27.327-2.493,26.139-2.493Zm4.176-.036,2.322-2.313A2.594,2.594,0,0,0,33.663-6.8c0-1.026-.792-1.665-2.025-1.665a2.774,2.774,0,0,0-2.169.864l.324.288A2.241,2.241,0,0,1,31.6-8.037c1.044,0,1.593.495,1.593,1.287,0,.477-.144.918-.891,1.665L29.64-2.439v.324h4.329v-.414ZM34.6-8.415V-8h1.539v5.886H36.6v-6.3Zm6.327,4.086h2.313v-.4H40.926Z" transform="translate(-0.048 8.487)" fill="#fff"/></g></g></svg>