<svg xmlns="http://www.w3.org/2000/svg" width="40" height="40" viewBox="0 0 40 40"><g transform="translate(-3054.104 -2660.451)"><circle cx="20" cy="20" r="20" transform="translate(3054.103 2660.451)" fill="#555"/><path d="M3084.148,2676.659c.009.207.014.414.014.623A13.625,13.625,0,0,1,3070.631,2691h-.187a13.658,13.658,0,0,1-7.391-2.166,9.848,9.848,0,0,0,1.15.067,9.678,9.678,0,0,0,5.988-2.064,4.828,4.828,0,0,1-4.5-3.349,4.767,4.767,0,0,0,.906.087,4.827,4.827,0,0,0,1.271-.17,4.823,4.823,0,0,1-3.868-4.727v-.061a4.775,4.775,0,0,0,2.184.6,4.824,4.824,0,0,1-1.493-6.436,13.691,13.691,0,0,0,9.938,5.037,4.824,4.824,0,0,1,8.216-4.4,9.665,9.665,0,0,0,3.061-1.17,4.835,4.835,0,0,1-2.12,2.667,9.616,9.616,0,0,0,2.769-.759A9.814,9.814,0,0,1,3084.148,2676.659Z"/></g></svg>