<svg xmlns="http://www.w3.org/2000/svg" width="67.275" height="58.078" viewBox="0 0 67.275 58.078"><g transform="translate(-616.739 -758)"><g transform="translate(1088 1286.564) rotate(180)"><path d="M435,521.243,405,501.5v7.307l30,19.743Z" transform="translate(0 0.013)" fill="#ff38a3"/><path d="M435,507.243,405,487.5v7.307l30,19.743Z" fill="#ff38a3"/><path d="M440.97,507.244v7.307l30-19.744V487.5Z" transform="translate(0.033)" fill="#ff38a3"/><path d="M440.97,528.551l30-19.744V501.5l-30,19.744Z" transform="translate(0.033 0.013)" fill="#ff38a3"/></g><path d="M-29.854-9.1h-3.406V0h.962V-2.873h2.444c2.314,0,3.718-1.17,3.718-3.107S-27.541-9.1-29.854-9.1Zm-.026,5.382H-32.3v-4.55h2.418c1.82,0,2.782.832,2.782,2.288C-27.1-4.55-28.061-3.718-29.881-3.718ZM-17.452,0h1.014L-20.6-9.1h-.949L-25.708,0h1l1.092-2.431h5.07Zm-5.811-3.211L-21.079-8.1-18.9-3.211ZM-8.391-1.482a3.94,3.94,0,0,1-2.379.7,3.729,3.729,0,0,1-3.887-3.77,3.725,3.725,0,0,1,3.9-3.77A3.711,3.711,0,0,1-8.014-7.254l.6-.611A4.484,4.484,0,0,0-10.8-9.178a4.579,4.579,0,0,0-4.81,4.628,4.576,4.576,0,0,0,4.8,4.628A5.021,5.021,0,0,0-7.468-1.079V-4.55h-.923Zm4.862.65v-3.38H1.177v-.819H-3.529V-8.268H1.749V-9.1h-6.24V0H1.944V-.832ZM9.9,0h.962V-8.268h3.2V-9.1H6.7v.832H9.9Zm9.8.078A4.576,4.576,0,0,0,24.473-4.55,4.576,4.576,0,0,0,19.7-9.178,4.58,4.58,0,0,0,14.918-4.55,4.58,4.58,0,0,0,19.7.078Zm0-.858a3.7,3.7,0,0,1-3.835-3.77A3.7,3.7,0,0,1,19.7-8.32a3.686,3.686,0,0,1,3.809,3.77A3.686,3.686,0,0,1,19.7-.78ZM30.3-9.1H26.891V0h.962V-2.873H30.3c2.314,0,3.718-1.17,3.718-3.107S32.611-9.1,30.3-9.1Zm-.026,5.382H27.853v-4.55h2.418c1.82,0,2.782.832,2.782,2.288C33.053-4.55,32.09-3.718,30.271-3.718Z" transform="translate(650 816)" fill="#fff"/></g></svg>