<svg xmlns="http://www.w3.org/2000/svg" width="40" height="39.999" viewBox="0 0 40 39.999"><g transform="translate(0.001 0.001)"><path d="M177.347,430.095a20,20,0,1,1-20-20A20,20,0,0,1,177.347,430.095Z" transform="translate(-137.348 -410.096)" fill="#110605"/><path d="M175.035,440.351a1.963,1.963,0,1,0,0,3.925h8.206a1.963,1.963,0,1,0,0-3.925Z" transform="translate(-150.422 -421.168)" fill="#c5ce00"/><path d="M148.3,434.019a13.708,13.708,0,0,0,25.058,7.7,1.964,1.964,0,1,0-3.249-2.208,9.784,9.784,0,1,1-8.094-15.277,9.548,9.548,0,0,1,7.264,3.409,1.965,1.965,0,1,0,3.053-2.475A13.386,13.386,0,0,0,162.02,420.3,13.73,13.73,0,0,0,148.3,434.019Z" transform="translate(-141.357 -413.832)" fill="#c5ce00"/></g></svg>