<svg xmlns="http://www.w3.org/2000/svg" width="1170" height="1170" viewBox="0 0 1170 1170">
  <g id="Ring-L" transform="translate(1235 1045) rotate(180)">
    <g id="グループ_4961" data-name="グループ 4961" transform="translate(-1762 -2695)" opacity="0.2">
      <path id="パス_2753" data-name="パス 2753" d="M2412,2589.015a563.286,563.286,0,0,1,316.44,96.656A567.677,567.677,0,0,1,2933.511,2934.7a565.22,565.22,0,0,1-52.182,536.744A567.677,567.677,0,0,1,2632.3,3676.511a565.22,565.22,0,0,1-536.744-52.182A567.68,567.68,0,0,1,1890.489,3375.3a565.219,565.219,0,0,1,52.182-536.744A567.676,567.676,0,0,1,2191.7,2633.489a562.443,562.443,0,0,1,220.3-44.474m0-10c-318.107,0-575.985,257.878-575.985,575.985S2093.893,3730.985,2412,3730.985,2987.985,3473.107,2987.985,3155,2730.107,2579.015,2412,2579.015Z" fill="#adcd03"/>
      <path id="パス_2754" data-name="パス 2754" d="M2412,2574a578.274,578.274,0,0,1,324.84,99.223,582.7,582.7,0,0,1,210.5,255.627,580.234,580.234,0,0,1-53.567,550.99,582.7,582.7,0,0,1-255.627,210.5,580.234,580.234,0,0,1-550.99-53.567,582.7,582.7,0,0,1-210.5-255.627,580.233,580.233,0,0,1,53.567-550.99,582.7,582.7,0,0,1,255.627-210.5A577.363,577.363,0,0,1,2412,2574m0-4c-323.087,0-585,261.913-585,585s261.913,585,585,585,585-261.913,585-585-261.913-585-585-585Z" fill="#adcd03"/>
    </g>
    <g id="グループ_4949" data-name="グループ 4949" transform="translate(-1762 -2695)" opacity="0.12">
      <g id="グループ_4948" data-name="グループ 4948">
        <path id="パス_2747" data-name="パス 2747" d="M1860.311,3094.125q-2.207,20.229-2.95,40.875h140.111q.967-20.626,3.932-40.875Z" fill="#adcd03"/>
        <path id="パス_2748" data-name="パス 2748" d="M2009.3,3054.125a415.142,415.142,0,0,1,805.4,0h143.143C2910.4,2795.771,2684.069,2600,2412,2600s-498.4,195.771-545.844,454.125Z" fill="#adcd03"/>
        <path id="パス_2749" data-name="パス 2749" d="M2001.4,3215.875q-2.961-20.238-3.932-40.875H1857.361q.731,20.639,2.95,40.875Z" fill="#adcd03"/>
        <path id="パス_2750" data-name="パス 2750" d="M2814.7,3255.875a415.144,415.144,0,0,1-805.4,0H1866.156C1913.6,3514.229,2139.931,3710,2412,3710s498.4-195.771,545.844-454.125Z" fill="#adcd03"/>
        <path id="パス_2751" data-name="パス 2751" d="M2966.639,3175H2826.528q-.968,20.626-3.932,40.875h141.093Q2965.9,3195.646,2966.639,3175Z" fill="#adcd03"/>
        <path id="パス_2752" data-name="パス 2752" d="M2822.6,3094.125q2.961,20.238,3.932,40.875h140.111q-.73-20.639-2.95-40.875Z" fill="#adcd03"/>
      </g>
    </g>
  </g>
</svg>
