<svg xmlns="http://www.w3.org/2000/svg" xmlns:xlink="http://www.w3.org/1999/xlink" width="1100" height="600" viewBox="0 0 1100 600"><defs><clipPath id="a"><rect width="1100" height="600"/></clipPath><clipPath id="b"><path d="M0,0H269V37H0Z"/></clipPath><clipPath id="c"><path d="M0,0H238V35H0Z"/></clipPath></defs><g clip-path="url(#a)"><g transform="translate(546.174 335.248)"><path d="M59.12-70.5v47.74L20.24-70.5H9.47V0H22.46V-47.74L61.33,0H72.11V-70.5Z" transform="translate(-394.85)" fill="#fff"/><path d="M58.81-26.59c0-16.81-11.48-27.79-27.19-27.79C15.61-54.38,3.83-42.9,3.83-26.89S15.51.71,33.54.71c9.26,0,16.81-3.03,21.65-8.77l-6.75-7.75c-3.83,3.93-8.56,5.84-14.6,5.84-9.37,0-15.91-5.04-17.42-12.89H58.61C58.71-24.07,58.81-25.58,58.81-26.59ZM31.62-44.31c8.26,0,14.2,5.34,15.21,13.09H16.32C17.52-39.07,23.47-44.31,31.62-44.31Z" transform="translate(-313.85)" fill="#fff"/><path d="M46.53-53.78,29.31-13.9,12.59-53.78H-.5L22.56,0H35.55L58.61-53.78Z" transform="translate(-251.65)" fill="#fff"/><path d="M58.81-26.59c0-16.81-11.48-27.79-27.19-27.79C15.61-54.38,3.83-42.9,3.83-26.89S15.51.71,33.54.71c9.26,0,16.81-3.03,21.65-8.77l-6.75-7.75c-3.83,3.93-8.56,5.84-14.6,5.84-9.37,0-15.91-5.04-17.42-12.89H58.61C58.71-24.07,58.81-25.58,58.81-26.59ZM31.62-44.31c8.26,0,14.2,5.34,15.21,13.09H16.32C17.52-39.07,23.47-44.31,31.62-44.31Z" transform="translate(-194.85)" fill="#fff"/><path d="M20.24-45.92v-7.86H8.26V0H20.85V-26.08c0-10.98,6.04-16.62,15.61-16.62a16.16,16.16,0,0,1,2.92.3V-54.38C30.41-54.38,23.87-51.56,20.24-45.92Z" transform="translate(-132.65)" fill="#fff"/><path transform="translate(-91.15)" fill="#fff"/><path d="M22.56-10.98V-30.41H56.6V-41.19H22.56V-59.52H60.93V-70.5H9.47V0H62.34V-10.98Z" transform="translate(-63.55)" fill="#fff"/><path d="M38.77-54.38c-7.85,0-14.4,2.62-18.53,7.55v-6.95H8.26V0H20.85V-27.19c0-10.78,6.04-16.21,15-16.21,8.06,0,12.79,4.63,12.79,14.2V0H61.23V-30.82C61.23-47.03,51.66-54.38,38.77-54.38Z" transform="translate(3.45)" fill="#fff"/><path d="M48.34-74.72v27.59c-4.23-4.94-10.37-7.25-17.32-7.25-15.61,0-27.19,10.77-27.19,27.49S15.41.71,31.02.71c7.35,0,13.59-2.52,17.82-7.66V0H60.93V-74.72ZM32.53-10.07c-9.06,0-16.01-6.55-16.01-16.82s6.95-16.82,16.01-16.82,16.01,6.55,16.01,16.82S41.59-10.07,32.53-10.07Z" transform="translate(71.95)" fill="#fff"/><path d="M24.88.71c15.1,0,24.37-6.55,24.37-16.62,0-21.05-33.24-11.38-33.24-22.26,0-3.52,3.63-6.04,11.28-6.04A29.457,29.457,0,0,1,42.7-40.18l4.83-9.57c-4.83-2.92-12.99-4.63-20.14-4.63-14.5,0-23.66,6.64-23.66,16.82,0,21.45,33.23,11.78,33.23,22.05,0,3.73-3.32,5.94-11.28,5.94A36.176,36.176,0,0,1,6.95-14.9L2.12-5.34C6.95-1.91,15.91.71,24.88.71Z" transform="translate(140.65)" fill="#fff"/><path transform="translate(192.15)" fill="#fff"/><path d="M62.24,0H75.93L44.11-70.5H31.22L-.5,0H12.99l6.95-16.32H55.19ZM24.37-26.59,37.56-57.4l13.3,30.81Z" transform="translate(219.75)" fill="#fff"/><path d="M32.93.71c10.48,0,18.83-4.54,22.96-12.59l-9.66-5.64a15.244,15.244,0,0,1-13.4,7.45c-9.26,0-16.31-6.34-16.31-16.82,0-10.37,7.05-16.82,16.31-16.82a15.244,15.244,0,0,1,13.4,7.45l9.66-5.63c-4.13-8.16-12.48-12.49-22.96-12.49C15.91-54.38,3.83-43,3.83-26.89S15.91.71,32.93.71Z" transform="translate(296.45)" fill="#fff"/><path d="M37.06-11.88a11.31,11.31,0,0,1-7.05,2.21c-4.83,0-7.45-2.82-7.45-8.06V-43.3h14.4V-53.37H22.56V-65.66H9.97v12.29H1.11V-43.3H9.97v25.88C9.97-5.54,16.72.71,28.5.71c4.53,0,9.06-1.21,12.09-3.63Z" transform="translate(353.75)" fill="#fff"/></g><g transform="translate(670 349)" clip-path="url(#b)"><g transform="translate(0 22)"><path d="M5.13-2.79l.33-.33C6.5-4.18,7.28-4.99,7.81-5.54s1.02-1.13,1.47-1.7a10.336,10.336,0,0,0,1.39-2.09,4.3,4.3,0,0,0,.46-1.89,4.005,4.005,0,0,0-.63-2.2,4.341,4.341,0,0,0-1.78-1.57,5.916,5.916,0,0,0-2.71-.59,6.513,6.513,0,0,0-2.55.49,4.3,4.3,0,0,0-1.81,1.4,3.815,3.815,0,0,0-.75,2.1v1.03a.273.273,0,0,0,.08.19.249.249,0,0,0,.19.07H3.76a.249.249,0,0,0,.19-.07.273.273,0,0,0,.08-.19v-.55a1.671,1.671,0,0,1,.55-1.31,2.036,2.036,0,0,1,1.43-.49,2.07,2.07,0,0,1,1.43.49,1.649,1.649,0,0,1,.55,1.27q0,1.065-2.01,3.3c-.42.44-.84.9-1.25,1.38-.19.21-.66.72-1.41,1.55s-1.48,1.6-2.2,2.3a.445.445,0,0,0-.13.33V-.26a.25.25,0,0,0,.08.18A.25.25,0,0,0,1.25,0h9.9a.256.256,0,0,0,.19-.08.25.25,0,0,0,.08-.18V-2.4a.25.25,0,0,0-.08-.18.224.224,0,0,0-.19-.08H5.19a.105.105,0,0,1-.09-.05C5.09-2.74,5.1-2.76,5.13-2.79Z" fill="#ff38a3"/><path d="M6.25.24a5.354,5.354,0,0,0,3.84-1.35A4.873,4.873,0,0,0,11.51-4.8v-5.8a4.766,4.766,0,0,0-1.42-3.63,5.354,5.354,0,0,0-3.84-1.35,5.3,5.3,0,0,0-3.83,1.35A4.76,4.76,0,0,0,1.01-10.6v5.8A4.867,4.867,0,0,0,2.42-1.11,5.3,5.3,0,0,0,6.25.24Zm0-2.66a2.056,2.056,0,0,1-1.55-.6,2.256,2.256,0,0,1-.59-1.62v-6.05a2.224,2.224,0,0,1,.59-1.62,2.056,2.056,0,0,1,1.55-.6,2.087,2.087,0,0,1,1.57.6,2.218,2.218,0,0,1,.58,1.62v6.05a2.25,2.25,0,0,1-.58,1.62A2.087,2.087,0,0,1,6.25-2.42Z" transform="translate(12.76)" fill="#ff38a3"/><path d="M5.13-2.79l.33-.33C6.5-4.18,7.28-4.99,7.81-5.54s1.02-1.13,1.47-1.7a10.336,10.336,0,0,0,1.39-2.09,4.3,4.3,0,0,0,.46-1.89,4.005,4.005,0,0,0-.63-2.2,4.341,4.341,0,0,0-1.78-1.57,5.916,5.916,0,0,0-2.71-.59,6.513,6.513,0,0,0-2.55.49,4.3,4.3,0,0,0-1.81,1.4,3.815,3.815,0,0,0-.75,2.1v1.03a.273.273,0,0,0,.08.19.249.249,0,0,0,.19.07H3.76a.249.249,0,0,0,.19-.07.273.273,0,0,0,.08-.19v-.55a1.671,1.671,0,0,1,.55-1.31,2.036,2.036,0,0,1,1.43-.49,2.07,2.07,0,0,1,1.43.49,1.649,1.649,0,0,1,.55,1.27q0,1.065-2.01,3.3c-.42.44-.84.9-1.25,1.38-.19.21-.66.72-1.41,1.55s-1.48,1.6-2.2,2.3a.445.445,0,0,0-.13.33V-.26a.25.25,0,0,0,.08.18A.25.25,0,0,0,1.25,0h9.9a.256.256,0,0,0,.19-.08.25.25,0,0,0,.08-.18V-2.4a.25.25,0,0,0-.08-.18.224.224,0,0,0-.19-.08H5.19a.105.105,0,0,1-.09-.05C5.09-2.74,5.1-2.76,5.13-2.79Z" transform="translate(25.74)" fill="#ff38a3"/><path d="M3.3-15.33.99-14.26a.326.326,0,0,0-.2.31l.07,1.89c0,.17.06.25.2.25l.08-.03,2.18-.59a.08.08,0,0,1,.09.02.122.122,0,0,1,.04.09V-.26a.25.25,0,0,0,.08.18A.256.256,0,0,0,3.72,0H6.29a.256.256,0,0,0,.19-.08.25.25,0,0,0,.08-.18V-15.14a.25.25,0,0,0-.08-.18.256.256,0,0,0-.19-.08H3.63A.579.579,0,0,0,3.3-15.33Z" transform="translate(38.5)" fill="#ff38a3"/></g><g transform="translate(46.596 22)"><path fill="#fff"/></g><g transform="translate(51.436 22)"><path d="M6.78.11c3.83,0,5.58-1.9,5.58-4.1,0-5.63-9.68-2.88-9.68-7.53,0-1.71,1.35-3.1,4.37-3.1a7.719,7.719,0,0,1,4.25,1.3l.42-.9a8.284,8.284,0,0,0-4.67-1.4c-3.82,0-5.5,1.93-5.5,4.12,0,5.72,9.68,2.93,9.68,7.58,0,1.68-1.37,3.03-4.47,3.03A7.35,7.35,0,0,1,1.64-2.84l-.51.85A7.96,7.96,0,0,0,6.78.11Z" fill="#fff"/><path d="M5.67,0H6.8V-14.49h5.59v-1.02H.09v1.02H5.67Z" transform="translate(13.838)" fill="#fff"/><path d="M8.77.11C12.63.11,15-2.15,15-6.58v-8.93H13.87v8.89c0,3.87-1.84,5.69-5.07,5.69S3.7-2.75,3.7-6.62v-8.89H2.57v8.93C2.57-2.15,4.92.11,8.77.11Z" transform="translate(26.884)" fill="#fff"/><path d="M2.7,0H8.84c4.92,0,8.24-3.23,8.24-7.75s-3.32-7.76-8.24-7.76H2.7ZM3.83-1.02V-14.49H8.75c4.39,0,7.2,2.79,7.2,6.74s-2.81,6.73-7.2,6.73Z" transform="translate(44.77)" fill="#fff"/><path d="M3.83-1.02V-7.38H12.1v-.99H3.83v-6.12h9.24v-1.02H2.7V0H13.4V-1.02Z" transform="translate(63.382)" fill="#fff"/><path d="M14.2-15.51V-2.04L3.66-15.51H2.7V0H3.83V-13.47L14.4,0h.93V-15.51Z" transform="translate(78.54)" fill="#fff"/><path d="M5.67,0H6.8V-14.49h5.59v-1.02H.09v1.02H5.67Z" transform="translate(96.888)" fill="#fff"/><path d="M6.78.11c3.83,0,5.58-1.9,5.58-4.1,0-5.63-9.68-2.88-9.68-7.53,0-1.71,1.35-3.1,4.37-3.1a7.719,7.719,0,0,1,4.25,1.3l.42-.9a8.284,8.284,0,0,0-4.67-1.4c-3.82,0-5.5,1.93-5.5,4.12,0,5.72,9.68,2.93,9.68,7.58,0,1.68-1.37,3.03-4.47,3.03A7.35,7.35,0,0,1,1.64-2.84l-.51.85A7.96,7.96,0,0,0,6.78.11Z" transform="translate(109.934)" fill="#fff"/><path transform="translate(123.772)" fill="#fff"/><path d="M22.33-15.51,17.57-1.53,12.74-15.51H11.65L6.8-1.55,2.08-15.51H.89L6.16,0h1.2l4.83-13.91L16.99,0h1.2l5.25-15.51Z" transform="translate(129.866)" fill="#fff"/><path d="M9.28.11a7.764,7.764,0,0,0,8.07-7.86,7.772,7.772,0,0,0-8.07-7.87A7.763,7.763,0,0,0,1.22-7.75,7.761,7.761,0,0,0,9.28.11Zm0-1.04A6.7,6.7,0,0,1,2.35-7.75a6.7,6.7,0,0,1,6.93-6.83A6.7,6.7,0,0,1,16.2-7.75,6.7,6.7,0,0,1,9.28-.93Z" transform="translate(154.462)" fill="#fff"/><path d="M14.76,0,10.88-5.43a4.752,4.752,0,0,0,3.63-4.85c0-3.28-2.35-5.23-6.25-5.23H2.7V0H3.83V-5.07H8.26a12.043,12.043,0,0,0,1.51-.11L13.47,0ZM3.83-6.07v-8.42H8.26c3.33,0,5.1,1.53,5.1,4.21,0,2.66-1.77,4.21-5.1,4.21Z" transform="translate(173.338)" fill="#fff"/><path d="M13.98,0h1.37L8.06-8.46l6.83-7.05H13.52L3.83-5.54v-9.97H2.7V0H3.83V-4.08L7.31-7.64Z" transform="translate(189.618)" fill="#fff"/><path d="M6.78.11c3.83,0,5.58-1.9,5.58-4.1,0-5.63-9.68-2.88-9.68-7.53,0-1.71,1.35-3.1,4.37-3.1a7.719,7.719,0,0,1,4.25,1.3l.42-.9a8.284,8.284,0,0,0-4.67-1.4c-3.82,0-5.5,1.93-5.5,4.12,0,5.72,9.68,2.93,9.68,7.58,0,1.68-1.37,3.03-4.47,3.03A7.35,7.35,0,0,1,1.64-2.84l-.51.85A7.96,7.96,0,0,0,6.78.11Z" transform="translate(205.524)" fill="#fff"/></g><g transform="translate(258 32.5)"><path d="M10-.5v1H-10v-1Z" fill="#ff38a3"/></g><g transform="translate(258 36.5)"><path d="M10-.5v1H-10v-1Z" fill="#ff38a3"/></g></g><g transform="translate(158 214)" clip-path="url(#c)"><g transform="translate(101 15)"><path d="M10.12-11.28,5.56-1.06,1-11.28H.1L5.12,0h.83l5.02-11.28Z" fill="#fff"/><path d="M10.39,0h.89L6.09-11.28H5.27L.08,0H.97L2.4-3.17H8.94ZM2.72-3.87l2.95-6.51L8.64-3.87Z" transform="translate(10.992)" fill="#fff"/><path d="M10.33-11.28v9.8l-7.67-9.8H1.97V0h.82V-9.8L10.47,0h.68V-11.28Z" transform="translate(22.352)" fill="#fff"/><path d="M4.12,0h.83V-10.54H9.01v-.74H.06v.74H4.12Z" transform="translate(35.376)" fill="#fff"/><path d="M10.39,0h.89L6.09-11.28H5.27L.08,0H.97L2.4-3.17H8.94ZM2.72-3.87l2.95-6.51L8.64-3.87Z" transform="translate(44.544)" fill="#fff"/><path d="M10.33-11.28v9.8l-7.67-9.8H1.97V0h.82V-9.8L10.47,0h.68V-11.28Z" transform="translate(55.904)" fill="#fff"/><path fill="#fff"/><path d="M10.02-1.71A4.933,4.933,0,0,1,6.82-.68,4.915,4.915,0,0,1,1.71-5.64,4.9,4.9,0,0,1,6.82-10.6a4.75,4.75,0,0,1,3.52,1.33l.52-.54A5.519,5.519,0,0,0,6.8-11.36,5.643,5.643,0,0,0,.89-5.64,5.638,5.638,0,0,0,6.78.08a5.782,5.782,0,0,0,4.03-1.45V-5.59h-.79Z" transform="translate(0 17)" fill="#fff"/><path d="M10.39,0h.89L6.09-11.28H5.27L.08,0H.97L2.4-3.17H8.94ZM2.72-3.87l2.95-6.51L8.64-3.87Z" transform="translate(12.368 17)" fill="#fff"/><path d="M13.44,0l-.02-11.28h-.67L7.7-2.56,2.66-11.28H1.97V0h.8V-9.62L7.49-1.5H7.9l4.72-8.15L12.63,0Z" transform="translate(23.728 17)" fill="#fff"/><path d="M2.79-.74V-5.37H8.8v-.72H2.79v-4.45H9.51v-.74H1.97V0H9.75V-.74Z" transform="translate(39.024 17)" fill="#fff"/><path transform="translate(49.728 17)" fill="#fff"/><path d="M10.39,0h.89L6.09-11.28H5.27L.08,0H.97L2.4-3.17H8.94ZM2.72-3.87l2.95-6.51L8.64-3.87Z" transform="translate(53.84 17)" fill="#fff"/><path d="M6.74.08A5.394,5.394,0,0,0,10.75-1.5l-.52-.53A4.717,4.717,0,0,1,6.77-.68,4.89,4.89,0,0,1,1.71-5.64,4.89,4.89,0,0,1,6.77-10.6a4.7,4.7,0,0,1,3.46,1.33l.52-.53a5.418,5.418,0,0,0-4.01-1.56A5.627,5.627,0,0,0,.89-5.64,5.627,5.627,0,0,0,6.74.08Z" transform="translate(65.2 17)" fill="#fff"/><path d="M10.39,0h.89L6.09-11.28H5.27L.08,0H.97L2.4-3.17H8.94ZM2.72-3.87l2.95-6.51L8.64-3.87Z" transform="translate(76.416 17)" fill="#fff"/><path d="M1.97,0H6.43c3.58,0,5.99-2.35,5.99-5.64s-2.41-5.64-5.99-5.64H1.97Zm.82-.74v-9.8H6.36c3.2,0,5.24,2.03,5.24,4.9S9.56-.74,6.36-.74Z" transform="translate(87.776 17)" fill="#fff"/><path d="M2.79-.74V-5.37H8.8v-.72H2.79v-4.45H9.51v-.74H1.97V0H9.75V-.74Z" transform="translate(100.992 17)" fill="#fff"/><path d="M13.44,0l-.02-11.28h-.67L7.7-2.56,2.66-11.28H1.97V0h.8V-9.62L7.49-1.5H7.9l4.72-8.15L12.63,0Z" transform="translate(111.696 17)" fill="#fff"/><path d="M9.99-11.28H9.14L5.06-4.64.98-11.28H.08l4.54,7.4V0h.83V-3.88Z" transform="translate(126.992 17)" fill="#fff"/></g><g transform="translate(-0.001 2)"><path d="M76.6,8.191l-8.359,21.27H60.453L72.912.453h7.783L92.857,29.461H84.788ZM51.932,14.646H58.47V26.191a19.326,19.326,0,0,1-5.69,2.752A21.418,21.418,0,0,1,46.389,30a16.03,16.03,0,0,1-7.924-1.97,14.536,14.536,0,0,1-5.568-5.4,14.855,14.855,0,0,1-2.027-7.7A14.337,14.337,0,0,1,32.959,7.3a14.666,14.666,0,0,1,5.752-5.358A17.154,17.154,0,0,1,46.882,0a18.72,18.72,0,0,1,6.455,1.182A16.8,16.8,0,0,1,58.8,4.343L54.5,9.639a12.1,12.1,0,0,0-3.621-2.358,10.3,10.3,0,0,0-4.04-.869,7.963,7.963,0,0,0-4.179,1.117,8.052,8.052,0,0,0-2.938,3.062,8.826,8.826,0,0,0-1.076,4.345,9.019,9.019,0,0,0,1.076,4.407A7.909,7.909,0,0,0,42.7,22.426a8.18,8.18,0,0,0,4.221,1.117,11.451,11.451,0,0,0,5.007-1.407ZM0,.453H8.152l7.241,20.98L22.676.453H30.46L19.118,29.461H11.255Z" fill="#fff"/></g><g transform="translate(177 10.5)"><path d="M5-.5v1H-5v-1Z" fill="#ff38a3"/></g><g transform="translate(177 7.5)"><path d="M5-.5v1H-5v-1Z" fill="#ff38a3"/></g></g></g></svg>