<svg xmlns="http://www.w3.org/2000/svg" xmlns:xlink="http://www.w3.org/1999/xlink" width="1100" height="600" viewBox="0 0 1100 600"><defs><clipPath id="a"><rect width="1100" height="600"/></clipPath><clipPath id="b"><path d="M0,0H269V37H0Z"/></clipPath><clipPath id="c"><path d="M0,0H238V35H0Z"/></clipPath></defs><g clip-path="url(#a)"><g transform="translate(547.212 331)"><path d="M10.41-48.13h16.4v9.75q-9.51,3.375-14.76,9.84A22.974,22.974,0,0,0,6.81-13.69q0,7.29,4.34,11.6t11.56,4.3q10.59,0,20.5-8.32,9.93-8.325,15.58-23.16,5.985,3.435,5.99,10.98a12.824,12.824,0,0,1-4.39,9.52A23.764,23.764,0,0,1,48.63-3.03l2.78,9.34q11-2.13,17.39-8.73a22,22,0,0,0,6.39-15.87q0-10.65-7.7-16.81T45.67-41.25a74.62,74.62,0,0,0-8.77.5v-7.38H71.59v-8.7H36.9v-9.34H26.81v9.34H10.41ZM36.9-13.2V-31.24a49.69,49.69,0,0,1,8.77-.74c.93,0,2.16.05,3.69.16A48.456,48.456,0,0,1,36.9-13.2ZM26.81-7.46a13.149,13.149,0,0,1-3.03.33A6.1,6.1,0,0,1,18.94-9.1a8.328,8.328,0,0,1-1.72-5.66q0-8.04,9.59-13.12Z" transform="translate(-246)" fill="#fff"/><path d="M61.79-31.24A128.144,128.144,0,0,1,64.53-4.92H75.44q0-30.51-11.23-53.14L54.12-55.1A112.38,112.38,0,0,1,61.79-31.24ZM12.55-57.48A97.428,97.428,0,0,0,8.45-28.7q0,13.53,5.94,23.04T27.31,3.85q5.82,0,12.21-6.72,6.405-6.72,10.5-18.61l-9.59-3.69a58.823,58.823,0,0,1-6.81,13.36q-3.45,4.68-5.49,4.68c-1.92,0-3.84-2.08-5.79-6.24s-2.91-9.26-2.91-15.33a97.919,97.919,0,0,1,3.78-27.55Z" transform="translate(-164)" fill="#fff"/><path d="M23.78-46.49a142.518,142.518,0,0,1-9.02,22.55l9.43,3.93a39.122,39.122,0,0,1,21.73-6.8q12.87,0,12.87,9.34,0,5.58-5.24,8.94T39.36-5.17A88.452,88.452,0,0,1,20.58-7.38l-1.8,9.27A96.854,96.854,0,0,0,39.36,4.1q13.86,0,22.1-5.78T69.7-16.97q0-9.2-5.95-14.15T46.49-36.08a46.565,46.565,0,0,0-16.81,3.44l-.08-.16a118.388,118.388,0,0,0,4.68-13.69H74.05v-9.27H36.49q.9-4.68,1.48-9.51l-10.34-.66c-.6,4.32-1.14,7.71-1.64,10.17H7.95v9.27Z" transform="translate(-82)" fill="#fff"/><path d="M40.75-44.94A27.968,27.968,0,0,0,22.47-32.23h-.08V-45.59H13.45V-6.56h8.69q0-11.235,5.17-19.11A23.231,23.231,0,0,1,40.75-35.83V-16.4a21.152,21.152,0,0,1-8.77-5.82l-5.17,6.97A26.593,26.593,0,0,0,38.7-7.71q-2.205,3.69-8.85,6.15l4.59,7.63a28.715,28.715,0,0,0,9.51-5,16.691,16.691,0,0,0,5-7.71q10.26-.495,15.62-5.41,5.385-4.92,5.38-14.03,0-8.85-4.97-13.73-4.95-4.875-14.47-5.62v-6.89H40.75ZM60.27-26.08q0,9.03-9.84,10.42c0-.28.01-.74.04-1.4s.04-1.14.04-1.47V-36.49Q60.275-35.1,60.27-26.08Z" fill="#fff"/><path d="M44.44-33.78q-8.52-7.065-18.2-7.06-14.1,0-22.8,12.39l8.04,7.29a30.061,30.061,0,0,1,7.42-7.05,14.138,14.138,0,0,1,7.34-1.97q5.49,0,11.32,4.92,8.52,7.065,18.2,7.06,14.1,0,22.8-12.39l-8.2-7.21a30.133,30.133,0,0,1-7.3,6.97,13.945,13.945,0,0,1-7.3,1.97Q50.27-28.86,44.44-33.78Z" transform="translate(82)" fill="#fff"/><path d="M42.43-35.18a10.17,10.17,0,0,1-1.43-5q0-3.03,3.24-5.9a21.188,21.188,0,0,1,8.9-4.35v-9.1q4.095,7.455,6.06,11.4l8.45-4.02q-3.2-6.315-6.97-13.29l-8.36,4.19H17.22v9.34H37.15v.17q-7.635,6.06-7.63,12.63a15.294,15.294,0,0,0,1.8,7.09,37.532,37.532,0,0,0,6.07,7.99,39.4,39.4,0,0,1,5.66,7.1,11.144,11.144,0,0,1,1.48,5.45,6.568,6.568,0,0,1-2.51,5.33A9.912,9.912,0,0,1,35.51-4.1q-3.375,0-10.75-3.12l-3.6,9.11A30.023,30.023,0,0,0,36.08,5.74q9.18,0,14.72-4.67a15.588,15.588,0,0,0,5.53-12.55,16.548,16.548,0,0,0-1.88-7.63,48.32,48.32,0,0,0-6.73-9.18A44.873,44.873,0,0,1,42.43-35.18ZM73.64-68.72l-8.61,4.35q3.435,6.15,7.13,13.28l8.61-4.1Q76.585-63.38,73.64-68.72ZM69.95-4.02l9.59-2.87A164.753,164.753,0,0,0,66.91-36.24l-9.18,4.18A137.318,137.318,0,0,1,69.95-4.02ZM1.39-7.22l9.27,3.78A148.2,148.2,0,0,0,22.14-32.72L12.3-35.1A151.681,151.681,0,0,1,1.39-7.22Z" transform="translate(164)" fill="#fff"/></g><g transform="translate(523 349)" clip-path="url(#b)"><g transform="translate(0 22)"><path d="M5.13-2.79l.33-.33C6.5-4.18,7.28-4.99,7.81-5.54s1.02-1.13,1.47-1.7a10.336,10.336,0,0,0,1.39-2.09,4.3,4.3,0,0,0,.46-1.89,4.005,4.005,0,0,0-.63-2.2,4.341,4.341,0,0,0-1.78-1.57,5.916,5.916,0,0,0-2.71-.59,6.513,6.513,0,0,0-2.55.49,4.3,4.3,0,0,0-1.81,1.4,3.815,3.815,0,0,0-.75,2.1v1.03a.273.273,0,0,0,.08.19.249.249,0,0,0,.19.07H3.76a.249.249,0,0,0,.19-.07.273.273,0,0,0,.08-.19v-.55a1.671,1.671,0,0,1,.55-1.31,2.036,2.036,0,0,1,1.43-.49,2.07,2.07,0,0,1,1.43.49,1.649,1.649,0,0,1,.55,1.27q0,1.065-2.01,3.3c-.42.44-.84.9-1.25,1.38-.19.21-.66.72-1.41,1.55s-1.48,1.6-2.2,2.3a.445.445,0,0,0-.13.33V-.26a.25.25,0,0,0,.08.18A.25.25,0,0,0,1.25,0h9.9a.256.256,0,0,0,.19-.08.25.25,0,0,0,.08-.18V-2.4a.25.25,0,0,0-.08-.18.224.224,0,0,0-.19-.08H5.19a.105.105,0,0,1-.09-.05C5.09-2.74,5.1-2.76,5.13-2.79Z" fill="#ff38a3"/><path d="M6.25.24a5.354,5.354,0,0,0,3.84-1.35A4.873,4.873,0,0,0,11.51-4.8v-5.8a4.766,4.766,0,0,0-1.42-3.63,5.354,5.354,0,0,0-3.84-1.35,5.3,5.3,0,0,0-3.83,1.35A4.76,4.76,0,0,0,1.01-10.6v5.8A4.867,4.867,0,0,0,2.42-1.11,5.3,5.3,0,0,0,6.25.24Zm0-2.66a2.056,2.056,0,0,1-1.55-.6,2.256,2.256,0,0,1-.59-1.62v-6.05a2.224,2.224,0,0,1,.59-1.62,2.056,2.056,0,0,1,1.55-.6,2.087,2.087,0,0,1,1.57.6,2.218,2.218,0,0,1,.58,1.62v6.05a2.25,2.25,0,0,1-.58,1.62A2.087,2.087,0,0,1,6.25-2.42Z" transform="translate(12.76)" fill="#ff38a3"/><path d="M5.13-2.79l.33-.33C6.5-4.18,7.28-4.99,7.81-5.54s1.02-1.13,1.47-1.7a10.336,10.336,0,0,0,1.39-2.09,4.3,4.3,0,0,0,.46-1.89,4.005,4.005,0,0,0-.63-2.2,4.341,4.341,0,0,0-1.78-1.57,5.916,5.916,0,0,0-2.71-.59,6.513,6.513,0,0,0-2.55.49,4.3,4.3,0,0,0-1.81,1.4,3.815,3.815,0,0,0-.75,2.1v1.03a.273.273,0,0,0,.08.19.249.249,0,0,0,.19.07H3.76a.249.249,0,0,0,.19-.07.273.273,0,0,0,.08-.19v-.55a1.671,1.671,0,0,1,.55-1.31,2.036,2.036,0,0,1,1.43-.49,2.07,2.07,0,0,1,1.43.49,1.649,1.649,0,0,1,.55,1.27q0,1.065-2.01,3.3c-.42.44-.84.9-1.25,1.38-.19.21-.66.72-1.41,1.55s-1.48,1.6-2.2,2.3a.445.445,0,0,0-.13.33V-.26a.25.25,0,0,0,.08.18A.25.25,0,0,0,1.25,0h9.9a.256.256,0,0,0,.19-.08.25.25,0,0,0,.08-.18V-2.4a.25.25,0,0,0-.08-.18.224.224,0,0,0-.19-.08H5.19a.105.105,0,0,1-.09-.05C5.09-2.74,5.1-2.76,5.13-2.79Z" transform="translate(25.74)" fill="#ff38a3"/><path d="M3.3-15.33.99-14.26a.326.326,0,0,0-.2.31l.07,1.89c0,.17.06.25.2.25l.08-.03,2.18-.59a.08.08,0,0,1,.09.02.122.122,0,0,1,.04.09V-.26a.25.25,0,0,0,.08.18A.256.256,0,0,0,3.72,0H6.29a.256.256,0,0,0,.19-.08.25.25,0,0,0,.08-.18V-15.14a.25.25,0,0,0-.08-.18.256.256,0,0,0-.19-.08H3.63A.579.579,0,0,0,3.3-15.33Z" transform="translate(38.5)" fill="#ff38a3"/></g><g transform="translate(46.596 22)"><path fill="#fff"/></g><g transform="translate(51.436 22)"><path d="M6.78.11c3.83,0,5.58-1.9,5.58-4.1,0-5.63-9.68-2.88-9.68-7.53,0-1.71,1.35-3.1,4.37-3.1a7.719,7.719,0,0,1,4.25,1.3l.42-.9a8.284,8.284,0,0,0-4.67-1.4c-3.82,0-5.5,1.93-5.5,4.12,0,5.72,9.68,2.93,9.68,7.58,0,1.68-1.37,3.03-4.47,3.03A7.35,7.35,0,0,1,1.64-2.84l-.51.85A7.96,7.96,0,0,0,6.78.11Z" fill="#fff"/><path d="M5.67,0H6.8V-14.49h5.59v-1.02H.09v1.02H5.67Z" transform="translate(13.838)" fill="#fff"/><path d="M8.77.11C12.63.11,15-2.15,15-6.58v-8.93H13.87v8.89c0,3.87-1.84,5.69-5.07,5.69S3.7-2.75,3.7-6.62v-8.89H2.57v8.93C2.57-2.15,4.92.11,8.77.11Z" transform="translate(26.884)" fill="#fff"/><path d="M2.7,0H8.84c4.92,0,8.24-3.23,8.24-7.75s-3.32-7.76-8.24-7.76H2.7ZM3.83-1.02V-14.49H8.75c4.39,0,7.2,2.79,7.2,6.74s-2.81,6.73-7.2,6.73Z" transform="translate(44.77)" fill="#fff"/><path d="M3.83-1.02V-7.38H12.1v-.99H3.83v-6.12h9.24v-1.02H2.7V0H13.4V-1.02Z" transform="translate(63.382)" fill="#fff"/><path d="M14.2-15.51V-2.04L3.66-15.51H2.7V0H3.83V-13.47L14.4,0h.93V-15.51Z" transform="translate(78.54)" fill="#fff"/><path d="M5.67,0H6.8V-14.49h5.59v-1.02H.09v1.02H5.67Z" transform="translate(96.888)" fill="#fff"/><path d="M6.78.11c3.83,0,5.58-1.9,5.58-4.1,0-5.63-9.68-2.88-9.68-7.53,0-1.71,1.35-3.1,4.37-3.1a7.719,7.719,0,0,1,4.25,1.3l.42-.9a8.284,8.284,0,0,0-4.67-1.4c-3.82,0-5.5,1.93-5.5,4.12,0,5.72,9.68,2.93,9.68,7.58,0,1.68-1.37,3.03-4.47,3.03A7.35,7.35,0,0,1,1.64-2.84l-.51.85A7.96,7.96,0,0,0,6.78.11Z" transform="translate(109.934)" fill="#fff"/><path transform="translate(123.772)" fill="#fff"/><path d="M22.33-15.51,17.57-1.53,12.74-15.51H11.65L6.8-1.55,2.08-15.51H.89L6.16,0h1.2l4.83-13.91L16.99,0h1.2l5.25-15.51Z" transform="translate(129.866)" fill="#fff"/><path d="M9.28.11a7.764,7.764,0,0,0,8.07-7.86,7.772,7.772,0,0,0-8.07-7.87A7.763,7.763,0,0,0,1.22-7.75,7.761,7.761,0,0,0,9.28.11Zm0-1.04A6.7,6.7,0,0,1,2.35-7.75a6.7,6.7,0,0,1,6.93-6.83A6.7,6.7,0,0,1,16.2-7.75,6.7,6.7,0,0,1,9.28-.93Z" transform="translate(154.462)" fill="#fff"/><path d="M14.76,0,10.88-5.43a4.752,4.752,0,0,0,3.63-4.85c0-3.28-2.35-5.23-6.25-5.23H2.7V0H3.83V-5.07H8.26a12.043,12.043,0,0,0,1.51-.11L13.47,0ZM3.83-6.07v-8.42H8.26c3.33,0,5.1,1.53,5.1,4.21,0,2.66-1.77,4.21-5.1,4.21Z" transform="translate(173.338)" fill="#fff"/><path d="M13.98,0h1.37L8.06-8.46l6.83-7.05H13.52L3.83-5.54v-9.97H2.7V0H3.83V-4.08L7.31-7.64Z" transform="translate(189.618)" fill="#fff"/><path d="M6.78.11c3.83,0,5.58-1.9,5.58-4.1,0-5.63-9.68-2.88-9.68-7.53,0-1.71,1.35-3.1,4.37-3.1a7.719,7.719,0,0,1,4.25,1.3l.42-.9a8.284,8.284,0,0,0-4.67-1.4c-3.82,0-5.5,1.93-5.5,4.12,0,5.72,9.68,2.93,9.68,7.58,0,1.68-1.37,3.03-4.47,3.03A7.35,7.35,0,0,1,1.64-2.84l-.51.85A7.96,7.96,0,0,0,6.78.11Z" transform="translate(205.524)" fill="#fff"/></g><g transform="translate(258 32.5)"><path d="M10-.5v1H-10v-1Z" fill="#ff38a3"/></g><g transform="translate(258 36.5)"><path d="M10-.5v1H-10v-1Z" fill="#ff38a3"/></g></g><g transform="translate(304 214)" clip-path="url(#c)"><g transform="translate(101 15)"><path d="M10.12-11.28,5.56-1.06,1-11.28H.1L5.12,0h.83l5.02-11.28Z" fill="#fff"/><path d="M10.39,0h.89L6.09-11.28H5.27L.08,0H.97L2.4-3.17H8.94ZM2.72-3.87l2.95-6.51L8.64-3.87Z" transform="translate(10.992)" fill="#fff"/><path d="M10.33-11.28v9.8l-7.67-9.8H1.97V0h.82V-9.8L10.47,0h.68V-11.28Z" transform="translate(22.352)" fill="#fff"/><path d="M4.12,0h.83V-10.54H9.01v-.74H.06v.74H4.12Z" transform="translate(35.376)" fill="#fff"/><path d="M10.39,0h.89L6.09-11.28H5.27L.08,0H.97L2.4-3.17H8.94ZM2.72-3.87l2.95-6.51L8.64-3.87Z" transform="translate(44.544)" fill="#fff"/><path d="M10.33-11.28v9.8l-7.67-9.8H1.97V0h.82V-9.8L10.47,0h.68V-11.28Z" transform="translate(55.904)" fill="#fff"/><path fill="#fff"/><path d="M10.02-1.71A4.933,4.933,0,0,1,6.82-.68,4.915,4.915,0,0,1,1.71-5.64,4.9,4.9,0,0,1,6.82-10.6a4.75,4.75,0,0,1,3.52,1.33l.52-.54A5.519,5.519,0,0,0,6.8-11.36,5.643,5.643,0,0,0,.89-5.64,5.638,5.638,0,0,0,6.78.08a5.782,5.782,0,0,0,4.03-1.45V-5.59h-.79Z" transform="translate(0 17)" fill="#fff"/><path d="M10.39,0h.89L6.09-11.28H5.27L.08,0H.97L2.4-3.17H8.94ZM2.72-3.87l2.95-6.51L8.64-3.87Z" transform="translate(12.368 17)" fill="#fff"/><path d="M13.44,0l-.02-11.28h-.67L7.7-2.56,2.66-11.28H1.97V0h.8V-9.62L7.49-1.5H7.9l4.72-8.15L12.63,0Z" transform="translate(23.728 17)" fill="#fff"/><path d="M2.79-.74V-5.37H8.8v-.72H2.79v-4.45H9.51v-.74H1.97V0H9.75V-.74Z" transform="translate(39.024 17)" fill="#fff"/><path transform="translate(49.728 17)" fill="#fff"/><path d="M10.39,0h.89L6.09-11.28H5.27L.08,0H.97L2.4-3.17H8.94ZM2.72-3.87l2.95-6.51L8.64-3.87Z" transform="translate(53.84 17)" fill="#fff"/><path d="M6.74.08A5.394,5.394,0,0,0,10.75-1.5l-.52-.53A4.717,4.717,0,0,1,6.77-.68,4.89,4.89,0,0,1,1.71-5.64,4.89,4.89,0,0,1,6.77-10.6a4.7,4.7,0,0,1,3.46,1.33l.52-.53a5.418,5.418,0,0,0-4.01-1.56A5.627,5.627,0,0,0,.89-5.64,5.627,5.627,0,0,0,6.74.08Z" transform="translate(65.2 17)" fill="#fff"/><path d="M10.39,0h.89L6.09-11.28H5.27L.08,0H.97L2.4-3.17H8.94ZM2.72-3.87l2.95-6.51L8.64-3.87Z" transform="translate(76.416 17)" fill="#fff"/><path d="M1.97,0H6.43c3.58,0,5.99-2.35,5.99-5.64s-2.41-5.64-5.99-5.64H1.97Zm.82-.74v-9.8H6.36c3.2,0,5.24,2.03,5.24,4.9S9.56-.74,6.36-.74Z" transform="translate(87.776 17)" fill="#fff"/><path d="M2.79-.74V-5.37H8.8v-.72H2.79v-4.45H9.51v-.74H1.97V0H9.75V-.74Z" transform="translate(100.992 17)" fill="#fff"/><path d="M13.44,0l-.02-11.28h-.67L7.7-2.56,2.66-11.28H1.97V0h.8V-9.62L7.49-1.5H7.9l4.72-8.15L12.63,0Z" transform="translate(111.696 17)" fill="#fff"/><path d="M9.99-11.28H9.14L5.06-4.64.98-11.28H.08l4.54,7.4V0h.83V-3.88Z" transform="translate(126.992 17)" fill="#fff"/></g><g transform="translate(-0.001 2)"><path d="M76.6,8.191l-8.359,21.27H60.453L72.912.453h7.783L92.857,29.461H84.788ZM51.932,14.646H58.47V26.191a19.326,19.326,0,0,1-5.69,2.752A21.418,21.418,0,0,1,46.389,30a16.03,16.03,0,0,1-7.924-1.97,14.536,14.536,0,0,1-5.568-5.4,14.855,14.855,0,0,1-2.027-7.7A14.337,14.337,0,0,1,32.959,7.3a14.666,14.666,0,0,1,5.752-5.358A17.154,17.154,0,0,1,46.882,0a18.72,18.72,0,0,1,6.455,1.182A16.8,16.8,0,0,1,58.8,4.343L54.5,9.639a12.1,12.1,0,0,0-3.621-2.358,10.3,10.3,0,0,0-4.04-.869,7.963,7.963,0,0,0-4.179,1.117,8.052,8.052,0,0,0-2.938,3.062,8.826,8.826,0,0,0-1.076,4.345,9.019,9.019,0,0,0,1.076,4.407A7.909,7.909,0,0,0,42.7,22.426a8.18,8.18,0,0,0,4.221,1.117,11.451,11.451,0,0,0,5.007-1.407ZM0,.453H8.152l7.241,20.98L22.676.453H30.46L19.118,29.461H11.255Z" fill="#fff"/></g><g transform="translate(177 10.5)"><path d="M5-.5v1H-5v-1Z" fill="#ff38a3"/></g><g transform="translate(177 7.5)"><path d="M5-.5v1H-5v-1Z" fill="#ff38a3"/></g></g></g></svg>