<svg xmlns="http://www.w3.org/2000/svg" xmlns:xlink="http://www.w3.org/1999/xlink" width="1100" height="600" viewBox="0 0 1100 600"><defs><clipPath id="a"><rect width="1100" height="600"/></clipPath><clipPath id="b"><path d="M0,0H269V37H0Z"/></clipPath><clipPath id="c"><path d="M0,0H238V35H0Z"/></clipPath></defs><g clip-path="url(#a)"><path d="M40.84-56.42h8.77v3.78H40.84Zm19.59,3.78v-3.78h8.29v3.78Zm7.22,29.02v3.94H60.27v-3.94ZM41.98-30.18v-3.93h7.79v3.93Zm18.29-3.93h7.38v3.93H60.27ZM41.98-23.62h7.79v3.94H41.98ZM15.99-28.7H18.7V-7.87c-.5.16-1.86.6-4.1,1.31Q15.995-14.345,15.99-28.7Zm5.66-8.77v-3.94l5.49,1.89Q29.27-46.585,31-55.27v7.46h4.1v2.87H49.61v3.53H32.39v29.03H49.61v3.77H31.32l-.08-4.26c-.44.21-1.11.52-2.01.9s-1.57.65-2.01.82V-28.7h3.61v-8.77ZM6.72-39.36l5.91-1.97v3.86H2.79v8.77H7.46Q7.385-15.5,6.07-9.31A25.608,25.608,0,0,1,1.39,1.23L8.61,8.2q4.35-5.655,5.9-14.68l1.15,8.69A107.15,107.15,0,0,0,29.93-3.36V-.25H49.61V8.04H60.43V-.25H79.38V-8.61H60.43v-3.77H77.24V-41.41H60.43v-3.53H74.46v-2.87h4.1V-64.94H31v2.46l-6.07-1.23a144.752,144.752,0,0,1-3.28,17.38V-66.67H12.63v20.59Q10.9-55.6,9.02-63.14L1.8-60.84Q4.425-51,6.72-39.36Z" transform="translate(262 331)" fill="#fff"/><path d="M30.59-39.61h24.6v9.84q0,4.845-.21,7.92a26.271,26.271,0,0,1-.98,5.7,15.371,15.371,0,0,1-1.77,4.1,10.486,10.486,0,0,1-3.19,2.87,23.582,23.582,0,0,1-4.6,2.25c-1.58.58-3.77,1.24-6.56,2.01l3.45,9.27Q55.835.66,60.72-6.15T65.6-29.77v-9.84H77.65v-9.34H65.6V-64.21H55.19v15.26H30.59ZM12.3-63.47A133.91,133.91,0,0,0,8.2-29.52,133.91,133.91,0,0,0,12.3,4.43L23.04,3.2a128.942,128.942,0,0,1-3.93-32.72,128.942,128.942,0,0,1,3.93-32.72Z" transform="translate(344 331)" fill="#fff"/><path d="M54.61-64.62c1.48,2.74,2.65,4.95,3.53,6.65H7.13v10.41H57.65Q56.09-27.64,45.63-18.04T13.37-6.31L15.33,3.85q27.39-2.535,40.55-16.6T69.37-54.69q-3.525-7.38-7.05-13.78ZM74.78-69.7l-7.87,3.94q1.965,3.6,6.4,12.13l7.87-3.77Q78.555-62.815,74.78-69.7Z" transform="translate(426 331)" fill="#fff"/><path d="M8.2-29.77H60.84A24.645,24.645,0,0,1,48.01-12.38Q37.645-6.725,19.68-5.74L21.32,4.1Q47.48,2.705,60.15-7.71T72.82-37.72v-1.89H8.2ZM67.81-51.09v-9.84H14.19v9.84Z" transform="translate(508 331)" fill="#fff"/><path d="M9.27-26.24H19.93V-44.28H61.75v5.74q0,15.33-9.27,23.25T23.45-6.31l1.48,9.84Q48.63,2.3,60.68-8.4T72.73-38.54V-53.87H45.92v-12.3H35.01v12.3H9.27Z" transform="translate(590 331)" fill="#fff"/><path d="M68.31-47.81V-58.47H13.69v10.66ZM74.05-.57V-11.23H7.95V-.57Z" transform="translate(672 331)" fill="#fff"/><path d="M74.87-24.03V-35.01H7.13v10.98Z" transform="translate(754 331)" fill="#fff"/><g transform="translate(561.918 349)" opacity="0.998" clip-path="url(#b)"><g transform="translate(0 22)"><path d="M5.13-2.79l.33-.33C6.5-4.18,7.28-4.99,7.81-5.54s1.02-1.13,1.47-1.7a10.336,10.336,0,0,0,1.39-2.09,4.3,4.3,0,0,0,.46-1.89,4.005,4.005,0,0,0-.63-2.2,4.341,4.341,0,0,0-1.78-1.57,5.916,5.916,0,0,0-2.71-.59,6.513,6.513,0,0,0-2.55.49,4.3,4.3,0,0,0-1.81,1.4,3.815,3.815,0,0,0-.75,2.1v1.03a.273.273,0,0,0,.08.19.249.249,0,0,0,.19.07H3.76a.249.249,0,0,0,.19-.07.273.273,0,0,0,.08-.19v-.55a1.671,1.671,0,0,1,.55-1.31,2.036,2.036,0,0,1,1.43-.49,2.07,2.07,0,0,1,1.43.49,1.649,1.649,0,0,1,.55,1.27q0,1.065-2.01,3.3c-.42.44-.84.9-1.25,1.38-.19.21-.66.72-1.41,1.55s-1.48,1.6-2.2,2.3a.445.445,0,0,0-.13.33V-.26a.25.25,0,0,0,.08.18A.25.25,0,0,0,1.25,0h9.9a.256.256,0,0,0,.19-.08.25.25,0,0,0,.08-.18V-2.4a.25.25,0,0,0-.08-.18.224.224,0,0,0-.19-.08H5.19a.105.105,0,0,1-.09-.05C5.09-2.74,5.1-2.76,5.13-2.79Z" fill="#ff38a3"/><path d="M6.25.24a5.354,5.354,0,0,0,3.84-1.35A4.873,4.873,0,0,0,11.51-4.8v-5.8a4.766,4.766,0,0,0-1.42-3.63,5.354,5.354,0,0,0-3.84-1.35,5.3,5.3,0,0,0-3.83,1.35A4.76,4.76,0,0,0,1.01-10.6v5.8A4.867,4.867,0,0,0,2.42-1.11,5.3,5.3,0,0,0,6.25.24Zm0-2.66a2.056,2.056,0,0,1-1.55-.6,2.256,2.256,0,0,1-.59-1.62v-6.05a2.224,2.224,0,0,1,.59-1.62,2.056,2.056,0,0,1,1.55-.6,2.087,2.087,0,0,1,1.57.6,2.218,2.218,0,0,1,.58,1.62v6.05a2.25,2.25,0,0,1-.58,1.62A2.087,2.087,0,0,1,6.25-2.42Z" transform="translate(12.76)" fill="#ff38a3"/><path d="M5.13-2.79l.33-.33C6.5-4.18,7.28-4.99,7.81-5.54s1.02-1.13,1.47-1.7a10.336,10.336,0,0,0,1.39-2.09,4.3,4.3,0,0,0,.46-1.89,4.005,4.005,0,0,0-.63-2.2,4.341,4.341,0,0,0-1.78-1.57,5.916,5.916,0,0,0-2.71-.59,6.513,6.513,0,0,0-2.55.49,4.3,4.3,0,0,0-1.81,1.4,3.815,3.815,0,0,0-.75,2.1v1.03a.273.273,0,0,0,.08.19.249.249,0,0,0,.19.07H3.76a.249.249,0,0,0,.19-.07.273.273,0,0,0,.08-.19v-.55a1.671,1.671,0,0,1,.55-1.31,2.036,2.036,0,0,1,1.43-.49,2.07,2.07,0,0,1,1.43.49,1.649,1.649,0,0,1,.55,1.27q0,1.065-2.01,3.3c-.42.44-.84.9-1.25,1.38-.19.21-.66.72-1.41,1.55s-1.48,1.6-2.2,2.3a.445.445,0,0,0-.13.33V-.26a.25.25,0,0,0,.08.18A.25.25,0,0,0,1.25,0h9.9a.256.256,0,0,0,.19-.08.25.25,0,0,0,.08-.18V-2.4a.25.25,0,0,0-.08-.18.224.224,0,0,0-.19-.08H5.19a.105.105,0,0,1-.09-.05C5.09-2.74,5.1-2.76,5.13-2.79Z" transform="translate(25.74)" fill="#ff38a3"/><path d="M3.3-15.33.99-14.26a.326.326,0,0,0-.2.31l.07,1.89c0,.17.06.25.2.25l.08-.03,2.18-.59a.08.08,0,0,1,.09.02.122.122,0,0,1,.04.09V-.26a.25.25,0,0,0,.08.18A.256.256,0,0,0,3.72,0H6.29a.256.256,0,0,0,.19-.08.25.25,0,0,0,.08-.18V-15.14a.25.25,0,0,0-.08-.18.256.256,0,0,0-.19-.08H3.63A.579.579,0,0,0,3.3-15.33Z" transform="translate(38.5)" fill="#ff38a3"/></g><g transform="translate(46.596 22)"><path fill="#fff"/></g><g transform="translate(51.436 22)"><path d="M6.78.11c3.83,0,5.58-1.9,5.58-4.1,0-5.63-9.68-2.88-9.68-7.53,0-1.71,1.35-3.1,4.37-3.1a7.719,7.719,0,0,1,4.25,1.3l.42-.9a8.284,8.284,0,0,0-4.67-1.4c-3.82,0-5.5,1.93-5.5,4.12,0,5.72,9.68,2.93,9.68,7.58,0,1.68-1.37,3.03-4.47,3.03A7.35,7.35,0,0,1,1.64-2.84l-.51.85A7.96,7.96,0,0,0,6.78.11Z" fill="#fff"/><path d="M5.67,0H6.8V-14.49h5.59v-1.02H.09v1.02H5.67Z" transform="translate(13.838)" fill="#fff"/><path d="M8.77.11C12.63.11,15-2.15,15-6.58v-8.93H13.87v8.89c0,3.87-1.84,5.69-5.07,5.69S3.7-2.75,3.7-6.62v-8.89H2.57v8.93C2.57-2.15,4.92.11,8.77.11Z" transform="translate(26.884)" fill="#fff"/><path d="M2.7,0H8.84c4.92,0,8.24-3.23,8.24-7.75s-3.32-7.76-8.24-7.76H2.7ZM3.83-1.02V-14.49H8.75c4.39,0,7.2,2.79,7.2,6.74s-2.81,6.73-7.2,6.73Z" transform="translate(44.77)" fill="#fff"/><path d="M3.83-1.02V-7.38H12.1v-.99H3.83v-6.12h9.24v-1.02H2.7V0H13.4V-1.02Z" transform="translate(63.382)" fill="#fff"/><path d="M14.2-15.51V-2.04L3.66-15.51H2.7V0H3.83V-13.47L14.4,0h.93V-15.51Z" transform="translate(78.54)" fill="#fff"/><path d="M5.67,0H6.8V-14.49h5.59v-1.02H.09v1.02H5.67Z" transform="translate(96.888)" fill="#fff"/><path d="M6.78.11c3.83,0,5.58-1.9,5.58-4.1,0-5.63-9.68-2.88-9.68-7.53,0-1.71,1.35-3.1,4.37-3.1a7.719,7.719,0,0,1,4.25,1.3l.42-.9a8.284,8.284,0,0,0-4.67-1.4c-3.82,0-5.5,1.93-5.5,4.12,0,5.72,9.68,2.93,9.68,7.58,0,1.68-1.37,3.03-4.47,3.03A7.35,7.35,0,0,1,1.64-2.84l-.51.85A7.96,7.96,0,0,0,6.78.11Z" transform="translate(109.934)" fill="#fff"/><path transform="translate(123.772)" fill="#fff"/><path d="M22.33-15.51,17.57-1.53,12.74-15.51H11.65L6.8-1.55,2.08-15.51H.89L6.16,0h1.2l4.83-13.91L16.99,0h1.2l5.25-15.51Z" transform="translate(129.866)" fill="#fff"/><path d="M9.28.11a7.764,7.764,0,0,0,8.07-7.86,7.772,7.772,0,0,0-8.07-7.87A7.763,7.763,0,0,0,1.22-7.75,7.761,7.761,0,0,0,9.28.11Zm0-1.04A6.7,6.7,0,0,1,2.35-7.75a6.7,6.7,0,0,1,6.93-6.83A6.7,6.7,0,0,1,16.2-7.75,6.7,6.7,0,0,1,9.28-.93Z" transform="translate(154.462)" fill="#fff"/><path d="M14.76,0,10.88-5.43a4.752,4.752,0,0,0,3.63-4.85c0-3.28-2.35-5.23-6.25-5.23H2.7V0H3.83V-5.07H8.26a12.043,12.043,0,0,0,1.51-.11L13.47,0ZM3.83-6.07v-8.42H8.26c3.33,0,5.1,1.53,5.1,4.21,0,2.66-1.77,4.21-5.1,4.21Z" transform="translate(173.338)" fill="#fff"/><path d="M13.98,0h1.37L8.06-8.46l6.83-7.05H13.52L3.83-5.54v-9.97H2.7V0H3.83V-4.08L7.31-7.64Z" transform="translate(189.618)" fill="#fff"/><path d="M6.78.11c3.83,0,5.58-1.9,5.58-4.1,0-5.63-9.68-2.88-9.68-7.53,0-1.71,1.35-3.1,4.37-3.1a7.719,7.719,0,0,1,4.25,1.3l.42-.9a8.284,8.284,0,0,0-4.67-1.4c-3.82,0-5.5,1.93-5.5,4.12,0,5.72,9.68,2.93,9.68,7.58,0,1.68-1.37,3.03-4.47,3.03A7.35,7.35,0,0,1,1.64-2.84l-.51.85A7.96,7.96,0,0,0,6.78.11Z" transform="translate(205.524)" fill="#fff"/></g><g transform="translate(258 32.5)"><path d="M10-.5v1H-10v-1Z" fill="#ff38a3"/></g><g transform="translate(258 36.5)"><path d="M10-.5v1H-10v-1Z" fill="#ff38a3"/></g></g><g transform="translate(261.082 214)" opacity="0.998" clip-path="url(#c)"><g transform="translate(101 15)"><path d="M10.12-11.28,5.56-1.06,1-11.28H.1L5.12,0h.83l5.02-11.28Z" fill="#fff"/><path d="M10.39,0h.89L6.09-11.28H5.27L.08,0H.97L2.4-3.17H8.94ZM2.72-3.87l2.95-6.51L8.64-3.87Z" transform="translate(10.992)" fill="#fff"/><path d="M10.33-11.28v9.8l-7.67-9.8H1.97V0h.82V-9.8L10.47,0h.68V-11.28Z" transform="translate(22.352)" fill="#fff"/><path d="M4.12,0h.83V-10.54H9.01v-.74H.06v.74H4.12Z" transform="translate(35.376)" fill="#fff"/><path d="M10.39,0h.89L6.09-11.28H5.27L.08,0H.97L2.4-3.17H8.94ZM2.72-3.87l2.95-6.51L8.64-3.87Z" transform="translate(44.544)" fill="#fff"/><path d="M10.33-11.28v9.8l-7.67-9.8H1.97V0h.82V-9.8L10.47,0h.68V-11.28Z" transform="translate(55.904)" fill="#fff"/><path fill="#fff"/><path d="M10.02-1.71A4.933,4.933,0,0,1,6.82-.68,4.915,4.915,0,0,1,1.71-5.64,4.9,4.9,0,0,1,6.82-10.6a4.75,4.75,0,0,1,3.52,1.33l.52-.54A5.519,5.519,0,0,0,6.8-11.36,5.643,5.643,0,0,0,.89-5.64,5.638,5.638,0,0,0,6.78.08a5.782,5.782,0,0,0,4.03-1.45V-5.59h-.79Z" transform="translate(0 17)" fill="#fff"/><path d="M10.39,0h.89L6.09-11.28H5.27L.08,0H.97L2.4-3.17H8.94ZM2.72-3.87l2.95-6.51L8.64-3.87Z" transform="translate(12.368 17)" fill="#fff"/><path d="M13.44,0l-.02-11.28h-.67L7.7-2.56,2.66-11.28H1.97V0h.8V-9.62L7.49-1.5H7.9l4.72-8.15L12.63,0Z" transform="translate(23.728 17)" fill="#fff"/><path d="M2.79-.74V-5.37H8.8v-.72H2.79v-4.45H9.51v-.74H1.97V0H9.75V-.74Z" transform="translate(39.024 17)" fill="#fff"/><path transform="translate(49.728 17)" fill="#fff"/><path d="M10.39,0h.89L6.09-11.28H5.27L.08,0H.97L2.4-3.17H8.94ZM2.72-3.87l2.95-6.51L8.64-3.87Z" transform="translate(53.84 17)" fill="#fff"/><path d="M6.74.08A5.394,5.394,0,0,0,10.75-1.5l-.52-.53A4.717,4.717,0,0,1,6.77-.68,4.89,4.89,0,0,1,1.71-5.64,4.89,4.89,0,0,1,6.77-10.6a4.7,4.7,0,0,1,3.46,1.33l.52-.53a5.418,5.418,0,0,0-4.01-1.56A5.627,5.627,0,0,0,.89-5.64,5.627,5.627,0,0,0,6.74.08Z" transform="translate(65.2 17)" fill="#fff"/><path d="M10.39,0h.89L6.09-11.28H5.27L.08,0H.97L2.4-3.17H8.94ZM2.72-3.87l2.95-6.51L8.64-3.87Z" transform="translate(76.416 17)" fill="#fff"/><path d="M1.97,0H6.43c3.58,0,5.99-2.35,5.99-5.64s-2.41-5.64-5.99-5.64H1.97Zm.82-.74v-9.8H6.36c3.2,0,5.24,2.03,5.24,4.9S9.56-.74,6.36-.74Z" transform="translate(87.776 17)" fill="#fff"/><path d="M2.79-.74V-5.37H8.8v-.72H2.79v-4.45H9.51v-.74H1.97V0H9.75V-.74Z" transform="translate(100.992 17)" fill="#fff"/><path d="M13.44,0l-.02-11.28h-.67L7.7-2.56,2.66-11.28H1.97V0h.8V-9.62L7.49-1.5H7.9l4.72-8.15L12.63,0Z" transform="translate(111.696 17)" fill="#fff"/><path d="M9.99-11.28H9.14L5.06-4.64.98-11.28H.08l4.54,7.4V0h.83V-3.88Z" transform="translate(126.992 17)" fill="#fff"/></g><g transform="translate(-0.001 2)"><path d="M76.6,8.191l-8.359,21.27H60.453L72.912.453h7.783L92.857,29.461H84.788ZM51.932,14.646H58.47V26.191a19.326,19.326,0,0,1-5.69,2.752A21.418,21.418,0,0,1,46.389,30a16.03,16.03,0,0,1-7.924-1.97,14.536,14.536,0,0,1-5.568-5.4,14.855,14.855,0,0,1-2.027-7.7A14.337,14.337,0,0,1,32.959,7.3a14.666,14.666,0,0,1,5.752-5.358A17.154,17.154,0,0,1,46.882,0a18.72,18.72,0,0,1,6.455,1.182A16.8,16.8,0,0,1,58.8,4.343L54.5,9.639a12.1,12.1,0,0,0-3.621-2.358,10.3,10.3,0,0,0-4.04-.869,7.963,7.963,0,0,0-4.179,1.117,8.052,8.052,0,0,0-2.938,3.062,8.826,8.826,0,0,0-1.076,4.345,9.019,9.019,0,0,0,1.076,4.407A7.909,7.909,0,0,0,42.7,22.426a8.18,8.18,0,0,0,4.221,1.117,11.451,11.451,0,0,0,5.007-1.407ZM0,.453H8.152l7.241,20.98L22.676.453H30.46L19.118,29.461H11.255Z" fill="#fff"/></g><g transform="translate(177 10.5)"><path d="M5-.5v1H-5v-1Z" fill="#ff38a3"/></g><g transform="translate(177 7.5)"><path d="M5-.5v1H-5v-1Z" fill="#ff38a3"/></g></g></g></svg>