<svg xmlns="http://www.w3.org/2000/svg" xmlns:xlink="http://www.w3.org/1999/xlink" width="1100" height="600" viewBox="0 0 1100 600"><defs><clipPath id="a"><rect width="1100" height="600"/></clipPath></defs><g clip-path="url(#a)"><path d="M14.186-16.236a77.269,77.269,0,0,0,13.53-7.544H14.186ZM38.54-21.32H67.814v-2.46H41.164Q40.344-22.96,38.54-21.32ZM32.718-3.936Q28.372-6.478,23.37-9.02l7.216-4.674h-2.46a87.165,87.165,0,0,1-17.63,8.2l-6.068-6.97q3.69-1.23,8.528-3.28H3.69V-31.816H78.31v16.482H68.06v1.64Q61.336-4.592,47.642.82T11.152,8.036L8.446-.492A164.577,164.577,0,0,0,32.718-3.936ZM43.952-7.462a41.505,41.505,0,0,0,10.66-6.232H32.472Q38.458-10.66,43.952-7.462ZM31.816-51.824H50.184V-54.94H31.816Zm13.612,11.4V-45.51H36.572v5.084Zm9.02,0h8.528V-45.51H54.448Zm6.4-22.878h17.63v8.364H60.844v3.116H73.226v17.876H8.774V-51.824H21.156V-54.94H3.526V-63.3h17.63v-4.1h10.66v4.1H50.184v-4.1h10.66ZM27.552-45.51H19.024v5.084h8.528Zm102.254,38.7q8.938-1.148,13.776-6.97T148.42-29.52a20.9,20.9,0,0,0-5.207-14.391,21.388,21.388,0,0,0-13.571-7.011,222.8,222.8,0,0,1-4.633,26.117q-2.665,10.537-5.9,16.031t-6.56,7.667a13.542,13.542,0,0,1-7.585,2.173q-6.642,0-12.218-7.626T87.166-25.174q0-15.908,10.824-25.83t28.29-9.922q14.1,0,23.329,8.856t9.225,22.55q0,14.268-7.257,22.878T132.02,3.034ZM118.818-50.43q-9.922,1.886-15.58,8.61T97.58-25.174a23.445,23.445,0,0,0,2.542,11.07q2.542,4.838,4.838,4.838a3.636,3.636,0,0,0,2.378-1.107,14.739,14.739,0,0,0,2.747-4.059,51.958,51.958,0,0,0,2.993-7.462,112.351,112.351,0,0,0,2.993-11.89Q117.588-41.164,118.818-50.43Zm72.242,16.4q-1.722-6.56-1.886-7.216-3.116,5.084-4.756,7.626ZM165.8,2.214A209.375,209.375,0,0,0,168.51-20.5l7.134.574a182.179,182.179,0,0,1-2.788,23.452Zm23.124-22.55,6.56-.9q.082.738.287,2.173t.287,2.091A64.182,64.182,0,0,0,212.3-25.01q-.082-.164-.9-1.394a99.12,99.12,0,0,1-11.07,5.166l-.738-2.214-5.74,1.23q-.328-1.8-.574-2.706l-5.74.41V7.626H177.2V-23.78l-10.168.738-.328-9.512,7.216-.41q.328-.41.943-1.353a16.117,16.117,0,0,0,.861-1.435q-2.952-4.264-9.512-13.448l4.428-9.84q1.8,2.46,2.706,3.772,2.87-6.15,5.166-12.382L186.96-64.7q-3.444,8.282-8.2,17.384l2.132,3.2q3.854-6.478,8.118-14.76l7.954,3.526q-3.034,5.822-7.134,12.956l6.068-1.558q1.558,5.33,3.69,14.432a57.591,57.591,0,0,0,9.84-4.346H198.686V-41.9h28.208V-45.51H201.146v-7.626h25.748v-3.608h-26.65v-8.2H237.8V-41.9h5.166v8.036H231.978a59.63,59.63,0,0,0,1.394,7.38q1.558-1.476,4.838-5.248L244.2-25.42a66.008,66.008,0,0,1-7.954,7.79,44.823,44.823,0,0,0,8.774,14.1l-5,9.512a54.4,54.4,0,0,1-10.824-16.81,85.39,85.39,0,0,1-6.15-23.042h-1.476q-.574.574-2.05,1.886A47.4,47.4,0,0,1,227.3-5.9q0,7.052-1.8,9.963a6.252,6.252,0,0,1-5.74,2.911q-3.034,0-10.414-.41l-.492-7.954q4.428.41,6.642.41,1.558,0,1.968-.779a10.5,10.5,0,0,0,.41-3.813q0-.574-.041-1.189t-.123-1.353a11.105,11.105,0,0,1-.082-1.148Q210-1.066,196.636,5.166L193.11-2.788q14.842-6.068,22.96-14.186a15.444,15.444,0,0,0-.656-1.64A61.485,61.485,0,0,1,198.6-9.02l-2.214-4.92q.492,4.182.738,8.692l-6.806.574Q189.912-12.054,188.928-20.336ZM282.654-47.56v-9.594h35.26v9.594ZM269.862-62.238a128.718,128.718,0,0,0-3.936,32.718A128.718,128.718,0,0,0,269.862,3.2L259.12,4.428a133.747,133.747,0,0,1-4.1-33.948,133.747,133.747,0,0,1,4.1-33.948Zm48.79,51.332,1.476,9.512a76.048,76.048,0,0,1-19.434,2.46q-11.562,0-18.245-4.469t-6.683-11.931q0-3.608,2.747-8.487a36.2,36.2,0,0,1,7.5-9.143l7.708,6.15a35.223,35.223,0,0,0-5.248,6.273,9.932,9.932,0,0,0-1.886,4.8q0,6.97,14.1,6.97A78.555,78.555,0,0,0,318.652-10.906ZM335.3-58.22q33.128,0,67.4-1.64l.41,9.84q-19.6,1.64-29.6,8.61t-10,16.974q0,8.2,5.576,12.956T383.76-6.724a54.333,54.333,0,0,0,10-.984l1.23,10a64.363,64.363,0,0,1-11.808,1.148q-14.35,0-22.878-7.3T351.78-23.37a24.572,24.572,0,0,1,4.674-14.268,36.912,36.912,0,0,1,13.284-11.316v-.164q-17.958.738-34.44.738Z" transform="translate(345 331)" fill="#fff"/><g transform="translate(-381 -161)"><rect width="20" height="1" transform="translate(1112 542)" fill="#ff38a3"/><rect width="20" height="1" transform="translate(1112 546)" fill="#ff38a3"/><path d="M58.168.11a8.969,8.969,0,0,1-3.223-.583A6.215,6.215,0,0,1,52.558-1.98l.506-.836a5.96,5.96,0,0,0,2.189,1.4,7.856,7.856,0,0,0,2.893.539,5.52,5.52,0,0,0,3.322-.836A2.6,2.6,0,0,0,62.59-3.894,2.277,2.277,0,0,0,62-5.544a3.928,3.928,0,0,0-1.474-.946,20.25,20.25,0,0,0-2.376-.682,23.169,23.169,0,0,1-2.717-.814,4.338,4.338,0,0,1-1.738-1.221,3.259,3.259,0,0,1-.715-2.211,3.759,3.759,0,0,1,.594-2.057,4.033,4.033,0,0,1,1.815-1.485,7.423,7.423,0,0,1,3.047-.55,8.588,8.588,0,0,1,2.508.374,7.377,7.377,0,0,1,2.134,1.012l-.418.9a7.128,7.128,0,0,0-2.035-.968,7.662,7.662,0,0,0-2.189-.33,5.185,5.185,0,0,0-3.234.858,2.691,2.691,0,0,0-1.1,2.222,2.277,2.277,0,0,0,.594,1.65,3.928,3.928,0,0,0,1.474.946,22.376,22.376,0,0,0,2.4.7,22.476,22.476,0,0,1,2.706.814A4.451,4.451,0,0,1,63-6.127a3.14,3.14,0,0,1,.715,2.167,3.656,3.656,0,0,1-.6,2.046A4.116,4.116,0,0,1,61.248-.44,7.663,7.663,0,0,1,58.168.11Zm12.518-14.5H65.142V-15.4h12.21v1.012H71.808V0H70.686ZM86.284.11a5.982,5.982,0,0,1-4.543-1.694,6.9,6.9,0,0,1-1.617-4.95V-15.4h1.122v8.822a6.079,6.079,0,0,0,1.3,4.246A4.863,4.863,0,0,0,86.306-.924a4.834,4.834,0,0,0,3.74-1.408,6.079,6.079,0,0,0,1.3-4.246V-15.4h1.122v8.866a6.873,6.873,0,0,1-1.628,4.95A6.019,6.019,0,0,1,86.284.11ZM98.142-15.4h6.094a8.917,8.917,0,0,1,4.257.99,7.235,7.235,0,0,1,2.893,2.739A7.654,7.654,0,0,1,112.42-7.7a7.654,7.654,0,0,1-1.034,3.971A7.235,7.235,0,0,1,108.493-.99a8.917,8.917,0,0,1-4.257.99H98.142Zm6.006,14.388a8.036,8.036,0,0,0,3.762-.847,6.058,6.058,0,0,0,2.508-2.365A6.8,6.8,0,0,0,111.3-7.7a6.8,6.8,0,0,0-.88-3.476,6.058,6.058,0,0,0-2.508-2.365,8.036,8.036,0,0,0-3.762-.847H99.264V-1.012Zm23.232,0V0H116.754V-15.4h10.3v1.012h-9.174v6.072h8.206v.99h-8.206v6.314ZM144.452-15.4V0h-.924L133.034-13.376V0h-1.122V-15.4h.946L143.33-2.024V-15.4Zm8.756,1.012h-5.544V-15.4h12.21v1.012H154.33V0h-1.122ZM166.848.11a8.969,8.969,0,0,1-3.223-.583,6.215,6.215,0,0,1-2.387-1.507l.506-.836a5.96,5.96,0,0,0,2.189,1.4,7.856,7.856,0,0,0,2.893.539,5.52,5.52,0,0,0,3.322-.836,2.6,2.6,0,0,0,1.122-2.178,2.277,2.277,0,0,0-.594-1.65A3.928,3.928,0,0,0,169.2-6.49a20.25,20.25,0,0,0-2.376-.682,23.17,23.17,0,0,1-2.717-.814,4.338,4.338,0,0,1-1.738-1.221,3.259,3.259,0,0,1-.715-2.211,3.759,3.759,0,0,1,.594-2.057,4.033,4.033,0,0,1,1.815-1.485,7.423,7.423,0,0,1,3.047-.55,8.588,8.588,0,0,1,2.508.374,7.377,7.377,0,0,1,2.134,1.012l-.418.9a7.128,7.128,0,0,0-2.035-.968,7.662,7.662,0,0,0-2.189-.33,5.185,5.185,0,0,0-3.234.858,2.691,2.691,0,0,0-1.1,2.222,2.277,2.277,0,0,0,.594,1.65,3.929,3.929,0,0,0,1.474.946,22.376,22.376,0,0,0,2.4.7,22.476,22.476,0,0,1,2.706.814,4.451,4.451,0,0,1,1.727,1.2,3.14,3.14,0,0,1,.715,2.167,3.656,3.656,0,0,1-.6,2.046A4.116,4.116,0,0,1,169.928-.44,7.663,7.663,0,0,1,166.848.11ZM203.324-15.4,198.11,0h-1.188l-4.774-13.816L187.352,0h-1.188l-5.236-15.4h1.188L186.8-1.54,191.62-15.4H192.7l4.8,13.882,4.73-13.882ZM213.4.11a8.227,8.227,0,0,1-4.092-1.023,7.535,7.535,0,0,1-2.871-2.8A7.725,7.725,0,0,1,205.392-7.7a7.725,7.725,0,0,1,1.045-3.982,7.535,7.535,0,0,1,2.871-2.805A8.227,8.227,0,0,1,213.4-15.51a8.3,8.3,0,0,1,4.092,1.012,7.455,7.455,0,0,1,2.871,2.794,7.767,7.767,0,0,1,1.045,4,7.767,7.767,0,0,1-1.045,4A7.455,7.455,0,0,1,217.492-.9,8.3,8.3,0,0,1,213.4.11Zm0-1.034a7,7,0,0,0,3.5-.88,6.482,6.482,0,0,0,2.464-2.431,6.765,6.765,0,0,0,.9-3.465,6.765,6.765,0,0,0-.9-3.465A6.482,6.482,0,0,0,216.9-13.6a7,7,0,0,0-3.5-.88,7.063,7.063,0,0,0-3.509.88,6.46,6.46,0,0,0-2.475,2.431,6.765,6.765,0,0,0-.9,3.465,6.765,6.765,0,0,0,.9,3.465A6.46,6.46,0,0,0,209.891-1.8,7.063,7.063,0,0,0,213.4-.924ZM236.434,0,232.76-5.148a11.236,11.236,0,0,1-1.5.11h-4.4V0h-1.122V-15.4h5.522a6.9,6.9,0,0,1,4.554,1.375,4.7,4.7,0,0,1,1.65,3.817,4.959,4.959,0,0,1-.935,3.069A4.954,4.954,0,0,1,233.86-5.39L237.71,0Zm-5.17-6.028a5.711,5.711,0,0,0,3.762-1.089,3.81,3.81,0,0,0,1.3-3.091,3.81,3.81,0,0,0-1.3-3.091,5.711,5.711,0,0,0-3.762-1.089h-4.4v8.36ZM246.6-7.59l-3.454,3.542V0h-1.122V-15.4h1.122v9.9l9.614-9.9h1.364l-6.776,7L254.584,0H253.22ZM261.646.11a8.969,8.969,0,0,1-3.223-.583,6.215,6.215,0,0,1-2.387-1.507l.506-.836a5.96,5.96,0,0,0,2.189,1.4,7.856,7.856,0,0,0,2.893.539,5.52,5.52,0,0,0,3.322-.836,2.6,2.6,0,0,0,1.122-2.178,2.277,2.277,0,0,0-.594-1.65A3.928,3.928,0,0,0,264-6.49a20.25,20.25,0,0,0-2.376-.682,23.167,23.167,0,0,1-2.717-.814,4.337,4.337,0,0,1-1.738-1.221,3.259,3.259,0,0,1-.715-2.211,3.759,3.759,0,0,1,.594-2.057,4.033,4.033,0,0,1,1.815-1.485,7.423,7.423,0,0,1,3.047-.55,8.588,8.588,0,0,1,2.508.374,7.378,7.378,0,0,1,2.134,1.012l-.418.9a7.128,7.128,0,0,0-2.035-.968,7.662,7.662,0,0,0-2.189-.33,5.185,5.185,0,0,0-3.234.858,2.691,2.691,0,0,0-1.1,2.222,2.277,2.277,0,0,0,.594,1.65,3.928,3.928,0,0,0,1.474.946,22.374,22.374,0,0,0,2.4.7,22.475,22.475,0,0,1,2.706.814,4.45,4.45,0,0,1,1.727,1.2,3.14,3.14,0,0,1,.715,2.167,3.656,3.656,0,0,1-.605,2.046A4.116,4.116,0,0,1,264.726-.44,7.663,7.663,0,0,1,261.646.11Z" transform="translate(864 532)" fill="#fff"/><path d="M5.126-2.794a.072.072,0,0,0-.022.088.089.089,0,0,0,.088.044h5.962a.255.255,0,0,1,.187.077.255.255,0,0,1,.077.187V-.264a.255.255,0,0,1-.077.187A.255.255,0,0,1,11.154,0h-9.9a.255.255,0,0,1-.187-.077A.255.255,0,0,1,.99-.264V-2.288a.448.448,0,0,1,.132-.33q1.078-1.056,2.2-2.3T4.73-6.468q.616-.726,1.254-1.386,2-2.222,2-3.3a1.626,1.626,0,0,0-.55-1.265,2.056,2.056,0,0,0-1.43-.5,2.056,2.056,0,0,0-1.43.5,1.676,1.676,0,0,0-.55,1.309v.55a.255.255,0,0,1-.077.187.255.255,0,0,1-.187.077h-2.6a.255.255,0,0,1-.187-.077A.255.255,0,0,1,.9-10.56v-1.034a3.781,3.781,0,0,1,.748-2.1,4.34,4.34,0,0,1,1.815-1.4,6.408,6.408,0,0,1,2.541-.484,5.959,5.959,0,0,1,2.717.583,4.395,4.395,0,0,1,1.782,1.573,4.027,4.027,0,0,1,.627,2.2,4.375,4.375,0,0,1-.462,1.892,10.461,10.461,0,0,1-1.386,2.09Q8.6-6.38,7.81-5.544T5.456-3.124ZM19.008.242A5.294,5.294,0,0,1,15.18-1.111,4.87,4.87,0,0,1,13.772-4.8V-10.6a4.778,4.778,0,0,1,1.408-3.63,5.319,5.319,0,0,1,3.828-1.342,5.359,5.359,0,0,1,3.839,1.342,4.758,4.758,0,0,1,1.419,3.63V-4.8a4.85,4.85,0,0,1-1.419,3.685A5.333,5.333,0,0,1,19.008.242Zm0-2.662a2.083,2.083,0,0,0,1.573-.605,2.232,2.232,0,0,0,.583-1.617v-6.05a2.232,2.232,0,0,0-.583-1.617,2.083,2.083,0,0,0-1.573-.605,2.055,2.055,0,0,0-1.551.605,2.232,2.232,0,0,0-.583,1.617v6.05a2.232,2.232,0,0,0,.583,1.617A2.055,2.055,0,0,0,19.008-2.42Zm11.858-.374a.072.072,0,0,0-.022.088.089.089,0,0,0,.088.044h5.962a.255.255,0,0,1,.187.077.255.255,0,0,1,.077.187V-.264a.255.255,0,0,1-.077.187A.255.255,0,0,1,36.894,0h-9.9a.255.255,0,0,1-.187-.077.255.255,0,0,1-.077-.187V-2.288a.448.448,0,0,1,.132-.33q1.078-1.056,2.2-2.3T30.47-6.468q.616-.726,1.254-1.386,2-2.222,2-3.3a1.626,1.626,0,0,0-.55-1.265,2.056,2.056,0,0,0-1.43-.5,2.056,2.056,0,0,0-1.43.5,1.676,1.676,0,0,0-.55,1.309v.55a.255.255,0,0,1-.077.187.255.255,0,0,1-.187.077h-2.6a.255.255,0,0,1-.187-.077.255.255,0,0,1-.077-.187v-1.034a3.781,3.781,0,0,1,.748-2.1,4.34,4.34,0,0,1,1.815-1.4,6.408,6.408,0,0,1,2.541-.484,5.959,5.959,0,0,1,2.717.583,4.395,4.395,0,0,1,1.782,1.573,4.027,4.027,0,0,1,.627,2.2,4.375,4.375,0,0,1-.462,1.892,10.461,10.461,0,0,1-1.386,2.09q-.682.858-1.474,1.694T31.2-3.124Zm10.8-12.54A.654.654,0,0,1,42-15.4H44.66a.255.255,0,0,1,.187.077.255.255,0,0,1,.077.187V-.264a.255.255,0,0,1-.077.187A.255.255,0,0,1,44.66,0H42.086A.255.255,0,0,1,41.9-.077a.255.255,0,0,1-.077-.187V-12.32a.127.127,0,0,0-.044-.088.072.072,0,0,0-.088-.022l-2.178.594-.088.022q-.2,0-.2-.242l-.066-1.892a.311.311,0,0,1,.2-.308Z" transform="translate(864 532)" fill="#ff38a3"/></g><g transform="translate(-18 -161)"><path d="M10.9-11.2,5.9,0H5.088L.1-11.2h.9L5.52-1.056,10.048-11.2Zm8.4,8.048H12.8L11.376,0H10.5l5.152-11.2h.816L21.616,0h-.88Zm-.3-.688L16.048-10.3,13.12-3.84ZM32.768-11.2V0H32.1L24.464-9.728V0h-.816V-11.2h.688l7.616,9.728V-11.2Zm6.048.736H34.784V-11.2h8.88v.736H39.632V0h-.816ZM52.048-3.152h-6.5L44.128,0h-.88L48.4-11.2h.816L54.368,0h-.88Zm-.3-.688L48.8-10.3,45.872-3.84ZM65.52-11.2V0h-.672L57.216-9.728V0H56.4V-11.2h.688L64.7-1.472V-11.2ZM9.952,10.448h.784V14.64a4.881,4.881,0,0,1-1.784,1.072,6.64,6.64,0,0,1-2.216.368,6.113,6.113,0,0,1-3-.736,5.407,5.407,0,0,1-2.1-2.032A5.649,5.649,0,0,1,.88,10.4a5.649,5.649,0,0,1,.76-2.912,5.407,5.407,0,0,1,2.1-2.032A6.145,6.145,0,0,1,6.752,4.72a6.327,6.327,0,0,1,2.264.392,4.846,4.846,0,0,1,1.768,1.144l-.512.544A4.232,4.232,0,0,0,8.7,5.784a5.689,5.689,0,0,0-1.928-.312,5.291,5.291,0,0,0-2.6.64A4.668,4.668,0,0,0,2.352,7.88,4.92,4.92,0,0,0,1.7,10.4a4.832,4.832,0,0,0,2.48,4.28,5.194,5.194,0,0,0,2.592.648A4.895,4.895,0,0,0,9.952,14.3Zm11.3,2.4h-6.5L13.328,16h-.88L17.6,4.8h.816L23.568,16h-.88Zm-.3-.688L18,5.7,15.072,12.16ZM36.192,16l-.016-9.584-4.688,8.1h-.4L26.4,6.448V16h-.8V4.8h.688L31.3,13.456,36.3,4.8h.672L36.992,16Zm12.432-.736V16H40.9V4.8h7.488v.736H41.712V9.952H47.68v.72H41.712v4.592ZM62.64,12.848h-6.5L54.72,16h-.88L58.992,4.8h.816L64.96,16h-.88Zm-.3-.688L59.392,5.7,56.464,12.16Zm9.232,3.92a5.99,5.99,0,0,1-2.968-.736,5.438,5.438,0,0,1-2.08-2.032,5.649,5.649,0,0,1-.76-2.912,5.649,5.649,0,0,1,.76-2.912A5.438,5.438,0,0,1,68.6,5.456a5.99,5.99,0,0,1,2.968-.736,6.216,6.216,0,0,1,2.24.392,4.616,4.616,0,0,1,1.744,1.16L75.04,6.8A4.688,4.688,0,0,0,71.6,5.472a5.182,5.182,0,0,0-2.56.64A4.683,4.683,0,0,0,67.232,7.88a4.92,4.92,0,0,0-.656,2.52,4.92,4.92,0,0,0,.656,2.52,4.683,4.683,0,0,0,1.808,1.768,5.182,5.182,0,0,0,2.56.64,4.692,4.692,0,0,0,3.44-1.344l.512.528A4.685,4.685,0,0,1,73.8,15.68,6.123,6.123,0,0,1,71.568,16.08Zm13.344-3.232h-6.5L76.992,16h-.88L81.264,4.8h.816L87.232,16h-.88Zm-.3-.688L81.664,5.7,78.736,12.16ZM89.264,4.8H93.7a6.485,6.485,0,0,1,3.1.72,5.262,5.262,0,0,1,2.1,1.992,5.566,5.566,0,0,1,.752,2.888,5.566,5.566,0,0,1-.752,2.888,5.262,5.262,0,0,1-2.1,1.992,6.485,6.485,0,0,1-3.1.72H89.264Zm4.368,10.464a5.844,5.844,0,0,0,2.736-.616,4.406,4.406,0,0,0,1.824-1.72,4.948,4.948,0,0,0,.64-2.528,4.948,4.948,0,0,0-.64-2.528,4.406,4.406,0,0,0-1.824-1.72,5.844,5.844,0,0,0-2.736-.616H90.08v9.728Zm16.576,0V16H102.48V4.8h7.488v.736H103.3V9.952h5.968v.72H103.3v4.592ZM123.776,16l-.016-9.584-4.688,8.1h-.4l-4.688-8.064V16h-.8V4.8h.688l5.008,8.656L123.888,4.8h.672l.016,11.2Zm8.16-3.856V16h-.816V12.144L126.608,4.8h.9l4.048,6.592L135.6,4.8h.848Z" transform="translate(464 390)" fill="#fff"/><path d="M529.154,397.213h8.152l7.242,20.98,7.283-20.98h7.783l-11.342,29.008h-7.862Zm51.932,14.193h6.538v11.545a19.327,19.327,0,0,1-5.69,2.752,21.414,21.414,0,0,1-6.391,1.055,16.026,16.026,0,0,1-7.924-1.97,14.534,14.534,0,0,1-5.568-5.4,14.855,14.855,0,0,1-2.028-7.7,14.34,14.34,0,0,1,2.09-7.635,14.669,14.669,0,0,1,5.752-5.359,17.144,17.144,0,0,1,8.171-1.941,18.708,18.708,0,0,1,6.455,1.182,16.787,16.787,0,0,1,5.466,3.159l-4.306,5.3a12.093,12.093,0,0,0-3.621-2.359,10.3,10.3,0,0,0-4.04-.869,7.962,7.962,0,0,0-7.117,4.179A8.827,8.827,0,0,0,567.8,411.7a9.02,9.02,0,0,0,1.076,4.407,7.908,7.908,0,0,0,2.984,3.083,8.184,8.184,0,0,0,4.221,1.117,11.446,11.446,0,0,0,5.007-1.407Zm24.663-6.455-8.359,21.269h-7.783l12.459-29.008h7.783l12.162,29.008h-8.069Z" transform="translate(-166.154 -19.76)" fill="#fff"/><rect width="10" height="1" transform="translate(535 385)" fill="#ff38a3"/><rect width="10" height="1" transform="translate(535 382)" fill="#ff38a3"/></g></g></svg>