<svg xmlns="http://www.w3.org/2000/svg" xmlns:xlink="http://www.w3.org/1999/xlink" width="800" height="600" viewBox="0 0 800 600"><defs><clipPath id="a"><rect width="800" height="600"/></clipPath><clipPath id="b"><path d="M0,0H228.48V33.6H0Z"/></clipPath><clipPath id="c"><path d="M0,0H317.42V43.66H0Z"/></clipPath></defs><g clip-path="url(#a)"><path d="M13.148-15.048a71.615,71.615,0,0,0,12.54-6.992H13.148ZM35.72-19.76H62.852v-2.28h-24.7Q37.392-21.28,35.72-19.76Zm-5.4,16.112Q26.3-6,21.66-8.36l6.688-4.332h-2.28a80.787,80.787,0,0,1-16.34,7.6L4.1-11.552q3.42-1.14,7.9-3.04H3.42v-14.9H72.58v15.276h-9.5v1.52Q56.848-4.256,44.156.76T10.336,7.448L7.828-.456A152.535,152.535,0,0,0,30.324-3.648ZM40.736-6.916a38.468,38.468,0,0,0,9.88-5.776H30.1Q35.644-9.88,40.736-6.916ZM29.488-48.032H46.512V-50.92H29.488ZM42.1-37.468V-42.18H33.9v4.712Zm8.36,0h7.9V-42.18h-7.9Zm5.928-21.2h16.34v7.752H56.392v2.888H67.868v16.568H8.132V-48.032H19.608V-50.92H3.268v-7.752h16.34v-3.8h9.88v3.8H46.512v-3.8h9.88ZM25.536-42.18h-7.9v4.712h7.9ZM120.308-6.308q8.284-1.064,12.768-6.46T137.56-27.36A19.366,19.366,0,0,0,132.734-40.7a19.823,19.823,0,0,0-12.578-6.5,206.5,206.5,0,0,1-4.294,24.206q-2.47,9.766-5.472,14.858t-6.08,7.106A12.551,12.551,0,0,1,97.28.988q-6.156,0-11.324-7.068T80.788-23.332q0-14.744,10.032-23.94t26.22-9.2q13.072,0,21.622,8.208t8.55,20.9q0,13.224-6.726,21.2T122.36,2.812ZM110.124-46.74q-9.2,1.748-14.44,7.98A23.145,23.145,0,0,0,90.44-23.332,21.73,21.73,0,0,0,92.8-13.072q2.356,4.484,4.484,4.484a3.37,3.37,0,0,0,2.2-1.026,13.661,13.661,0,0,0,2.546-3.762,48.154,48.154,0,0,0,2.774-6.916,104.134,104.134,0,0,0,2.774-11.02Q108.984-38.152,110.124-46.74Zm66.956,15.2q-1.6-6.08-1.748-6.688-2.888,4.712-4.408,7.068ZM153.672,2.052A194.054,194.054,0,0,0,156.18-19l6.612.532a168.852,168.852,0,0,1-2.584,21.736Zm21.432-20.9,6.08-.836q.076.684.266,2.014t.266,1.938a59.486,59.486,0,0,0,15.048-7.448q-.076-.152-.836-1.292a91.868,91.868,0,0,1-10.26,4.788l-.684-2.052-5.32,1.14q-.3-1.672-.532-2.508l-5.32.38V7.068h-9.576V-22.04l-9.424.684-.3-8.816,6.688-.38q.3-.38.874-1.254a14.936,14.936,0,0,0,.8-1.33q-2.736-3.952-8.816-12.464l4.1-9.12q1.672,2.28,2.508,3.5,2.66-5.7,4.788-11.476l7.828,2.736q-3.192,7.676-7.6,16.112l1.976,2.964q3.572-6,7.524-13.68l7.372,3.268q-2.812,5.4-6.612,12.008l5.624-1.444q1.444,4.94,3.42,13.376a53.377,53.377,0,0,0,9.12-4.028h-9.956v-7.448h26.144V-42.18H186.428v-7.068h23.864v-3.344h-24.7v-7.6H220.4v21.356h4.788v7.448H215a55.272,55.272,0,0,0,1.292,6.84q1.444-1.368,4.484-4.864l5.548,5.852a61.178,61.178,0,0,1-7.372,7.22,41.544,41.544,0,0,0,8.132,13.072l-4.636,8.816a50.424,50.424,0,0,1-10.032-15.58,79.142,79.142,0,0,1-5.7-21.356h-1.368q-.532.532-1.9,1.748a43.929,43.929,0,0,1,7.22,24.168q0,6.536-1.672,9.234a5.794,5.794,0,0,1-5.32,2.7q-2.812,0-9.652-.38l-.456-7.372q4.1.38,6.156.38,1.444,0,1.824-.722a9.731,9.731,0,0,0,.38-3.534q0-.532-.038-1.1t-.114-1.254a10.292,10.292,0,0,1-.076-1.064q-7.068,7.6-19.456,13.376L178.98-2.584q13.756-5.624,21.28-13.148a14.31,14.31,0,0,0-.608-1.52,56.986,56.986,0,0,1-15.58,8.892l-2.052-4.56q.456,3.876.684,8.056l-6.308.532Q176.016-11.172,175.1-18.848ZM261.972-44.08v-8.892h32.68v8.892Zm-11.856-13.6a119.3,119.3,0,0,0-3.648,30.324,119.3,119.3,0,0,0,3.648,30.324L240.16,4.1a123.961,123.961,0,0,1-3.8-31.464,123.961,123.961,0,0,1,3.8-31.464Zm45.22,47.576L296.7-1.292A70.484,70.484,0,0,1,278.692.988q-10.716,0-16.91-4.142t-6.194-11.058a16.639,16.639,0,0,1,2.546-7.866,33.549,33.549,0,0,1,6.954-8.474l7.144,5.7a32.646,32.646,0,0,0-4.864,5.814,9.205,9.205,0,0,0-1.748,4.446q0,6.46,13.072,6.46A72.807,72.807,0,0,0,295.336-10.108ZM310.764-53.96q30.7,0,62.472-1.52l.38,9.12q-18.164,1.52-27.436,7.98t-9.272,15.732q0,7.6,5.168,12.008t13.6,4.408a50.357,50.357,0,0,0,9.272-.912l1.14,9.272a59.654,59.654,0,0,1-10.944,1.064q-13.3,0-21.2-6.764t-7.9-18.088a22.774,22.774,0,0,1,4.332-13.224,34.212,34.212,0,0,1,12.312-10.488v-.152q-16.644.684-31.92.684Z" transform="translate(211.732 326)" fill="#fff"/><g transform="translate(215 212.76)" opacity="0.998" clip-path="url(#b)"><g transform="translate(96.96 14.4)"><path d="M9.715-10.829,5.338-1.018.96-10.829H.1L4.915,0h.8l4.819-10.829Z" fill="#fff"/><path d="M9.974,0h.854L5.846-10.829H5.059L.077,0H.931L2.3-3.043H8.582ZM2.611-3.715l2.832-6.25,2.851,6.25Z" transform="translate(10.552)" fill="#fff"/><path d="M9.917-10.829v9.408L2.554-10.829H1.891V0h.787V-9.408L10.051,0H10.7V-10.829Z" transform="translate(21.458)" fill="#fff"/><path d="M3.955,0h.8V-10.118h3.9v-.71H.058v.71h3.9Z" transform="translate(33.961)" fill="#fff"/><path d="M9.974,0h.854L5.846-10.829H5.059L.077,0H.931L2.3-3.043H8.582ZM2.611-3.715l2.832-6.25,2.851,6.25Z" transform="translate(42.762)" fill="#fff"/><path d="M9.917-10.829v9.408L2.554-10.829H1.891V0h.787V-9.408L10.051,0H10.7V-10.829Z" transform="translate(53.668)" fill="#fff"/><path fill="#fff"/><path d="M9.619-1.642a4.736,4.736,0,0,1-3.072.989A4.718,4.718,0,0,1,1.642-5.414a4.707,4.707,0,0,1,4.906-4.762A4.56,4.56,0,0,1,9.926-8.9l.5-.518a5.3,5.3,0,0,0-3.9-1.488A5.417,5.417,0,0,0,.854-5.414,5.412,5.412,0,0,0,6.509.077a5.55,5.55,0,0,0,3.869-1.392V-5.366H9.619Z" transform="translate(0 16.32)" fill="#fff"/><path d="M9.974,0h.854L5.846-10.829H5.059L.077,0H.931L2.3-3.043H8.582ZM2.611-3.715l2.832-6.25,2.851,6.25Z" transform="translate(11.873 16.32)" fill="#fff"/><path d="M12.9,0l-.019-10.829H12.24L7.392-2.458,2.554-10.829H1.891V0h.768V-9.235L7.19-1.44h.394l4.531-7.824L12.125,0Z" transform="translate(22.779 16.32)" fill="#fff"/><path d="M2.678-.71V-5.155h5.77v-.691H2.678v-4.272H9.13v-.71H1.891V0H9.36V-.71Z" transform="translate(37.463 16.32)" fill="#fff"/><path transform="translate(47.739 16.32)" fill="#fff"/><path d="M9.974,0h.854L5.846-10.829H5.059L.077,0H.931L2.3-3.043H8.582ZM2.611-3.715l2.832-6.25,2.851,6.25Z" transform="translate(51.686 16.32)" fill="#fff"/><path d="M6.47.077A5.178,5.178,0,0,0,10.32-1.44l-.5-.509A4.528,4.528,0,0,1,6.5-.653,4.7,4.7,0,0,1,1.642-5.414,4.7,4.7,0,0,1,6.5-10.176,4.511,4.511,0,0,1,9.821-8.9l.5-.509a5.2,5.2,0,0,0-3.85-1.5A5.4,5.4,0,0,0,.854-5.414,5.4,5.4,0,0,0,6.47.077Z" transform="translate(62.592 16.32)" fill="#fff"/><path d="M9.974,0h.854L5.846-10.829H5.059L.077,0H.931L2.3-3.043H8.582ZM2.611-3.715l2.832-6.25,2.851,6.25Z" transform="translate(73.359 16.32)" fill="#fff"/><path d="M1.891,0H6.173c3.437,0,5.75-2.256,5.75-5.414s-2.314-5.414-5.75-5.414H1.891Zm.787-.71v-9.408H6.106c3.072,0,5.03,1.949,5.03,4.7S9.178-.71,6.106-.71Z" transform="translate(84.265 16.32)" fill="#fff"/><path d="M2.678-.71V-5.155h5.77v-.691H2.678v-4.272H9.13v-.71H1.891V0H9.36V-.71Z" transform="translate(96.952 16.32)" fill="#fff"/><path d="M12.9,0l-.019-10.829H12.24L7.392-2.458,2.554-10.829H1.891V0h.768V-9.235L7.19-1.44h.394l4.531-7.824L12.125,0Z" transform="translate(107.228 16.32)" fill="#fff"/><path d="M9.59-10.829H8.774L4.858-4.454.941-10.829H.077l4.358,7.1V0h.8V-3.725Z" transform="translate(121.912 16.32)" fill="#fff"/></g><g transform="translate(-0.001 1.92)"><path d="M73.531,7.863,65.507,28.283H58.035L70,.435h7.472L89.143,28.283H81.4Zm-23.676,6.2h6.276V25.143a18.553,18.553,0,0,1-5.462,2.642A20.561,20.561,0,0,1,44.533,28.8a15.389,15.389,0,0,1-7.607-1.891,13.955,13.955,0,0,1-5.345-5.179,14.261,14.261,0,0,1-1.946-7.389,13.763,13.763,0,0,1,2.005-7.33,14.079,14.079,0,0,1,5.522-5.144A16.468,16.468,0,0,1,45.007,0a17.971,17.971,0,0,1,6.2,1.135,16.128,16.128,0,0,1,5.247,3.033L52.318,9.253A11.613,11.613,0,0,0,48.842,6.99a9.887,9.887,0,0,0-3.878-.834,7.644,7.644,0,0,0-4.012,1.072,7.73,7.73,0,0,0-2.82,2.94A8.473,8.473,0,0,0,37.1,14.339a8.659,8.659,0,0,0,1.033,4.231A7.593,7.593,0,0,0,41,21.529,7.853,7.853,0,0,0,45.048,22.6a10.993,10.993,0,0,0,4.807-1.351ZM0,.435H7.826l6.951,20.141L21.769.435h7.473L18.353,28.283H10.8Z" fill="#fff"/></g><g transform="translate(169.92 10.08)"><path d="M4.8-.48V.48H-4.8V-.48Z" fill="#ff38a3"/></g><g transform="translate(169.92 7.2)"><path d="M4.8-.48V.48H-4.8V-.48Z" fill="#ff38a3"/></g></g><g transform="translate(268 343.1)" opacity="0.998" clip-path="url(#c)"><g transform="translate(0 25.96)"><path d="M6.053-3.292l.389-.389C7.67-4.932,8.59-5.888,9.216-6.537s1.2-1.333,1.735-2.006a12.2,12.2,0,0,0,1.64-2.466,5.079,5.079,0,0,0,.543-2.23,4.726,4.726,0,0,0-.743-2.6,5.122,5.122,0,0,0-2.1-1.853,6.981,6.981,0,0,0-3.2-.7,7.685,7.685,0,0,0-3.009.578,5.077,5.077,0,0,0-2.136,1.652,4.5,4.5,0,0,0-.885,2.478v1.215a.322.322,0,0,0,.094.224.294.294,0,0,0,.224.083H4.437a.294.294,0,0,0,.224-.083.322.322,0,0,0,.094-.224v-.649A1.972,1.972,0,0,1,5.4-14.656a2.4,2.4,0,0,1,1.687-.578,2.443,2.443,0,0,1,1.687.578,1.946,1.946,0,0,1,.649,1.5q0,1.257-2.372,3.894c-.5.519-.991,1.062-1.475,1.628-.224.248-.779.85-1.664,1.829s-1.746,1.888-2.6,2.714a.525.525,0,0,0-.153.389v2.4a.3.3,0,0,0,.094.212A.3.3,0,0,0,1.475,0H13.157a.3.3,0,0,0,.224-.094.3.3,0,0,0,.094-.212V-2.832a.3.3,0,0,0-.094-.212.264.264,0,0,0-.224-.094H6.124A.124.124,0,0,1,6.018-3.2C6.006-3.233,6.018-3.257,6.053-3.292Z" fill="#ff38a3"/><path d="M7.375.283A6.318,6.318,0,0,0,11.906-1.31a5.75,5.75,0,0,0,1.676-4.354v-6.844a5.624,5.624,0,0,0-1.676-4.283,6.318,6.318,0,0,0-4.531-1.593,6.25,6.25,0,0,0-4.519,1.593,5.617,5.617,0,0,0-1.664,4.283v6.844A5.743,5.743,0,0,0,2.856-1.31,6.25,6.25,0,0,0,7.375.283Zm0-3.139a2.426,2.426,0,0,1-1.829-.708,2.662,2.662,0,0,1-.7-1.912v-7.139a2.624,2.624,0,0,1,.7-1.912,2.426,2.426,0,0,1,1.829-.708,2.463,2.463,0,0,1,1.853.708,2.618,2.618,0,0,1,.684,1.912v7.139a2.655,2.655,0,0,1-.684,1.912A2.463,2.463,0,0,1,7.375-2.856Z" transform="translate(15.057)" fill="#ff38a3"/><path d="M6.053-3.292l.389-.389C7.67-4.932,8.59-5.888,9.216-6.537s1.2-1.333,1.735-2.006a12.2,12.2,0,0,0,1.64-2.466,5.079,5.079,0,0,0,.543-2.23,4.726,4.726,0,0,0-.743-2.6,5.122,5.122,0,0,0-2.1-1.853,6.981,6.981,0,0,0-3.2-.7,7.685,7.685,0,0,0-3.009.578,5.077,5.077,0,0,0-2.136,1.652,4.5,4.5,0,0,0-.885,2.478v1.215a.322.322,0,0,0,.094.224.294.294,0,0,0,.224.083H4.437a.294.294,0,0,0,.224-.083.322.322,0,0,0,.094-.224v-.649A1.972,1.972,0,0,1,5.4-14.656a2.4,2.4,0,0,1,1.687-.578,2.443,2.443,0,0,1,1.687.578,1.946,1.946,0,0,1,.649,1.5q0,1.257-2.372,3.894c-.5.519-.991,1.062-1.475,1.628-.224.248-.779.85-1.664,1.829s-1.746,1.888-2.6,2.714a.525.525,0,0,0-.153.389v2.4a.3.3,0,0,0,.094.212A.3.3,0,0,0,1.475,0H13.157a.3.3,0,0,0,.224-.094.3.3,0,0,0,.094-.212V-2.832a.3.3,0,0,0-.094-.212.264.264,0,0,0-.224-.094H6.124A.124.124,0,0,1,6.018-3.2C6.006-3.233,6.018-3.257,6.053-3.292Z" transform="translate(30.373)" fill="#ff38a3"/><path d="M3.894-18.089,1.168-16.827a.385.385,0,0,0-.236.366l.083,2.23c0,.2.071.3.236.3l.094-.035,2.572-.7a.094.094,0,0,1,.106.024.144.144,0,0,1,.047.106V-.307a.3.3,0,0,0,.094.212A.3.3,0,0,0,4.39,0H7.422a.3.3,0,0,0,.224-.094.3.3,0,0,0,.094-.212V-17.865a.3.3,0,0,0-.094-.212.3.3,0,0,0-.224-.094H4.283A.683.683,0,0,0,3.894-18.089Z" transform="translate(45.43)" fill="#ff38a3"/></g><g transform="translate(54.983 25.96)"><path fill="#fff"/></g><g transform="translate(60.694 25.96)"><path d="M8,.13c4.519,0,6.584-2.242,6.584-4.838,0-6.643-11.422-3.4-11.422-8.885,0-2.018,1.593-3.658,5.157-3.658a9.109,9.109,0,0,1,5.015,1.534l.5-1.062a9.775,9.775,0,0,0-5.511-1.652c-4.508,0-6.49,2.277-6.49,4.862,0,6.75,11.422,3.457,11.422,8.944,0,1.982-1.617,3.575-5.275,3.575a8.673,8.673,0,0,1-6.042-2.3l-.6,1A9.392,9.392,0,0,0,8,.13Z" fill="#fff"/><path d="M6.691,0H8.024V-17.1h6.6v-1.2H.106v1.2H6.691Z" transform="translate(16.329)" fill="#fff"/><path d="M10.349.13C14.9.13,17.7-2.537,17.7-7.764V-18.3H16.367v10.49c0,4.567-2.171,6.714-5.983,6.714S4.366-3.245,4.366-7.812V-18.3H3.033V-7.764C3.033-2.537,5.806.13,10.349.13Z" transform="translate(31.723)" fill="#fff"/><path d="M3.186,0h7.245c5.806,0,9.723-3.811,9.723-9.145S16.237-18.3,10.431-18.3H3.186ZM4.519-1.2V-17.1h5.806c5.18,0,8.5,3.292,8.5,7.953S15.505-1.2,10.325-1.2Z" transform="translate(52.829)" fill="#fff"/><path d="M4.519-1.2v-7.5h9.759V-9.877H4.519V-17.1h10.9v-1.2H3.186V0H15.812V-1.2Z" transform="translate(74.791)" fill="#fff"/><path d="M16.756-18.3V-2.407L4.319-18.3H3.186V0H4.519V-15.895L16.992,0h1.1V-18.3Z" transform="translate(92.677)" fill="#fff"/><path d="M6.691,0H8.024V-17.1h6.6v-1.2H.106v1.2H6.691Z" transform="translate(114.328)" fill="#fff"/><path d="M8,.13c4.519,0,6.584-2.242,6.584-4.838,0-6.643-11.422-3.4-11.422-8.885,0-2.018,1.593-3.658,5.157-3.658a9.109,9.109,0,0,1,5.015,1.534l.5-1.062a9.775,9.775,0,0,0-5.511-1.652c-4.508,0-6.49,2.277-6.49,4.862,0,6.75,11.422,3.457,11.422,8.944,0,1.982-1.617,3.575-5.275,3.575a8.673,8.673,0,0,1-6.042-2.3l-.6,1A9.392,9.392,0,0,0,8,.13Z" transform="translate(129.722)" fill="#fff"/><path transform="translate(146.051)" fill="#fff"/><path d="M26.349-18.3l-5.617,16.5-5.7-16.5H13.747L8.024-1.829,2.454-18.3H1.05L7.269,0H8.685l5.7-16.414L20.048,0h1.416l6.195-18.3Z" transform="translate(153.242)" fill="#fff"/><path d="M10.95.13a9.161,9.161,0,0,0,9.523-9.275,9.171,9.171,0,0,0-9.523-9.287A9.161,9.161,0,0,0,1.44-9.145,9.158,9.158,0,0,0,10.95.13Zm0-1.227A7.907,7.907,0,0,1,2.773-9.145,7.909,7.909,0,0,1,10.95-17.2a7.906,7.906,0,0,1,8.166,8.059A7.9,7.9,0,0,1,10.95-1.1Z" transform="translate(182.265)" fill="#fff"/><path d="M17.417,0,12.838-6.407a5.607,5.607,0,0,0,4.283-5.723c0-3.87-2.773-6.171-7.375-6.171H3.186V0H4.519V-5.983H9.747a14.211,14.211,0,0,0,1.782-.13L15.895,0ZM4.519-7.163V-17.1H9.747c3.929,0,6.018,1.805,6.018,4.968,0,3.139-2.089,4.968-6.018,4.968Z" transform="translate(204.539)" fill="#fff"/><path d="M16.5,0h1.617l-8.6-9.983L17.57-18.3H15.954L4.519-6.537V-18.3H3.186V0H4.519V-4.814l4.106-4.2Z" transform="translate(223.749)" fill="#fff"/><path d="M8,.13c4.519,0,6.584-2.242,6.584-4.838,0-6.643-11.422-3.4-11.422-8.885,0-2.018,1.593-3.658,5.157-3.658a9.109,9.109,0,0,1,5.015,1.534l.5-1.062a9.775,9.775,0,0,0-5.511-1.652c-4.508,0-6.49,2.277-6.49,4.862,0,6.75,11.422,3.457,11.422,8.944,0,1.982-1.617,3.575-5.275,3.575a8.673,8.673,0,0,1-6.042-2.3l-.6,1A9.392,9.392,0,0,0,8,.13Z" transform="translate(242.518)" fill="#fff"/></g><g transform="translate(304.44 38.35)"><path d="M11.8-.59V.59H-11.8V-.59Z" fill="#ff38a3"/></g><g transform="translate(304.44 43.07)"><path d="M11.8-.59V.59H-11.8V-.59Z" fill="#ff38a3"/></g></g></g></svg>