<svg xmlns="http://www.w3.org/2000/svg" preserveAspectRatio="none" width="291" height="139.302" viewBox="0 0 291 139.302"><g transform="translate(-16 -181.059)"><path d="M-102.194-23.051l-3.811,1.813q-1.443-2.923-3.145-5.883l3.811-1.924Q-103.637-25.9-102.194-23.051Zm5.994-1.184-3.885,1.85q-1.665-3.219-3.219-5.994l3.885-1.961Q-98.087-27.935-96.2-24.235Zm-9.62,6.142,4.921-1.443A186.2,186.2,0,0,1-95.09.333l-5.291,1.073A181.722,181.722,0,0,0-105.82-18.093Zm-14.689-8.214,5.18.3a62.033,62.033,0,0,1-8.029,27.306l-4.773-2.22A60.636,60.636,0,0,0-120.509-26.307Zm32.745,3,2.368-4.44q5.587,2.664,11.47,5.957L-76.4-17.427Q-81.363-20.2-87.764-23.31Zm24.975-.888,4.7,1.036q-1.961,10.989-8.88,16.909T-86.21.74l-.74-4.81q10.73-1.036,16.483-5.864T-62.789-24.2ZM-48.322,1.961l-.777-4.44a39.639,39.639,0,0,0,9.86-2.072,15.27,15.27,0,0,0,6.272-4.144q-4.4-2.257-10.249-4.884l2.331-4.292q5.92,2.664,10.434,4.958a28.448,28.448,0,0,0,1.628-8.547H-41.736a28.824,28.824,0,0,1-7.252,10.8l-3.4-3a26.66,26.66,0,0,0,5.18-7.233,26.016,26.016,0,0,0,2.553-8.492l4.7.3a29.3,29.3,0,0,1-.481,3.182h16.872v1.591q0,12.913-5.864,19.055T-48.322,1.961ZM-13.764-23.31l2.368-4.44q5.587,2.664,11.47,5.957l-2.479,4.366Q-7.363-20.2-13.764-23.31ZM11.211-24.2l4.7,1.036Q13.949-12.173,7.03-6.253T-12.21.74l-.74-4.81Q-2.22-5.106,3.534-9.934T11.211-24.2Zm38.221-1.258-3.478,1.665q-1.184-2.442-2.812-5.365l3.478-1.739Q48.137-28.046,49.432-25.456Zm5.7-.444-3.552,1.7q-2-3.848-2.886-5.476l3.552-1.776Q53.946-28.342,55.13-25.9Zm-2.849,6.919H43.919q-.037,9.657-3.681,14.523T28.527,1.85L27.343-2.479q6.216-1.147,8.843-4.81T38.85-18.981H29.008A29.005,29.005,0,0,1,23.9-10.767l-3.885-2.516a30.486,30.486,0,0,0,6.512-15.725l4.81.3a35.333,35.333,0,0,1-.888,5.291h21.83Zm6.438,8.14V-15.8H89.281v4.958Zm56.721-4.07,4.551-2.035q3.885,7.955,7.659,16.465l-4.662,1.887q-.888-2.072-1.554-3.515A242.163,242.163,0,0,1,95.09.37l-.111-4.44q1.147-.037,3.7-.185a208.3,208.3,0,0,0,7.252-24.124l5.069.888a188.608,188.608,0,0,1-6.734,22.866q7.03-.592,15.244-1.739Q117.364-11.026,115.44-14.911ZM-143.819,21.83V17.5h29.97V21.83a19.986,19.986,0,0,1-3.719,6.9,21.94,21.94,0,0,1-6.2,5.309l-2.886-3.811q5.846-3.515,7.511-8.4Zm9.62,2.96h4.958a45.374,45.374,0,0,1-.98,10.471,15.436,15.436,0,0,1-3.127,6.493,17.89,17.89,0,0,1-6.1,4.347l-2.553-3.959a12.016,12.016,0,0,0,6.179-5.716Q-134.2,32.856-134.2,24.79ZM-97.68,14.8h4.81q0,2.96-.111,5.55h14.06v3.811q0,5.7-.222,9.435a55.184,55.184,0,0,1-.647,6.142,9.077,9.077,0,0,1-1.277,3.607,4.478,4.478,0,0,1-1.868,1.628,6.94,6.94,0,0,1-2.646.425q-2.442,0-7.622-.518L-92.8,40.4q3.811.37,5.735.37A1.959,1.959,0,0,0-85.3,39.9a10.38,10.38,0,0,0,.888-3.922q.314-3.052.314-9.417V24.79h-9.176q-.74,7.918-3.219,12.672a26.5,26.5,0,0,1-7.511,8.639l-3.108-3.4a21.966,21.966,0,0,0,6.271-7.1,30.048,30.048,0,0,0,2.757-10.8h-8.732V20.35h9.028Q-97.68,17.8-97.68,14.8Zm59.94,3.7-3.552,1.7q-2-3.848-2.886-5.476l3.552-1.776Q-38.924,16.058-37.74,18.5Zm-29.341,3.219v-4.44h18.426q-1.036-1.961-1.073-2.035l3.478-1.739q1.517,2.849,2.812,5.439l-2.442,1.184v1.591Zm-4.329,5.55h31.82v4.44h-12.1q-.037,6.364-3.2,10.027t-9.934,5.143l-1.443-4.44q5.143-1.258,7.252-3.682t2.146-7.048H-71.41Zm38.591,15.762.259-4.884a210.329,210.329,0,0,1,28.379,2.96L-4.7,45.991A211.211,211.211,0,0,0-32.819,43.031ZM-29.6,31.82l.37-4.921A168.773,168.773,0,0,1-7.622,29.267l-.666,4.884A165.934,165.934,0,0,0-29.6,31.82Zm-1.591-10.508.222-4.773q12.95.481,25.567,2.22l-.555,4.773A249.239,249.239,0,0,0-31.191,21.312ZM3.219,33.559V28.6H33.781v4.958Zm55.352,7.77a9.249,9.249,0,0,0,6.216-3.145,10.772,10.772,0,0,0,2.183-7.1,9.428,9.428,0,0,0-2.35-6.493A9.651,9.651,0,0,0,58.5,21.423a100.533,100.533,0,0,1-2.09,11.784,28.486,28.486,0,0,1-2.664,7.234,10.315,10.315,0,0,1-2.96,3.459,6.11,6.11,0,0,1-3.423.98q-3,0-5.513-3.441a13.841,13.841,0,0,1-2.516-8.4,15.077,15.077,0,0,1,4.884-11.655Q49.1,16.909,56.98,16.909a14.587,14.587,0,0,1,10.526,4A13.494,13.494,0,0,1,71.669,31.08q0,6.438-3.274,10.323a12.437,12.437,0,0,1-8.825,4.366ZM53.613,21.645a11.692,11.692,0,0,0-7.03,3.885,11.268,11.268,0,0,0-2.553,7.511,10.579,10.579,0,0,0,1.147,5q1.147,2.183,2.183,2.183a1.641,1.641,0,0,0,1.073-.5,6.651,6.651,0,0,0,1.24-1.832,23.444,23.444,0,0,0,1.351-3.367,50.7,50.7,0,0,0,1.35-5.365Q53.058,25.826,53.613,21.645ZM97.162,40.774,93.869,43.66q-2.664-3.071-5.4-5.661l2.96-2.664H88.356V33.929l-2.775.777V47.841H80.919V35.853q-2.7.629-5.55,1.11l-.407-4.107q2.849-.481,5.957-1.184v-7.7H79.476a60.7,60.7,0,0,1-1.184,6.66l-3.663-.962a91.743,91.743,0,0,0,1.85-13.912l3.7.259q-.148,2.553-.259,3.885h1V14.319h4.662v5.587H88.8v4.07H85.581v6.512q1.147-.3,3.441-.962l.111,1.813h12.395V28.416H88.356v-4h7.992v-3.4H89.466V17.131h6.882V13.579h4.958v3.552h7.03v3.885h-7.03v3.4h8.251v4h-3.145v2.923h3.145v4h-3.145v6.179q0,1.554-.056,2.442a7.115,7.115,0,0,1-.3,1.665,2.712,2.712,0,0,1-.574,1.11,2.859,2.859,0,0,1-1.091.592,5.725,5.725,0,0,1-1.61.3q-.851.037-2.368.037-1.036,0-4.551-.185l-.259-4q3.071.185,3.959.185a3.556,3.556,0,0,0,1.72-.222q.24-.222.241-1.628V35.335H91.982A73.228,73.228,0,0,1,97.162,40.774Zm34.373.518a28.69,28.69,0,0,1-6.179-6.438h-3.071v7.807Q127.169,42.069,131.535,41.292Zm4.551-2.035a40.224,40.224,0,0,0,4.07-4.4h-9.287A25.292,25.292,0,0,0,136.086,39.257Zm10.434-8.436v4.033h-5.4l3.219,1.887a46.591,46.591,0,0,1-4.292,4.662,48.331,48.331,0,0,0,6.771,2.516l-2,3.811a38.425,38.425,0,0,1-12.839-6.105l.444,3.515a167.367,167.367,0,0,1-18.87,2.4l-.481-4.033q2.146-.111,4.292-.333V34.854H112.48V30.821h4.884V15.059h25.567v4.033H122.285v1.7h19.536v3.219H122.285v1.776h19.536v3.219H122.285v1.813Z" transform="translate(159.818 262.68)" fill="#fff"/><path d="M40.663,18.913h.962l3.237,8.1,3.224-8.1h.949L45.3,28h-.936ZM57.017,28l-1.079-2.418H50.894L49.828,28h-.962l4.1-9.087H53.9L57.993,28Zm-5.772-3.224h4.342L53.4,19.862Zm15.093-5.863h.884V28h-.949l-5.629-7.7V28h-.9V18.913H60.7l5.642,7.7Zm2.73-.013h6.9v.819h-3V28h-.9V19.719h-3ZM83.745,28l-1.079-2.418H77.622L76.556,28h-.962l4.1-9.087h.936L84.72,28Zm-5.772-3.224h4.342l-2.184-4.914Zm15.093-5.863h.884V28H93l-5.629-7.7V28h-.9V18.913h.949l5.642,7.7ZM107.3,23.554h.793v3.328a5.025,5.025,0,0,1-1.541.878,5.2,5.2,0,0,1-1.787.318,4.744,4.744,0,0,1-4.1-2.314,4.454,4.454,0,0,1-.637-2.327,4.386,4.386,0,0,1,.637-2.314,4.657,4.657,0,0,1,1.736-1.671,4.812,4.812,0,0,1,2.4-.618,5.039,5.039,0,0,1,1.787.325,4.882,4.882,0,0,1,1.528.91l-.52.637a3.948,3.948,0,0,0-1.287-.8,4.172,4.172,0,0,0-1.508-.28,3.788,3.788,0,0,0-1.937.514,3.875,3.875,0,0,0-1.4,1.385,3.659,3.659,0,0,0-.52,1.911,3.717,3.717,0,0,0,.52,1.931,3.88,3.88,0,0,0,3.354,1.9,4.068,4.068,0,0,0,1.293-.214,4.462,4.462,0,0,0,1.19-.6ZM117.78,28,116.7,25.582h-5.044L110.59,28h-.962l4.095-9.087h.936l4.1,9.087Zm-5.772-3.224h4.342l-2.184-4.914Zm8.5-5.876h1.118l3.562,6.825,3.523-6.825h1.118V28H129l-.013-7.852-3.562,6.877h-.494l-3.575-6.877V28h-.845Zm12.441.013h6.084v.806h-5.187v3.25h4.641v.806h-4.641v3.419H139.2V28h-6.253ZM152.281,28,151.2,25.582h-5.044L145.092,28h-.962l4.1-9.087h.936l4.1,9.087Zm-5.772-3.224h4.342l-2.184-4.914Zm14.885-4.017a3.993,3.993,0,0,0-1.261-.832,3.828,3.828,0,0,0-4.8,1.593,3.825,3.825,0,0,0,0,3.828,3.839,3.839,0,0,0,1.391,1.385,3.753,3.753,0,0,0,1.93.514,3.846,3.846,0,0,0,1.469-.292,4.175,4.175,0,0,0,1.274-.812l.546.585a5.238,5.238,0,0,1-1.547.988,4.579,4.579,0,0,1-1.781.364,4.7,4.7,0,0,1-4.076-2.314,4.489,4.489,0,0,1-.63-2.327,4.386,4.386,0,0,1,.637-2.314,4.758,4.758,0,0,1,4.1-2.288,4.844,4.844,0,0,1,3.289,1.3ZM170.91,28l-1.079-2.418h-5.044L163.721,28h-.962l4.1-9.087h.936l4.1,9.087Zm-5.772-3.224h4.342L167.3,19.862Zm12.155-5.863a4.789,4.789,0,0,1,2.372.6,4.506,4.506,0,0,1-.007,7.891,4.851,4.851,0,0,1-2.392.6h-3.627V18.913Zm.026,8.281a3.724,3.724,0,0,0,3.243-1.84,3.744,3.744,0,0,0-1.378-5.141,3.771,3.771,0,0,0-1.9-.494h-2.743v7.475Zm6.89-8.281h6.084v.806h-5.187v3.25h4.641v.806h-4.641v3.419h5.356V28H184.21Zm8.71-.013h1.118l3.562,6.825,3.523-6.825h1.118V28h-.832l-.013-7.852-3.562,6.877h-.494l-3.575-6.877V28h-.845Zm19.019.013-3.5,5.85V28h-.9V24.763L204,18.913h.936L208,23.8l3-4.888Z" transform="translate(49 178.68)" fill="#ff38a3"/><path d="M43.368,13l-.715-1.768H38.44L37.726,13H35.606l3.952-9.1h2.119L45.564,13ZM39.117,9.581H41.99L40.56,6.045ZM50.959,3.9a4.08,4.08,0,0,1,2.379.611,1.928,1.928,0,0,1,.871,1.664,2,2,0,0,1-.423,1.267,2.1,2.1,0,0,1-1.151.734,2.229,2.229,0,0,1,1.9,2.3,2.166,2.166,0,0,1-.923,1.846A4.163,4.163,0,0,1,51.1,13H46.773V3.9Zm-.1,3.666a1.425,1.425,0,0,0,.917-.266.9.9,0,0,0,.332-.747.873.873,0,0,0-.332-.728,1.4,1.4,0,0,0-.917-.247H48.827V7.566Zm0,3.757A1.961,1.961,0,0,0,52,11.031a.938.938,0,0,0,.416-.812A.9.9,0,0,0,52,9.438a1.931,1.931,0,0,0-1.144-.273H48.827v2.158Zm9.672-7.566a5.092,5.092,0,0,1,2.483.611,4.562,4.562,0,0,1,2.4,4.069,4.6,4.6,0,0,1-2.4,4.089,5.3,5.3,0,0,1-4.966,0,4.618,4.618,0,0,1-1.762-1.69,4.572,4.572,0,0,1-.643-2.4,4.573,4.573,0,0,1,2.4-4.069A5.081,5.081,0,0,1,60.527,3.757Zm.026,1.794a2.715,2.715,0,0,0-1.4.384,2.8,2.8,0,0,0-1.027,1.047,2.95,2.95,0,0,0,1.034,3.978,2.647,2.647,0,0,0,1.4.39,2.614,2.614,0,0,0,1.384-.384,2.786,2.786,0,0,0,1-1.053,3,3,0,0,0,.37-1.476,2.934,2.934,0,0,0-.37-1.456,2.8,2.8,0,0,0-1-1.047A2.614,2.614,0,0,0,60.553,5.551Zm8.372,3.692a2.11,2.11,0,0,0,.552,1.54,1.969,1.969,0,0,0,1.476.566,1.883,1.883,0,0,0,1.43-.559,2.15,2.15,0,0,0,.533-1.547V3.9h2.054V9.243a4.2,4.2,0,0,1-.488,2.073,3.313,3.313,0,0,1-1.4,1.352,4.579,4.579,0,0,1-2.145.474,4.659,4.659,0,0,1-2.158-.474,3.337,3.337,0,0,1-1.417-1.352,4.159,4.159,0,0,1-.494-2.073V3.9h2.054ZM76.179,3.9h7.605V5.642H81V13H78.949V5.642H76.179ZM89.219,2.379h.7V14.6h-.7Zm7.475,1.534h5.694v.806h-4.8v3.5h4.277v.806H97.591V13h-.9Zm7.54,0h6.084v.806h-5.187v3.25h4.641v.806h-4.641v3.419h5.356V13h-6.253ZM119.729,13l-1.079-2.418h-5.044L112.54,13h-.962l4.095-9.087h.936L120.7,13Zm-5.772-3.224H118.3l-2.184-4.914Zm6.37-5.876h6.9v.819h-3V13h-.9V4.719h-3Zm9.425,5.408a3,3,0,0,0,.76,2.184,3.242,3.242,0,0,0,4.219,0,3.012,3.012,0,0,0,.754-2.184V3.9h.9V9.308a3.756,3.756,0,0,1-.994,2.769,4.321,4.321,0,0,1-5.531,0,3.742,3.742,0,0,1-1-2.769V3.9h.9ZM145.288,13l-1.963-2.964q-.416.026-.637.026h-2.5V13h-.9V3.913h3.393a3.961,3.961,0,0,1,2.633.786,2.76,2.76,0,0,1,.929,2.229,3.13,3.13,0,0,1-.546,1.885,2.849,2.849,0,0,1-1.56,1.053L146.327,13Zm-2.6-3.744a3.024,3.024,0,0,0,2-.592,2.11,2.11,0,0,0,.7-1.71,2.022,2.022,0,0,0-.7-1.664,3.1,3.1,0,0,0-2-.572h-2.5V9.256Zm6.266-5.343h6.084v.806H149.85v3.25h4.641v.806H149.85v3.419h5.356V13h-6.253ZM162.707,5.4a4.7,4.7,0,0,0-1.222-.54,4.572,4.572,0,0,0-1.248-.188,2.7,2.7,0,0,0-1.5.37,1.148,1.148,0,0,0-.566,1.007,1.319,1.319,0,0,0,.312.91,2.206,2.206,0,0,0,.767.552,12.114,12.114,0,0,0,1.248.449,10.723,10.723,0,0,1,1.488.54,2.634,2.634,0,0,1,.962.773,2.113,2.113,0,0,1,.4,1.339,2.121,2.121,0,0,1-.409,1.287,2.624,2.624,0,0,1-1.151.864,4.439,4.439,0,0,1-1.7.306,4.768,4.768,0,0,1-1.853-.377,4.992,4.992,0,0,1-1.553-1l.416-.741a4.485,4.485,0,0,0,1.417.936,4.081,4.081,0,0,0,1.586.338,2.858,2.858,0,0,0,1.651-.423,1.316,1.316,0,0,0,.611-1.137,1.388,1.388,0,0,0-.312-.936,2.067,2.067,0,0,0-.767-.559q-.455-.2-1.274-.455a13.08,13.08,0,0,1-1.482-.54,2.5,2.5,0,0,1-.949-.754,2.065,2.065,0,0,1-.39-1.306,1.96,1.96,0,0,1,.39-1.209,2.464,2.464,0,0,1,1.092-.8,4.372,4.372,0,0,1,1.625-.28,5.478,5.478,0,0,1,2.808.806Zm10.816-1.56a4.741,4.741,0,0,1,2.385.617,4.685,4.685,0,0,1,1.723,1.671,4.386,4.386,0,0,1,.637,2.314,4.454,4.454,0,0,1-.637,2.327,4.79,4.79,0,0,1-8.216,0,4.454,4.454,0,0,1-.637-2.327,4.386,4.386,0,0,1,.637-2.314,4.685,4.685,0,0,1,1.723-1.671A4.741,4.741,0,0,1,173.524,3.835Zm.013.806a3.86,3.86,0,0,0-3.328,1.885,3.659,3.659,0,0,0-.52,1.911,3.728,3.728,0,0,0,.52,1.924,3.843,3.843,0,0,0,1.4,1.4,3.764,3.764,0,0,0,1.924.514,3.705,3.705,0,0,0,1.9-.514,3.858,3.858,0,0,0,1.4-1.4,3.728,3.728,0,0,0,.52-1.924,3.659,3.659,0,0,0-.52-1.911,3.839,3.839,0,0,0-1.4-1.378A3.741,3.741,0,0,0,173.537,4.641Zm6.968-.728H186.2v.806h-4.8v3.5h4.277v.806H181.4V13h-.9ZM10.126,18.9h6.9v.819h-3V28h-.9V19.719h-3Zm8.736.013h.9v4.16H25.44v-4.16h.9V28h-.9V23.879H19.759V28h-.9Zm10.6,0h6.084v.806H30.354v3.25H35v.806H30.354v3.419H35.71V28H29.457Z" transform="translate(48.873 178.68)" fill="#fff"/><g transform="translate(-161 -3)"><g transform="translate(55 171.754)"><rect width="10" height="1" transform="translate(165 42.926)" fill="#ff38a3"/></g></g><g transform="translate(142 273.434)"><rect width="10" height="1" transform="translate(155 42.926)" fill="#ff38a3"/><rect width="10" height="1" transform="translate(155 45.926)" fill="#ff38a3"/></g></g></svg>