<svg enable-background="new 0 0 761.852 105.705" height="105.705" viewBox="0 0 761.852 105.705" width="761.852" xmlns="http://www.w3.org/2000/svg"><g transform="translate(-218.924 -405.295)"><path d="m255.376 458.6-5.356 2.552c-1.352-2.739-2.825-5.495-4.42-8.268l5.356-2.7c1.595 2.944 3.068 5.749 4.42 8.416zm8.424-1.66-5.46 2.6c-1.56-3.016-3.068-5.824-4.524-8.424l5.46-2.756c1.248 2.253 2.756 5.113 4.524 8.58zm-13.52 8.632 6.92-2.028c3.236 9.15 5.96 18.472 8.16 27.924l-7.436 1.508c-2.037-9.27-4.589-18.418-7.644-27.404zm-20.644-11.544 7.28.416c-.736 13.494-4.599 26.631-11.284 38.376l-6.708-3.12c6.157-10.955 9.815-23.137 10.712-35.672zm44.98 4.212 3.328-6.24c5.235 2.496 10.608 5.287 16.12 8.372l-3.484 6.136c-4.645-2.6-9.967-5.356-15.964-8.268zm35.1-1.248 6.6 1.456c-1.835 10.296-5.993 18.217-12.476 23.764s-15.496 8.823-27.04 9.828l-1.04-6.76c10.053-.971 17.775-3.718 23.166-8.242s8.987-11.206 10.79-20.046zm19.292 36.764-1.092-6.24c4.725-.379 9.382-1.358 13.858-2.916 3.377-1.177 6.407-3.179 8.814-5.824-4.125-2.115-8.925-4.403-14.4-6.864l3.276-6.032c5.547 2.496 10.435 4.819 14.664 6.968 1.374-3.863 2.146-7.914 2.288-12.012h-18.152c-2.196 5.772-5.682 10.966-10.192 15.184l-4.784-4.212c2.979-2.957 5.44-6.393 7.28-10.166 1.87-3.743 3.084-7.78 3.588-11.934l6.6.416c-.143 1.502-.369 2.995-.676 4.472h23.72v2.236c0 12.099-2.747 21.025-8.242 26.78s-14.345 9.136-26.55 10.144zm47.528-35.516 3.328-6.24c5.235 2.496 10.608 5.287 16.12 8.372l-3.484 6.136c-4.645-2.6-9.967-5.356-15.964-8.268zm35.1-1.248 6.6 1.456c-1.837 10.296-5.997 18.217-12.48 23.764s-15.495 8.823-27.036 9.828l-1.04-6.76c10.053-.971 17.775-3.718 23.166-8.242s8.987-11.206 10.79-20.046zm52.676-1.768-4.888 2.34c-1.109-2.288-2.427-4.801-3.952-7.54l4.888-2.444c1.421 2.669 2.739 5.217 3.952 7.644zm8.008-.624-4.992 2.392c-1.872-3.605-3.224-6.172-4.056-7.7l4.992-2.5c1.595 2.917 2.947 5.52 4.056 7.808zm-4 9.724h-11.756c-.035 9.048-1.759 15.851-5.174 20.41s-8.901 7.514-16.458 8.866l-1.664-6.084c5.821-1.077 9.965-3.331 12.432-6.76s3.715-8.907 3.744-16.432h-13.836c-1.729 4.223-4.155 8.125-7.176 11.544l-5.46-3.536c5.087-6.348 8.261-14.014 9.152-22.1l6.76.416c-.227 2.507-.644 4.993-1.248 7.436h30.68zm8.008 11.44v-6.964h42.952v6.968zm78.672-5.72 6.4-2.86c3.64 7.453 7.228 15.167 10.764 23.14l-6.552 2.652c-.832-1.941-1.56-3.588-2.184-4.94-12.27 1.835-24.631 2.998-37.028 3.484l-.156-6.24c1.075-.035 2.808-.121 5.2-.26 4.078-11.084 7.482-22.405 10.192-33.9l7.124 1.248c-2.473 10.899-5.632 21.631-9.46 32.132 6.587-.555 13.728-1.369 21.424-2.444-2.016-4.371-3.924-8.375-5.724-12.012zm24.6-10.764v-6.08h42.12v6.084c-1.085 3.547-2.861 6.843-5.226 9.7-2.411 3.01-5.366 5.541-8.71 7.462l-4.056-5.356c5.477-3.293 8.996-7.227 10.556-11.8zm13.52 4.16h6.968c.113 4.942-.35 9.881-1.378 14.716-.724 3.346-2.23 6.473-4.394 9.126-2.396 2.62-5.321 4.702-8.58 6.11l-3.588-5.564c4.267-2.011 7.161-4.689 8.684-8.034s2.284-8.797 2.284-16.354zm50.28-14.04h6.76c0 2.773-.052 5.373-.156 7.8h19.76v5.356c0 5.339-.104 9.759-.312 13.26-.142 2.892-.446 5.774-.91 8.632-.231 1.798-.843 3.527-1.794 5.07-.643.995-1.553 1.788-2.626 2.288-1.189.44-2.451.643-3.718.6-2.288 0-5.859-.243-10.712-.728l.572-6.292c3.571.347 6.257.52 8.06.52.983.064 1.924-.402 2.47-1.222.537-.815.953-2.652 1.248-5.512s.442-7.271.442-13.234v-2.5h-12.9c-.693 7.419-2.201 13.355-4.524 17.81-2.591 4.768-6.192 8.913-10.552 12.144l-4.368-4.784c3.629-2.647 6.637-6.054 8.814-9.984 1.924-3.64 3.215-8.701 3.874-15.184h-12.272v-6.24h12.688c.104-2.392.156-4.992.156-7.8zm83.2 5.2-4.992 2.392c-1.872-3.605-3.224-6.172-4.056-7.7l4.992-2.5c1.595 2.917 2.947 5.52 4.056 7.808zm-41.236 4.524v-6.24h25.9c-.971-1.837-1.473-2.791-1.508-2.86l4.888-2.444c1.421 2.667 2.739 5.215 3.952 7.644l-3.432 1.664v2.236zm-6.084 7.8h44.72v6.24h-17c-.035 5.963-1.535 10.66-4.5 14.092s-7.62 5.841-13.964 7.228l-2.028-6.24c4.819-1.179 8.216-2.903 10.192-5.174s2.981-5.573 3.016-9.906h-20.436zm53.2 22.152.364-6.864c13.373.482 26.699 1.872 39.884 4.16l-.728 6.864c-13.067-2.268-26.271-3.658-39.524-4.16zm4.52-15.756.52-6.916c10.184.456 20.327 1.567 30.368 3.328l-.936 6.864c-9.903-1.737-19.908-2.831-29.952-3.276zm-2.236-14.768.312-6.708c12.133.451 24.111 1.491 35.932 3.12l-.78 6.708c-11.761-1.64-23.597-2.682-35.464-3.12zm47.32 17.212v-6.964h42.952v6.968zm76.752 10.92c3.377-.279 6.511-1.865 8.736-4.42 2.045-2.461 3.068-5.789 3.068-9.984.094-3.35-1.086-6.611-3.3-9.126-2.224-2.491-5.288-4.074-8.606-4.446-.65 5.574-1.631 11.105-2.938 16.562-.782 3.543-2.042 6.963-3.746 10.166-1.007 1.911-2.428 3.573-4.16 4.864-1.431.926-3.106 1.405-4.81 1.376-2.808 0-5.391-1.612-7.748-4.836-2.426-3.446-3.667-7.587-3.536-11.8 0-6.725 2.288-12.185 6.864-16.38s10.556-6.292 17.94-6.292c5.484-.183 10.813 1.839 14.794 5.616 3.891 3.72 6.018 8.919 5.85 14.3 0 6.032-1.533 10.868-4.6 14.508-3.114 3.664-7.599 5.883-12.4 6.136zm-6.968-27.664c-3.835.596-7.335 2.53-9.88 5.46-2.436 2.967-3.711 6.719-3.588 10.556-.046 2.437.507 4.848 1.612 7.02 1.075 2.045 2.097 3.068 3.068 3.068.572-.038 1.11-.287 1.508-.7.72-.755 1.309-1.625 1.742-2.574.755-1.526 1.39-3.108 1.9-4.732.77-2.477 1.404-4.994 1.9-7.54.639-3.119 1.218-6.638 1.738-10.558zm60.164 26.88-4.632 4.06c-2.493-2.877-5.023-5.531-7.588-7.96l4.16-3.744h-4.316v-1.976l-3.9 1.092v18.464h-6.556v-16.848c-2.533.589-5.133 1.109-7.8 1.56l-.572-5.772c2.667-.451 5.457-1.005 8.372-1.664v-10.812h-2.028c-.38 3.148-.936 6.273-1.664 9.36l-5.144-1.36c1.365-6.441 2.234-12.978 2.6-19.552l5.2.364c-.139 2.392-.26 4.212-.364 5.46h1.4v-7.852h6.552v7.852h4.524v5.72h-4.524v9.152c1.075-.277 2.687-.728 4.836-1.352l.156 2.548h17.42v-4.108h-18.508v-5.612h11.232v-4.784h-9.672v-5.46h9.672v-4.992h6.968v4.992h9.88v5.46h-9.88v4.784h11.6v5.616h-4.42v4.108h4.42v5.616h-4.42v8.684c0 1.456-.026 2.6-.078 3.432-.045.794-.185 1.579-.416 2.34-.144.576-.42 1.11-.806 1.56-.444.386-.968.67-1.534.832-.73.246-1.492.386-2.262.416-.8.035-1.909.052-3.328.052-.971 0-3.104-.087-6.4-.26l-.364-5.616c2.877.173 4.732.26 5.564.26.819.097 1.65-.01 2.418-.312.225-.208.338-.971.338-2.288v-9.1h-13.416c2.556 2.421 4.986 4.971 7.28 7.64zm47.268.728c-3.349-2.545-6.279-5.598-8.684-9.048h-4.316v10.976c4.576-.555 8.909-1.196 13-1.924zm6.4-2.86c2.058-1.917 3.97-3.986 5.72-6.188h-13.056c2.154 2.386 4.622 4.469 7.336 6.192zm14.66-11.852v5.668h-7.592l4.524 2.652c-1.86 2.318-3.875 4.507-6.032 6.552 3.079 1.414 6.26 2.596 9.516 3.536l-2.808 5.356c-6.496-1.713-12.615-4.622-18.044-8.58l.624 4.94c-8.769 1.629-17.623 2.757-26.52 3.38l-.676-5.668c2.011-.104 4.021-.26 6.032-.468v-11.7h-6.864v-5.668h6.864v-22.152h35.932v5.668h-29.016v2.392h27.456v4.524h-27.456v2.5h27.456v4.524h-27.456v2.548z" fill="#fff"/><g fill="#ff38a3"><path d="m954 506h26v1h-26z"/><path d="m954 510h26v1h-26z"/></g></g><g transform="translate(8009.054 21899.705)"><path d="m-7864.308-21885-.992-2.447h-5.83l-.99 2.447h-2.934l5.472-12.6h2.934l5.382 12.6zm-5.886-4.734h3.978l-1.984-4.896zm16.394-7.866c1.159-.062 2.309.232 3.294.846.774.508 1.23 1.379 1.206 2.305.012.633-.193 1.25-.581 1.75-.403.506-.964.863-1.593 1.016.752.121 1.436.506 1.926 1.09.476.594.724 1.338.7 2.1.035 1.014-.445 1.977-1.276 2.559-1.029.674-2.247 1.002-3.476.936h-5.992v-12.6h5.792zm-.14 5.077c.453.025.901-.104 1.269-.369.309-.252.479-.637.459-1.035.019-.391-.152-.766-.459-1.008-.37-.26-.819-.381-1.269-.342h-2.808v2.754zm0 5.199c.557.031 1.11-.109 1.584-.404.374-.25.591-.676.576-1.125.01-.438-.208-.846-.576-1.08-.476-.287-1.03-.418-1.584-.377h-2.808v2.988zm13.392-10.477c1.199-.014 2.382.277 3.438.848 1.009.541 1.852 1.348 2.439 2.33.595.996.904 2.139.891 3.301.013 1.164-.296 2.311-.891 3.311-.585.99-1.429 1.805-2.439 2.355-1.054.576-2.238.871-3.438.855-1.201.016-2.385-.279-3.438-.854-1.009-.549-1.852-1.359-2.439-2.346-.598-1.004-.906-2.152-.891-3.32-.013-1.162.295-2.305.891-3.301.585-.982 1.425-1.787 2.43-2.33 1.057-.573 2.245-.864 3.447-.849zm.036 2.485c-.684-.002-1.356.182-1.944.531-.594.348-1.085.848-1.422 1.449-.349.615-.529 1.311-.522 2.018-.008.713.175 1.416.531 2.035.342.6.832 1.102 1.422 1.457.582.357 1.252.543 1.935.541.675.004 1.337-.18 1.912-.531.583-.355 1.061-.859 1.386-1.459.344-.625.521-1.328.514-2.043.007-.705-.17-1.4-.513-2.016-.327-.596-.806-1.096-1.387-1.449-.575-.352-1.237-.535-1.912-.531zm11.592 5.117c-.042.785.233 1.553.765 2.133.542.535 1.282.818 2.043.783.74.035 1.46-.248 1.98-.775.519-.588.784-1.357.738-2.141v-7.4h2.844v7.4c.025.998-.208 1.986-.675 2.871-.443.803-1.118 1.453-1.935 1.869-.922.457-1.941.684-2.97.658-1.034.025-2.059-.201-2.988-.656-.827-.414-1.51-1.066-1.962-1.873-.473-.881-.709-1.871-.684-2.869v-7.4h2.844zm10.044-7.401h10.53v2.412h-3.854v10.188h-2.842v-10.188h-3.834zm28.4.018h7.884v1.115h-6.638v4.844h5.922v1.115h-5.922v5.508h-1.242zm10.44 0h8.424v1.115h-7.178v4.5h6.426v1.117h-6.426v4.734h7.416v1.115h-8.658zm21.46 12.582-1.494-3.348h-6.984l-1.476 3.348h-1.332l5.67-12.582h1.3l5.666 12.582zm-7.992-4.465h6.012l-3.024-6.799zm8.82-8.135h9.558v1.133h-4.158v11.467h-1.242v-11.467h-4.158zm13.048 7.489c-.067 1.107.312 2.197 1.053 3.023.782.75 1.842 1.143 2.925 1.08 1.081.064 2.138-.328 2.916-1.08.736-.83 1.112-1.918 1.044-3.023v-7.488h1.242v7.488c.082 1.412-.416 2.795-1.377 3.834-1.03.967-2.413 1.467-3.823 1.385-1.414.082-2.799-.42-3.834-1.385-.966-1.035-1.467-2.422-1.386-3.834v-7.488h1.24zm21.512 5.111-2.718-4.1c-.384.023-.678.035-.882.035h-3.456v4.064h-1.242v-12.582h4.7c1.306-.084 2.599.303 3.645 1.09.88.775 1.355 1.914 1.287 3.086.034.93-.231 1.844-.756 2.609-.534.717-1.296 1.232-2.16 1.459l3.022 4.338h-1.44zm-3.6-5.184c.992.064 1.974-.225 2.772-.816.671-.598 1.029-1.471.972-2.367.055-.877-.305-1.729-.972-2.299-.805-.576-1.784-.857-2.772-.793h-3.456v6.281zm8.676-7.4h8.424v1.115h-7.182v4.5h6.426v1.119h-6.426v4.734h7.416v1.115h-8.658zm19.044 2.053c-.526-.328-1.095-.58-1.692-.748-.562-.166-1.143-.254-1.728-.26-.729-.035-1.451.143-2.079.512-.495.291-.794.826-.783 1.4-.02.459.135.91.432 1.26.294.328.657.59 1.062.766.564.238 1.141.445 1.728.621.705.197 1.393.447 2.061.746.522.246.979.613 1.332 1.072.388.537.581 1.191.549 1.854.01.639-.189 1.266-.567 1.781-.409.541-.96.957-1.593 1.201-.75.291-1.549.432-2.354.416-.881 0-1.753-.178-2.565-.521-.797-.324-1.526-.795-2.151-1.387l.576-1.025c.565.555 1.231.996 1.962 1.299.694.303 1.443.463 2.2.469.804.043 1.602-.162 2.286-.584.538-.342.858-.939.846-1.576.021-.471-.133-.934-.432-1.299-.289-.338-.653-.604-1.062-.775-.42-.18-1.008-.389-1.764-.629-.698-.209-1.383-.457-2.052-.748-.517-.234-.968-.594-1.314-1.043-.38-.525-.57-1.162-.54-1.809-.011-.604.179-1.191.54-1.676.391-.502.915-.885 1.512-1.105.719-.271 1.482-.402 2.25-.387.698.002 1.393.104 2.061.305.644.184 1.259.457 1.827.811zm14.976-2.16c1.156-.012 2.294.283 3.3.854.985.551 1.81 1.35 2.392 2.316.585.963.891 2.072.882 3.199.008 1.135-.297 2.25-.882 3.223-.578.975-1.4 1.781-2.385 2.34-1.003.576-2.143.875-3.3.863-1.157.012-2.296-.287-3.3-.863-.989-.559-1.814-1.365-2.395-2.34-.585-.973-.89-2.088-.882-3.223-.009-1.127.297-2.236.882-3.199.581-.965 1.402-1.762 2.385-2.314 1.006-.57 2.146-.865 3.303-.854zm.018 1.115c-.934-.008-1.854.234-2.664.699-.804.457-1.474 1.115-1.944 1.908-.479.801-.728 1.715-.72 2.646-.006.938.243 1.857.72 2.664.468.805 1.138 1.471 1.944 1.936.808.471 1.728.717 2.664.711.927.006 1.838-.24 2.637-.711.802-.465 1.47-1.131 1.937-1.932.478-.807.726-1.727.72-2.664.007-.932-.242-1.846-.72-2.646-.469-.793-1.136-1.449-1.935-1.906-.801-.467-1.712-.709-2.639-.703zm9.648-1.008h7.884v1.115h-6.642v4.842h5.922v1.117h-5.922v5.51h-1.242z" fill="#fff"/><g fill="#ff38a3"><path d="m-7800.822-21899.705h.972v16.92h-.972zm140.364 2.105h9.558v1.133h-4.158v11.467h-1.242v-11.467h-4.158zm12.1.018h1.242v5.76h7.866v-5.76h1.242v12.582h-1.242v-5.705h-7.87v5.705h-1.242zm14.67 0h8.424v1.115h-7.186v4.5h6.426v1.117h-6.426v4.734h7.416v1.115h-8.658zm15.516 0h1.332l4.482 11.215 4.458-11.215h1.314l-5.164 12.582h-1.3zm22.64 12.582-1.494-3.348h-6.984l-1.476 3.348h-1.332l5.67-12.582h1.3l5.666 12.582zm-7.992-4.465h6.012l-3.024-6.799zm20.9-8.117h1.224v12.582h-1.314l-7.796-10.656v10.656h-1.242v-12.582h1.314l7.812 10.656zm3.78-.018h9.558v1.133h-4.158v11.467h-1.242v-11.467h-4.158zm20.32 12.6-1.494-3.348h-6.982l-1.478 3.348h-1.332l5.67-12.582h1.3l5.666 12.582zm-7.992-4.465h6.016l-3.024-6.799zm20.9-8.117h1.224v12.582h-1.314l-7.794-10.656v10.656h-1.242v-12.582h1.314l7.812 10.656zm19.71 6.426h1.1v4.607c-.633.529-1.355.941-2.133 1.217-.793.291-1.63.439-2.475.439-1.153.01-2.287-.287-3.286-.863-.985-.559-1.807-1.365-2.385-2.34-.585-.973-.89-2.088-.882-3.223-.009-1.127.296-2.236.882-3.199.583-.969 1.411-1.766 2.4-2.312 1.014-.57 2.158-.865 3.321-.855.845-.002 1.684.15 2.475.449.776.287 1.493.715 2.115 1.26l-.72.883c-.517-.48-1.122-.857-1.782-1.107-.666-.256-1.374-.389-2.088-.387-.941-.008-1.868.238-2.682.711-.803.461-1.472 1.121-1.944 1.916-.479.801-.728 1.715-.72 2.646-.009.941.24 1.865.72 2.674.472.801 1.145 1.465 1.953 1.926.817.473 1.747.719 2.691.711.609-.002 1.214-.104 1.791-.301.588-.193 1.143-.477 1.647-.836zm14.506 6.156-1.494-3.348h-6.984l-1.476 3.348h-1.332l5.67-12.582h1.3l5.666 12.582zm-7.992-4.465h6.012l-3.024-6.799zm11.772-8.135h1.548l4.932 9.449 4.878-9.449h1.548v12.6h-1.152l-.018-10.871-4.932 9.521h-.684l-4.95-9.521v10.871h-1.17zm17.226.018h8.424v1.115h-7.182v4.5h6.426v1.117h-6.426v4.734h7.416v1.115h-8.658zm26.766 12.582-1.494-3.348h-6.984l-1.476 3.348h-1.332l5.67-12.582h1.3l5.666 12.582zm-7.992-4.465h6.012l-3.024-6.799zm20.61-5.56c-.503-.492-1.096-.883-1.746-1.152-.649-.273-1.347-.414-2.052-.414-.938-.01-1.86.232-2.673.699-.8.459-1.464 1.119-1.926 1.918-.472.805-.718 1.721-.711 2.654-.008.93.238 1.846.711 2.646.465.795 1.129 1.455 1.926 1.916.811.475 1.734.721 2.673.711.698 0 1.389-.137 2.034-.404.651-.264 1.249-.646 1.764-1.125l.756.811c-.629.578-1.356 1.041-2.146 1.365-.78.33-1.619.5-2.466.5-1.149.01-2.281-.287-3.276-.863-.979-.561-1.796-1.367-2.367-2.34-.58-.975-.881-2.09-.873-3.223-.009-1.127.296-2.236.882-3.199.581-.965 1.403-1.764 2.385-2.314 1-.568 2.133-.863 3.285-.854.845-.002 1.683.16 2.466.477.773.307 1.481.754 2.088 1.322zm13.176 10.025-1.494-3.348h-6.984l-1.476 3.348h-1.332l5.67-12.582h1.3l5.666 12.582zm-7.992-4.465h6.012l-3.024-6.799zm16.826-8.117c1.148-.014 2.28.271 3.285.828.971.533 1.78 1.32 2.34 2.277.57.967.866 2.072.855 3.195.012 1.119-.284 2.221-.855 3.186-.563.953-1.373 1.736-2.345 2.268-1.014.557-2.155.842-3.312.828h-5.022v-12.582zm.036 11.467c.916.008 1.816-.229 2.61-.686.78-.443 1.429-1.086 1.881-1.861.464-.795.704-1.699.693-2.619.01-.924-.232-1.832-.7-2.629-.457-.781-1.112-1.426-1.9-1.871-.803-.459-1.713-.693-2.637-.686h-3.8v10.352zm9.54-11.467h8.424v1.115h-7.182v4.5h6.426v1.117h-6.426v4.734h7.416v1.115h-8.654zm12.06-.018h1.548l4.932 9.449 4.884-9.449h1.548v12.6h-1.152l-.018-10.871-4.934 9.521h-.684l-4.95-9.521v10.871h-1.17zm26.334.018-4.842 8.1v4.482h-1.238v-4.482l-4.914-8.1h1.3l4.248 6.768 4.158-6.768z"/><path d="m-7874-21875h26v1h-26z"/></g></g></svg>