<svg xmlns="http://www.w3.org/2000/svg" xmlns:xlink="http://www.w3.org/1999/xlink" width="800" height="600" viewBox="0 0 800 600"><defs><clipPath id="a"><rect width="800" height="600"/></clipPath><clipPath id="b"><path d="M0,0H317.42V43.66H0Z"/></clipPath><clipPath id="c"><path d="M0,0H228.48V33.6H0Z"/></clipPath></defs><g clip-path="url(#a)"><g transform="translate(397.416 326)"><path d="M9.65-44.61h15.2v9.04q-8.82,3.12-13.68,9.12A21.253,21.253,0,0,0,6.31-12.69q0,6.765,4.03,10.75T21.05,2.05q9.81,0,19-7.71T54.49-27.13q5.55,3.195,5.55,10.18a11.906,11.906,0,0,1-4.07,8.82,21.981,21.981,0,0,1-10.9,5.32l2.58,8.66Q57.835,3.87,63.76-2.24a20.351,20.351,0,0,0,5.93-14.71q0-9.87-7.14-15.58t-20.22-5.7a68.2,68.2,0,0,0-8.13.46v-6.84H66.35v-8.06H34.2v-8.66H24.85v8.66H9.65ZM34.2-12.24V-28.96a46.422,46.422,0,0,1,8.13-.68q1.29,0,3.42.15A44.914,44.914,0,0,1,34.2-12.24ZM24.85-6.92a11.86,11.86,0,0,1-2.81.31,5.612,5.612,0,0,1-4.48-1.83,7.675,7.675,0,0,1-1.6-5.24q0-7.455,8.89-12.16Z" transform="translate(-228)" fill="#fff"/><path d="M57.27-28.96a119.29,119.29,0,0,1,2.54,24.4H69.92q0-28.275-10.41-49.25l-9.35,2.74A104.6,104.6,0,0,1,57.27-28.96ZM11.63-53.28A90.321,90.321,0,0,0,7.83-26.6q0,12.54,5.51,21.36,5.505,8.8,11.97,8.81,5.4,0,11.32-6.23t9.73-17.25l-8.89-3.42a54.537,54.537,0,0,1-6.31,12.39c-2.13,2.88-3.83,4.33-5.09,4.33-1.78,0-3.56-1.93-5.36-5.78a33.45,33.45,0,0,1-2.7-14.21,91,91,0,0,1,3.5-25.54Z" transform="translate(-152)" fill="#fff"/><path d="M22.04-43.09a131.311,131.311,0,0,1-8.36,20.9l8.74,3.65a36.242,36.242,0,0,1,20.14-6.31q11.925,0,11.93,8.66,0,5.175-4.86,8.29T36.48-4.79a82.019,82.019,0,0,1-17.4-2.05L17.4,1.75A89.393,89.393,0,0,0,36.48,3.8q12.84,0,20.48-5.36T64.6-15.73q0-8.52-5.51-13.11t-16-4.6a42.98,42.98,0,0,0-15.58,3.19l-.07-.15a109.5,109.5,0,0,0,4.33-12.69H68.63v-8.59H33.82c.56-2.89,1.01-5.83,1.37-8.82l-9.58-.6c-.56,4-1.06,7.14-1.52,9.42H7.37v8.59Z" transform="translate(-76)" fill="#fff"/><path d="M37.77-41.65A25.952,25.952,0,0,0,20.82-29.87h-.07V-42.26H12.46V-6.08h8.06q0-10.41,4.79-17.71a21.531,21.531,0,0,1,12.46-9.42V-15.2a19.475,19.475,0,0,1-8.13-5.4l-4.79,6.46a24.666,24.666,0,0,0,11.02,7q-2.055,3.42-8.21,5.7l4.26,7.06A26.517,26.517,0,0,0,40.74.99a15.622,15.622,0,0,0,4.63-7.15q9.51-.45,14.48-5.01t4.98-13q0-8.2-4.6-12.73T46.82-42.1v-6.39H37.77ZM55.86-24.17q0,8.37-9.12,9.65c0-.25.01-.68.04-1.29s.04-1.06.04-1.37V-33.82Q55.865-32.53,55.86-24.17Z" fill="#fff"/><path d="M41.19-31.31q-7.905-6.54-16.87-6.54-13.065,0-21.13,11.48l7.45,6.76a27.76,27.76,0,0,1,6.88-6.53,13.056,13.056,0,0,1,6.8-1.83q5.085,0,10.49,4.56,7.905,6.54,16.87,6.54,13.065,0,21.13-11.48l-7.6-6.69a27.545,27.545,0,0,1-6.77,6.46,12.838,12.838,0,0,1-6.76,1.83Q46.6-26.75,41.19-31.31Z" transform="translate(76)" fill="#fff"/><path d="M39.33-32.6A9.365,9.365,0,0,1,38-37.24c0-1.87,1-3.7,3-5.47a19.665,19.665,0,0,1,8.25-4.03v-8.44q3.795,6.915,5.62,10.57l7.83-3.73q-2.97-5.85-6.46-12.31l-7.75,3.88H15.96v8.66H34.43v.15q-7.065,5.625-7.07,11.71a14.182,14.182,0,0,0,1.67,6.57,34.277,34.277,0,0,0,5.63,7.41,36.647,36.647,0,0,1,5.24,6.58,10.313,10.313,0,0,1,1.37,5.05A6.076,6.076,0,0,1,38.95-5.7a9.215,9.215,0,0,1-6.04,1.9q-3.12,0-9.96-2.89L19.61,1.75A27.837,27.837,0,0,0,33.44,5.32q8.505,0,13.64-4.33a14.453,14.453,0,0,0,5.13-11.63,15.307,15.307,0,0,0-1.75-7.07,44.434,44.434,0,0,0-6.23-8.51A42.075,42.075,0,0,1,39.33-32.6ZM68.25-63.69l-7.98,4.03q3.2,5.7,6.61,12.31l7.98-3.8Q70.99-58.74,68.25-63.69ZM64.83-3.72l8.89-2.66a152.908,152.908,0,0,0-11.7-27.21L53.5-29.72A126.456,126.456,0,0,1,64.83-3.72ZM1.29-6.69l8.59,3.5A136.838,136.838,0,0,0,20.52-30.32L11.4-32.53A140.767,140.767,0,0,1,1.29-6.69Z" transform="translate(152)" fill="#fff"/></g><g transform="translate(307.304 343.1)" opacity="0.998" clip-path="url(#b)"><g transform="translate(0 25.96)"><path d="M6.053-3.292l.389-.389C7.67-4.932,8.59-5.888,9.216-6.537s1.2-1.333,1.735-2.006a12.2,12.2,0,0,0,1.64-2.466,5.079,5.079,0,0,0,.543-2.23,4.726,4.726,0,0,0-.743-2.6,5.122,5.122,0,0,0-2.1-1.853,6.981,6.981,0,0,0-3.2-.7,7.685,7.685,0,0,0-3.009.578,5.077,5.077,0,0,0-2.136,1.652,4.5,4.5,0,0,0-.885,2.478v1.215a.322.322,0,0,0,.094.224.294.294,0,0,0,.224.083H4.437a.294.294,0,0,0,.224-.083.322.322,0,0,0,.094-.224v-.649A1.972,1.972,0,0,1,5.4-14.656a2.4,2.4,0,0,1,1.687-.578,2.443,2.443,0,0,1,1.687.578,1.946,1.946,0,0,1,.649,1.5q0,1.257-2.372,3.894c-.5.519-.991,1.062-1.475,1.628-.224.248-.779.85-1.664,1.829s-1.746,1.888-2.6,2.714a.525.525,0,0,0-.153.389v2.4a.3.3,0,0,0,.094.212A.3.3,0,0,0,1.475,0H13.157a.3.3,0,0,0,.224-.094.3.3,0,0,0,.094-.212V-2.832a.3.3,0,0,0-.094-.212.264.264,0,0,0-.224-.094H6.124A.124.124,0,0,1,6.018-3.2C6.006-3.233,6.018-3.257,6.053-3.292Z" fill="#ff38a3"/><path d="M7.375.283A6.318,6.318,0,0,0,11.906-1.31a5.75,5.75,0,0,0,1.676-4.354v-6.844a5.624,5.624,0,0,0-1.676-4.283,6.318,6.318,0,0,0-4.531-1.593,6.25,6.25,0,0,0-4.519,1.593,5.617,5.617,0,0,0-1.664,4.283v6.844A5.743,5.743,0,0,0,2.856-1.31,6.25,6.25,0,0,0,7.375.283Zm0-3.139a2.426,2.426,0,0,1-1.829-.708,2.662,2.662,0,0,1-.7-1.912v-7.139a2.624,2.624,0,0,1,.7-1.912,2.426,2.426,0,0,1,1.829-.708,2.463,2.463,0,0,1,1.853.708,2.618,2.618,0,0,1,.684,1.912v7.139a2.655,2.655,0,0,1-.684,1.912A2.463,2.463,0,0,1,7.375-2.856Z" transform="translate(15.057)" fill="#ff38a3"/><path d="M6.053-3.292l.389-.389C7.67-4.932,8.59-5.888,9.216-6.537s1.2-1.333,1.735-2.006a12.2,12.2,0,0,0,1.64-2.466,5.079,5.079,0,0,0,.543-2.23,4.726,4.726,0,0,0-.743-2.6,5.122,5.122,0,0,0-2.1-1.853,6.981,6.981,0,0,0-3.2-.7,7.685,7.685,0,0,0-3.009.578,5.077,5.077,0,0,0-2.136,1.652,4.5,4.5,0,0,0-.885,2.478v1.215a.322.322,0,0,0,.094.224.294.294,0,0,0,.224.083H4.437a.294.294,0,0,0,.224-.083.322.322,0,0,0,.094-.224v-.649A1.972,1.972,0,0,1,5.4-14.656a2.4,2.4,0,0,1,1.687-.578,2.443,2.443,0,0,1,1.687.578,1.946,1.946,0,0,1,.649,1.5q0,1.257-2.372,3.894c-.5.519-.991,1.062-1.475,1.628-.224.248-.779.85-1.664,1.829s-1.746,1.888-2.6,2.714a.525.525,0,0,0-.153.389v2.4a.3.3,0,0,0,.094.212A.3.3,0,0,0,1.475,0H13.157a.3.3,0,0,0,.224-.094.3.3,0,0,0,.094-.212V-2.832a.3.3,0,0,0-.094-.212.264.264,0,0,0-.224-.094H6.124A.124.124,0,0,1,6.018-3.2C6.006-3.233,6.018-3.257,6.053-3.292Z" transform="translate(30.373)" fill="#ff38a3"/><path d="M3.894-18.089,1.168-16.827a.385.385,0,0,0-.236.366l.083,2.23c0,.2.071.3.236.3l.094-.035,2.572-.7a.094.094,0,0,1,.106.024.144.144,0,0,1,.047.106V-.307a.3.3,0,0,0,.094.212A.3.3,0,0,0,4.39,0H7.422a.3.3,0,0,0,.224-.094.3.3,0,0,0,.094-.212V-17.865a.3.3,0,0,0-.094-.212.3.3,0,0,0-.224-.094H4.283A.683.683,0,0,0,3.894-18.089Z" transform="translate(45.43)" fill="#ff38a3"/></g><g transform="translate(54.983 25.96)"><path fill="#fff"/></g><g transform="translate(60.694 25.96)"><path d="M8,.13c4.519,0,6.584-2.242,6.584-4.838,0-6.643-11.422-3.4-11.422-8.885,0-2.018,1.593-3.658,5.157-3.658a9.109,9.109,0,0,1,5.015,1.534l.5-1.062a9.775,9.775,0,0,0-5.511-1.652c-4.508,0-6.49,2.277-6.49,4.862,0,6.75,11.422,3.457,11.422,8.944,0,1.982-1.617,3.575-5.275,3.575a8.673,8.673,0,0,1-6.042-2.3l-.6,1A9.392,9.392,0,0,0,8,.13Z" fill="#fff"/><path d="M6.691,0H8.024V-17.1h6.6v-1.2H.106v1.2H6.691Z" transform="translate(16.329)" fill="#fff"/><path d="M10.349.13C14.9.13,17.7-2.537,17.7-7.764V-18.3H16.367v10.49c0,4.567-2.171,6.714-5.983,6.714S4.366-3.245,4.366-7.812V-18.3H3.033V-7.764C3.033-2.537,5.806.13,10.349.13Z" transform="translate(31.723)" fill="#fff"/><path d="M3.186,0h7.245c5.806,0,9.723-3.811,9.723-9.145S16.237-18.3,10.431-18.3H3.186ZM4.519-1.2V-17.1h5.806c5.18,0,8.5,3.292,8.5,7.953S15.505-1.2,10.325-1.2Z" transform="translate(52.829)" fill="#fff"/><path d="M4.519-1.2v-7.5h9.759V-9.877H4.519V-17.1h10.9v-1.2H3.186V0H15.812V-1.2Z" transform="translate(74.791)" fill="#fff"/><path d="M16.756-18.3V-2.407L4.319-18.3H3.186V0H4.519V-15.895L16.992,0h1.1V-18.3Z" transform="translate(92.677)" fill="#fff"/><path d="M6.691,0H8.024V-17.1h6.6v-1.2H.106v1.2H6.691Z" transform="translate(114.328)" fill="#fff"/><path d="M8,.13c4.519,0,6.584-2.242,6.584-4.838,0-6.643-11.422-3.4-11.422-8.885,0-2.018,1.593-3.658,5.157-3.658a9.109,9.109,0,0,1,5.015,1.534l.5-1.062a9.775,9.775,0,0,0-5.511-1.652c-4.508,0-6.49,2.277-6.49,4.862,0,6.75,11.422,3.457,11.422,8.944,0,1.982-1.617,3.575-5.275,3.575a8.673,8.673,0,0,1-6.042-2.3l-.6,1A9.392,9.392,0,0,0,8,.13Z" transform="translate(129.722)" fill="#fff"/><path transform="translate(146.051)" fill="#fff"/><path d="M26.349-18.3l-5.617,16.5-5.7-16.5H13.747L8.024-1.829,2.454-18.3H1.05L7.269,0H8.685l5.7-16.414L20.048,0h1.416l6.195-18.3Z" transform="translate(153.242)" fill="#fff"/><path d="M10.95.13a9.161,9.161,0,0,0,9.523-9.275,9.171,9.171,0,0,0-9.523-9.287A9.161,9.161,0,0,0,1.44-9.145,9.158,9.158,0,0,0,10.95.13Zm0-1.227A7.907,7.907,0,0,1,2.773-9.145,7.909,7.909,0,0,1,10.95-17.2a7.906,7.906,0,0,1,8.166,8.059A7.9,7.9,0,0,1,10.95-1.1Z" transform="translate(182.265)" fill="#fff"/><path d="M17.417,0,12.838-6.407a5.607,5.607,0,0,0,4.283-5.723c0-3.87-2.773-6.171-7.375-6.171H3.186V0H4.519V-5.983H9.747a14.211,14.211,0,0,0,1.782-.13L15.895,0ZM4.519-7.163V-17.1H9.747c3.929,0,6.018,1.805,6.018,4.968,0,3.139-2.089,4.968-6.018,4.968Z" transform="translate(204.539)" fill="#fff"/><path d="M16.5,0h1.617l-8.6-9.983L17.57-18.3H15.954L4.519-6.537V-18.3H3.186V0H4.519V-4.814l4.106-4.2Z" transform="translate(223.749)" fill="#fff"/><path d="M8,.13c4.519,0,6.584-2.242,6.584-4.838,0-6.643-11.422-3.4-11.422-8.885,0-2.018,1.593-3.658,5.157-3.658a9.109,9.109,0,0,1,5.015,1.534l.5-1.062a9.775,9.775,0,0,0-5.511-1.652c-4.508,0-6.49,2.277-6.49,4.862,0,6.75,11.422,3.457,11.422,8.944,0,1.982-1.617,3.575-5.275,3.575a8.673,8.673,0,0,1-6.042-2.3l-.6,1A9.392,9.392,0,0,0,8,.13Z" transform="translate(242.518)" fill="#fff"/></g><g transform="translate(304.44 38.35)"><path d="M11.8-.59V.59H-11.8V-.59Z" fill="#ff38a3"/></g><g transform="translate(304.44 43.07)"><path d="M11.8-.59V.59H-11.8V-.59Z" fill="#ff38a3"/></g></g><g transform="translate(173.558 212.76)" opacity="0.998" clip-path="url(#c)"><g transform="translate(96.96 14.4)"><path d="M9.715-10.829,5.338-1.018.96-10.829H.1L4.915,0h.8l4.819-10.829Z" fill="#fff"/><path d="M9.974,0h.854L5.846-10.829H5.059L.077,0H.931L2.3-3.043H8.582ZM2.611-3.715l2.832-6.25,2.851,6.25Z" transform="translate(10.552)" fill="#fff"/><path d="M9.917-10.829v9.408L2.554-10.829H1.891V0h.787V-9.408L10.051,0H10.7V-10.829Z" transform="translate(21.458)" fill="#fff"/><path d="M3.955,0h.8V-10.118h3.9v-.71H.058v.71h3.9Z" transform="translate(33.961)" fill="#fff"/><path d="M9.974,0h.854L5.846-10.829H5.059L.077,0H.931L2.3-3.043H8.582ZM2.611-3.715l2.832-6.25,2.851,6.25Z" transform="translate(42.762)" fill="#fff"/><path d="M9.917-10.829v9.408L2.554-10.829H1.891V0h.787V-9.408L10.051,0H10.7V-10.829Z" transform="translate(53.668)" fill="#fff"/><path fill="#fff"/><path d="M9.619-1.642a4.736,4.736,0,0,1-3.072.989A4.718,4.718,0,0,1,1.642-5.414a4.707,4.707,0,0,1,4.906-4.762A4.56,4.56,0,0,1,9.926-8.9l.5-.518a5.3,5.3,0,0,0-3.9-1.488A5.417,5.417,0,0,0,.854-5.414,5.412,5.412,0,0,0,6.509.077a5.55,5.55,0,0,0,3.869-1.392V-5.366H9.619Z" transform="translate(0 16.32)" fill="#fff"/><path d="M9.974,0h.854L5.846-10.829H5.059L.077,0H.931L2.3-3.043H8.582ZM2.611-3.715l2.832-6.25,2.851,6.25Z" transform="translate(11.873 16.32)" fill="#fff"/><path d="M12.9,0l-.019-10.829H12.24L7.392-2.458,2.554-10.829H1.891V0h.768V-9.235L7.19-1.44h.394l4.531-7.824L12.125,0Z" transform="translate(22.779 16.32)" fill="#fff"/><path d="M2.678-.71V-5.155h5.77v-.691H2.678v-4.272H9.13v-.71H1.891V0H9.36V-.71Z" transform="translate(37.463 16.32)" fill="#fff"/><path transform="translate(47.739 16.32)" fill="#fff"/><path d="M9.974,0h.854L5.846-10.829H5.059L.077,0H.931L2.3-3.043H8.582ZM2.611-3.715l2.832-6.25,2.851,6.25Z" transform="translate(51.686 16.32)" fill="#fff"/><path d="M6.47.077A5.178,5.178,0,0,0,10.32-1.44l-.5-.509A4.528,4.528,0,0,1,6.5-.653,4.7,4.7,0,0,1,1.642-5.414,4.7,4.7,0,0,1,6.5-10.176,4.511,4.511,0,0,1,9.821-8.9l.5-.509a5.2,5.2,0,0,0-3.85-1.5A5.4,5.4,0,0,0,.854-5.414,5.4,5.4,0,0,0,6.47.077Z" transform="translate(62.592 16.32)" fill="#fff"/><path d="M9.974,0h.854L5.846-10.829H5.059L.077,0H.931L2.3-3.043H8.582ZM2.611-3.715l2.832-6.25,2.851,6.25Z" transform="translate(73.359 16.32)" fill="#fff"/><path d="M1.891,0H6.173c3.437,0,5.75-2.256,5.75-5.414s-2.314-5.414-5.75-5.414H1.891Zm.787-.71v-9.408H6.106c3.072,0,5.03,1.949,5.03,4.7S9.178-.71,6.106-.71Z" transform="translate(84.265 16.32)" fill="#fff"/><path d="M2.678-.71V-5.155h5.77v-.691H2.678v-4.272H9.13v-.71H1.891V0H9.36V-.71Z" transform="translate(96.952 16.32)" fill="#fff"/><path d="M12.9,0l-.019-10.829H12.24L7.392-2.458,2.554-10.829H1.891V0h.768V-9.235L7.19-1.44h.394l4.531-7.824L12.125,0Z" transform="translate(107.228 16.32)" fill="#fff"/><path d="M9.59-10.829H8.774L4.858-4.454.941-10.829H.077l4.358,7.1V0h.8V-3.725Z" transform="translate(121.912 16.32)" fill="#fff"/></g><g transform="translate(-0.001 1.92)"><path d="M73.531,7.863,65.507,28.283H58.035L70,.435h7.472L89.143,28.283H81.4Zm-23.676,6.2h6.276V25.143a18.553,18.553,0,0,1-5.462,2.642A20.561,20.561,0,0,1,44.533,28.8a15.389,15.389,0,0,1-7.607-1.891,13.955,13.955,0,0,1-5.345-5.179,14.261,14.261,0,0,1-1.946-7.389,13.763,13.763,0,0,1,2.005-7.33,14.079,14.079,0,0,1,5.522-5.144A16.468,16.468,0,0,1,45.007,0a17.971,17.971,0,0,1,6.2,1.135,16.128,16.128,0,0,1,5.247,3.033L52.318,9.253A11.613,11.613,0,0,0,48.842,6.99a9.887,9.887,0,0,0-3.878-.834,7.644,7.644,0,0,0-4.012,1.072,7.73,7.73,0,0,0-2.82,2.94A8.473,8.473,0,0,0,37.1,14.339a8.659,8.659,0,0,0,1.033,4.231A7.593,7.593,0,0,0,41,21.529,7.853,7.853,0,0,0,45.048,22.6a10.993,10.993,0,0,0,4.807-1.351ZM0,.435H7.826l6.951,20.141L21.769.435h7.473L18.353,28.283H10.8Z" fill="#fff"/></g><g transform="translate(169.92 10.08)"><path d="M4.8-.48V.48H-4.8V-.48Z" fill="#ff38a3"/></g><g transform="translate(169.92 7.2)"><path d="M4.8-.48V.48H-4.8V-.48Z" fill="#ff38a3"/></g></g></g></svg>