<svg xmlns="http://www.w3.org/2000/svg" xmlns:xlink="http://www.w3.org/1999/xlink" width="800" height="600" viewBox="0 0 800 600"><defs><clipPath id="a"><rect width="800" height="600"/></clipPath><clipPath id="b"><path d="M0,0H317.42V43.66H0Z"/></clipPath><clipPath id="c"><path d="M0,0H228.48V33.6H0Z"/></clipPath></defs><g clip-path="url(#a)"><g transform="translate(399.305 326.623)"><path d="M7.76,0H18.5V-57.81H7.76Z" transform="translate(-337.43)" fill="#fff"/><path d="M62.43-44.59c-7.02,0-12.96,2.8-16.51,7.35-3.06-4.96-8.43-7.35-14.87-7.35-6.03,0-11.15,2.14-14.45,6.11V-44.1H6.77V0H17.09V-22.38c0-8.75,4.63-13.21,11.48-13.21,6.28,0,9.91,3.8,9.91,11.64V0H48.8V-22.38c0-8.75,4.71-13.21,11.48-13.21,6.28,0,9.91,3.8,9.91,11.64V0H80.52V-25.27C80.52-38.57,73.08-44.59,62.43-44.59Z" transform="translate(-311.272)" fill="#fff"/><path d="M31.22-44.59c-6.03,0-11.15,2.06-14.62,6.27V-44.1H6.77V16.02H17.09V-5.37C20.65-1.32,25.6.58,31.22.58,44.1.58,53.59-8.34,53.59-22.05,53.59-35.67,44.1-44.59,31.22-44.59ZM30.06-8.26c-7.43,0-13.13-5.37-13.13-13.79s5.7-13.79,13.13-13.79,13.05,5.37,13.05,13.79S37.49-8.26,30.06-8.26Z" transform="translate(-224.926)" fill="#fff"/><path d="M48.23-21.8c0-13.79-9.42-22.79-22.3-22.79-13.13,0-22.79,9.41-22.79,22.54S12.72.58,27.5.58c7.6,0,13.79-2.48,17.75-7.19l-5.53-6.36A15.77,15.77,0,0,1,27.75-8.18c-7.68,0-13.05-4.12-14.29-10.57h34.6C48.14-19.74,48.23-20.98,48.23-21.8ZM25.93-36.34c6.77,0,11.64,4.38,12.47,10.74H13.38A12.189,12.189,0,0,1,25.93-36.34Z" transform="translate(-168.674)" fill="#fff"/><path d="M16.6-37.66V-44.1H6.77V0H17.09V-21.39c0-9,4.96-13.62,12.8-13.62a13.521,13.521,0,0,1,2.4.24v-9.82C24.94-44.59,19.57-42.28,16.6-37.66Z" transform="translate(-117.67)" fill="#fff"/><path d="M11.97-51.36a6.339,6.339,0,0,0,6.61-6.45c0-3.38-2.81-5.94-6.61-5.94a6.283,6.283,0,0,0-6.6,6.19A6.291,6.291,0,0,0,11.97-51.36ZM6.77,0H17.09V-44.1H6.77Z" transform="translate(-83.64)" fill="#fff"/><path d="M23.62-44.59c-7.1,0-13.96,1.81-18.67,5.45L9-31.63a21.854,21.854,0,0,1,13.38-4.38c7.35,0,10.98,3.56,10.98,9.58v.66H21.97c-13.38,0-18.34,5.79-18.34,13.14C3.63-4.95,9.99.58,20.07.58c6.6,0,11.39-2.15,13.87-5.95V0h9.75V-25.85C43.69-38.57,36.34-44.59,23.62-44.59ZM22.21-6.94c-5.28,0-8.42-2.39-8.42-6.11,0-3.22,1.9-5.86,8.92-5.86H33.36v5.12C31.63-9.25,27.25-6.94,22.21-6.94Z" transform="translate(-59.942)" fill="#fff"/><path d="M6.77,0H17.09V-61.27H6.77Z" transform="translate(-10.168)" fill="#fff"/><path transform="translate(13.53)" fill="#fff"/><path d="M82-57.81,67.22-13.63,52.6-57.81H42.69L27.75-13.87,13.38-57.81H2.23L21.39,0H32.87L47.4-42.78,61.69,0H73.08L92.24-57.81Z" transform="translate(36.162)" fill="#fff"/><path d="M11.97-51.36a6.339,6.339,0,0,0,6.61-6.45c0-3.38-2.81-5.94-6.61-5.94a6.283,6.283,0,0,0-6.6,6.19A6.291,6.291,0,0,0,11.97-51.36ZM6.77,0H17.09V-44.1H6.77Z" transform="translate(129.97)" fill="#fff"/><path d="M16.27-8.26,40.55-37.57V-44.1H3.63v8.26h23.7L3.14-6.52V0H41.21V-8.26Z" transform="translate(153.668)" fill="#fff"/><path d="M23.62-44.59c-7.1,0-13.96,1.81-18.67,5.45L9-31.63a21.854,21.854,0,0,1,13.38-4.38c7.35,0,10.98,3.56,10.98,9.58v.66H21.97c-13.38,0-18.34,5.79-18.34,13.14C3.63-4.95,9.99.58,20.07.58c6.6,0,11.39-2.15,13.87-5.95V0h9.75V-25.85C43.69-38.57,36.34-44.59,23.62-44.59ZM22.21-6.94c-5.28,0-8.42-2.39-8.42-6.11,0-3.22,1.9-5.86,8.92-5.86H33.36v5.12C31.63-9.25,27.25-6.94,22.21-6.94Z" transform="translate(197.292)" fill="#fff"/><path d="M16.6-37.66V-44.1H6.77V0H17.09V-21.39c0-9,4.96-13.62,12.8-13.62a13.521,13.521,0,0,1,2.4.24v-9.82C24.94-44.59,19.57-42.28,16.6-37.66Z" transform="translate(247.066)" fill="#fff"/><path d="M39.64-61.27v22.62c-3.47-4.04-8.51-5.94-14.21-5.94-12.8,0-22.29,8.83-22.29,22.54S12.63.58,25.43.58c6.03,0,11.15-2.07,14.62-6.28V0h9.91V-61.27ZM26.67-8.26c-7.43,0-13.13-5.37-13.13-13.79s5.7-13.79,13.13-13.79S39.8-30.47,39.8-22.05,34.11-8.26,26.67-8.26Z" transform="translate(281.096)" fill="#fff"/></g><g transform="translate(414.304 343.1)" opacity="0.998" clip-path="url(#b)"><g transform="translate(0 25.96)"><path d="M6.053-3.292l.389-.389C7.67-4.932,8.59-5.888,9.216-6.537s1.2-1.333,1.735-2.006a12.2,12.2,0,0,0,1.64-2.466,5.079,5.079,0,0,0,.543-2.23,4.726,4.726,0,0,0-.743-2.6,5.122,5.122,0,0,0-2.1-1.853,6.981,6.981,0,0,0-3.2-.7,7.685,7.685,0,0,0-3.009.578,5.077,5.077,0,0,0-2.136,1.652,4.5,4.5,0,0,0-.885,2.478v1.215a.322.322,0,0,0,.094.224.294.294,0,0,0,.224.083H4.437a.294.294,0,0,0,.224-.083.322.322,0,0,0,.094-.224v-.649A1.972,1.972,0,0,1,5.4-14.656a2.4,2.4,0,0,1,1.687-.578,2.443,2.443,0,0,1,1.687.578,1.946,1.946,0,0,1,.649,1.5q0,1.257-2.372,3.894c-.5.519-.991,1.062-1.475,1.628-.224.248-.779.85-1.664,1.829s-1.746,1.888-2.6,2.714a.525.525,0,0,0-.153.389v2.4a.3.3,0,0,0,.094.212A.3.3,0,0,0,1.475,0H13.157a.3.3,0,0,0,.224-.094.3.3,0,0,0,.094-.212V-2.832a.3.3,0,0,0-.094-.212.264.264,0,0,0-.224-.094H6.124A.124.124,0,0,1,6.018-3.2C6.006-3.233,6.018-3.257,6.053-3.292Z" fill="#ff38a3"/><path d="M7.375.283A6.318,6.318,0,0,0,11.906-1.31a5.75,5.75,0,0,0,1.676-4.354v-6.844a5.624,5.624,0,0,0-1.676-4.283,6.318,6.318,0,0,0-4.531-1.593,6.25,6.25,0,0,0-4.519,1.593,5.617,5.617,0,0,0-1.664,4.283v6.844A5.743,5.743,0,0,0,2.856-1.31,6.25,6.25,0,0,0,7.375.283Zm0-3.139a2.426,2.426,0,0,1-1.829-.708,2.662,2.662,0,0,1-.7-1.912v-7.139a2.624,2.624,0,0,1,.7-1.912,2.426,2.426,0,0,1,1.829-.708,2.463,2.463,0,0,1,1.853.708,2.618,2.618,0,0,1,.684,1.912v7.139a2.655,2.655,0,0,1-.684,1.912A2.463,2.463,0,0,1,7.375-2.856Z" transform="translate(15.057)" fill="#ff38a3"/><path d="M6.053-3.292l.389-.389C7.67-4.932,8.59-5.888,9.216-6.537s1.2-1.333,1.735-2.006a12.2,12.2,0,0,0,1.64-2.466,5.079,5.079,0,0,0,.543-2.23,4.726,4.726,0,0,0-.743-2.6,5.122,5.122,0,0,0-2.1-1.853,6.981,6.981,0,0,0-3.2-.7,7.685,7.685,0,0,0-3.009.578,5.077,5.077,0,0,0-2.136,1.652,4.5,4.5,0,0,0-.885,2.478v1.215a.322.322,0,0,0,.094.224.294.294,0,0,0,.224.083H4.437a.294.294,0,0,0,.224-.083.322.322,0,0,0,.094-.224v-.649A1.972,1.972,0,0,1,5.4-14.656a2.4,2.4,0,0,1,1.687-.578,2.443,2.443,0,0,1,1.687.578,1.946,1.946,0,0,1,.649,1.5q0,1.257-2.372,3.894c-.5.519-.991,1.062-1.475,1.628-.224.248-.779.85-1.664,1.829s-1.746,1.888-2.6,2.714a.525.525,0,0,0-.153.389v2.4a.3.3,0,0,0,.094.212A.3.3,0,0,0,1.475,0H13.157a.3.3,0,0,0,.224-.094.3.3,0,0,0,.094-.212V-2.832a.3.3,0,0,0-.094-.212.264.264,0,0,0-.224-.094H6.124A.124.124,0,0,1,6.018-3.2C6.006-3.233,6.018-3.257,6.053-3.292Z" transform="translate(30.373)" fill="#ff38a3"/><path d="M3.894-18.089,1.168-16.827a.385.385,0,0,0-.236.366l.083,2.23c0,.2.071.3.236.3l.094-.035,2.572-.7a.094.094,0,0,1,.106.024.144.144,0,0,1,.047.106V-.307a.3.3,0,0,0,.094.212A.3.3,0,0,0,4.39,0H7.422a.3.3,0,0,0,.224-.094.3.3,0,0,0,.094-.212V-17.865a.3.3,0,0,0-.094-.212.3.3,0,0,0-.224-.094H4.283A.683.683,0,0,0,3.894-18.089Z" transform="translate(45.43)" fill="#ff38a3"/></g><g transform="translate(54.983 25.96)"><path fill="#fff"/></g><g transform="translate(60.694 25.96)"><path d="M8,.13c4.519,0,6.584-2.242,6.584-4.838,0-6.643-11.422-3.4-11.422-8.885,0-2.018,1.593-3.658,5.157-3.658a9.109,9.109,0,0,1,5.015,1.534l.5-1.062a9.775,9.775,0,0,0-5.511-1.652c-4.508,0-6.49,2.277-6.49,4.862,0,6.75,11.422,3.457,11.422,8.944,0,1.982-1.617,3.575-5.275,3.575a8.673,8.673,0,0,1-6.042-2.3l-.6,1A9.392,9.392,0,0,0,8,.13Z" fill="#fff"/><path d="M6.691,0H8.024V-17.1h6.6v-1.2H.106v1.2H6.691Z" transform="translate(16.329)" fill="#fff"/><path d="M10.349.13C14.9.13,17.7-2.537,17.7-7.764V-18.3H16.367v10.49c0,4.567-2.171,6.714-5.983,6.714S4.366-3.245,4.366-7.812V-18.3H3.033V-7.764C3.033-2.537,5.806.13,10.349.13Z" transform="translate(31.723)" fill="#fff"/><path d="M3.186,0h7.245c5.806,0,9.723-3.811,9.723-9.145S16.237-18.3,10.431-18.3H3.186ZM4.519-1.2V-17.1h5.806c5.18,0,8.5,3.292,8.5,7.953S15.505-1.2,10.325-1.2Z" transform="translate(52.829)" fill="#fff"/><path d="M4.519-1.2v-7.5h9.759V-9.877H4.519V-17.1h10.9v-1.2H3.186V0H15.812V-1.2Z" transform="translate(74.791)" fill="#fff"/><path d="M16.756-18.3V-2.407L4.319-18.3H3.186V0H4.519V-15.895L16.992,0h1.1V-18.3Z" transform="translate(92.677)" fill="#fff"/><path d="M6.691,0H8.024V-17.1h6.6v-1.2H.106v1.2H6.691Z" transform="translate(114.328)" fill="#fff"/><path d="M8,.13c4.519,0,6.584-2.242,6.584-4.838,0-6.643-11.422-3.4-11.422-8.885,0-2.018,1.593-3.658,5.157-3.658a9.109,9.109,0,0,1,5.015,1.534l.5-1.062a9.775,9.775,0,0,0-5.511-1.652c-4.508,0-6.49,2.277-6.49,4.862,0,6.75,11.422,3.457,11.422,8.944,0,1.982-1.617,3.575-5.275,3.575a8.673,8.673,0,0,1-6.042-2.3l-.6,1A9.392,9.392,0,0,0,8,.13Z" transform="translate(129.722)" fill="#fff"/><path transform="translate(146.051)" fill="#fff"/><path d="M26.349-18.3l-5.617,16.5-5.7-16.5H13.747L8.024-1.829,2.454-18.3H1.05L7.269,0H8.685l5.7-16.414L20.048,0h1.416l6.195-18.3Z" transform="translate(153.242)" fill="#fff"/><path d="M10.95.13a9.161,9.161,0,0,0,9.523-9.275,9.171,9.171,0,0,0-9.523-9.287A9.161,9.161,0,0,0,1.44-9.145,9.158,9.158,0,0,0,10.95.13Zm0-1.227A7.907,7.907,0,0,1,2.773-9.145,7.909,7.909,0,0,1,10.95-17.2a7.906,7.906,0,0,1,8.166,8.059A7.9,7.9,0,0,1,10.95-1.1Z" transform="translate(182.265)" fill="#fff"/><path d="M17.417,0,12.838-6.407a5.607,5.607,0,0,0,4.283-5.723c0-3.87-2.773-6.171-7.375-6.171H3.186V0H4.519V-5.983H9.747a14.211,14.211,0,0,0,1.782-.13L15.895,0ZM4.519-7.163V-17.1H9.747c3.929,0,6.018,1.805,6.018,4.968,0,3.139-2.089,4.968-6.018,4.968Z" transform="translate(204.539)" fill="#fff"/><path d="M16.5,0h1.617l-8.6-9.983L17.57-18.3H15.954L4.519-6.537V-18.3H3.186V0H4.519V-4.814l4.106-4.2Z" transform="translate(223.749)" fill="#fff"/><path d="M8,.13c4.519,0,6.584-2.242,6.584-4.838,0-6.643-11.422-3.4-11.422-8.885,0-2.018,1.593-3.658,5.157-3.658a9.109,9.109,0,0,1,5.015,1.534l.5-1.062a9.775,9.775,0,0,0-5.511-1.652c-4.508,0-6.49,2.277-6.49,4.862,0,6.75,11.422,3.457,11.422,8.944,0,1.982-1.617,3.575-5.275,3.575a8.673,8.673,0,0,1-6.042-2.3l-.6,1A9.392,9.392,0,0,0,8,.13Z" transform="translate(242.518)" fill="#fff"/></g><g transform="translate(304.44 38.35)"><path d="M11.8-.59V.59H-11.8V-.59Z" fill="#ff38a3"/></g><g transform="translate(304.44 43.07)"><path d="M11.8-.59V.59H-11.8V-.59Z" fill="#ff38a3"/></g></g><g transform="translate(66.558 212.76)" opacity="0.998" clip-path="url(#c)"><g transform="translate(96.96 14.4)"><path d="M9.715-10.829,5.338-1.018.96-10.829H.1L4.915,0h.8l4.819-10.829Z" fill="#fff"/><path d="M9.974,0h.854L5.846-10.829H5.059L.077,0H.931L2.3-3.043H8.582ZM2.611-3.715l2.832-6.25,2.851,6.25Z" transform="translate(10.552)" fill="#fff"/><path d="M9.917-10.829v9.408L2.554-10.829H1.891V0h.787V-9.408L10.051,0H10.7V-10.829Z" transform="translate(21.458)" fill="#fff"/><path d="M3.955,0h.8V-10.118h3.9v-.71H.058v.71h3.9Z" transform="translate(33.961)" fill="#fff"/><path d="M9.974,0h.854L5.846-10.829H5.059L.077,0H.931L2.3-3.043H8.582ZM2.611-3.715l2.832-6.25,2.851,6.25Z" transform="translate(42.762)" fill="#fff"/><path d="M9.917-10.829v9.408L2.554-10.829H1.891V0h.787V-9.408L10.051,0H10.7V-10.829Z" transform="translate(53.668)" fill="#fff"/><path fill="#fff"/><path d="M9.619-1.642a4.736,4.736,0,0,1-3.072.989A4.718,4.718,0,0,1,1.642-5.414a4.707,4.707,0,0,1,4.906-4.762A4.56,4.56,0,0,1,9.926-8.9l.5-.518a5.3,5.3,0,0,0-3.9-1.488A5.417,5.417,0,0,0,.854-5.414,5.412,5.412,0,0,0,6.509.077a5.55,5.55,0,0,0,3.869-1.392V-5.366H9.619Z" transform="translate(0 16.32)" fill="#fff"/><path d="M9.974,0h.854L5.846-10.829H5.059L.077,0H.931L2.3-3.043H8.582ZM2.611-3.715l2.832-6.25,2.851,6.25Z" transform="translate(11.873 16.32)" fill="#fff"/><path d="M12.9,0l-.019-10.829H12.24L7.392-2.458,2.554-10.829H1.891V0h.768V-9.235L7.19-1.44h.394l4.531-7.824L12.125,0Z" transform="translate(22.779 16.32)" fill="#fff"/><path d="M2.678-.71V-5.155h5.77v-.691H2.678v-4.272H9.13v-.71H1.891V0H9.36V-.71Z" transform="translate(37.463 16.32)" fill="#fff"/><path transform="translate(47.739 16.32)" fill="#fff"/><path d="M9.974,0h.854L5.846-10.829H5.059L.077,0H.931L2.3-3.043H8.582ZM2.611-3.715l2.832-6.25,2.851,6.25Z" transform="translate(51.686 16.32)" fill="#fff"/><path d="M6.47.077A5.178,5.178,0,0,0,10.32-1.44l-.5-.509A4.528,4.528,0,0,1,6.5-.653,4.7,4.7,0,0,1,1.642-5.414,4.7,4.7,0,0,1,6.5-10.176,4.511,4.511,0,0,1,9.821-8.9l.5-.509a5.2,5.2,0,0,0-3.85-1.5A5.4,5.4,0,0,0,.854-5.414,5.4,5.4,0,0,0,6.47.077Z" transform="translate(62.592 16.32)" fill="#fff"/><path d="M9.974,0h.854L5.846-10.829H5.059L.077,0H.931L2.3-3.043H8.582ZM2.611-3.715l2.832-6.25,2.851,6.25Z" transform="translate(73.359 16.32)" fill="#fff"/><path d="M1.891,0H6.173c3.437,0,5.75-2.256,5.75-5.414s-2.314-5.414-5.75-5.414H1.891Zm.787-.71v-9.408H6.106c3.072,0,5.03,1.949,5.03,4.7S9.178-.71,6.106-.71Z" transform="translate(84.265 16.32)" fill="#fff"/><path d="M2.678-.71V-5.155h5.77v-.691H2.678v-4.272H9.13v-.71H1.891V0H9.36V-.71Z" transform="translate(96.952 16.32)" fill="#fff"/><path d="M12.9,0l-.019-10.829H12.24L7.392-2.458,2.554-10.829H1.891V0h.768V-9.235L7.19-1.44h.394l4.531-7.824L12.125,0Z" transform="translate(107.228 16.32)" fill="#fff"/><path d="M9.59-10.829H8.774L4.858-4.454.941-10.829H.077l4.358,7.1V0h.8V-3.725Z" transform="translate(121.912 16.32)" fill="#fff"/></g><g transform="translate(-0.001 1.92)"><path d="M73.531,7.863,65.507,28.283H58.035L70,.435h7.472L89.143,28.283H81.4Zm-23.676,6.2h6.276V25.143a18.553,18.553,0,0,1-5.462,2.642A20.561,20.561,0,0,1,44.533,28.8a15.389,15.389,0,0,1-7.607-1.891,13.955,13.955,0,0,1-5.345-5.179,14.261,14.261,0,0,1-1.946-7.389,13.763,13.763,0,0,1,2.005-7.33,14.079,14.079,0,0,1,5.522-5.144A16.468,16.468,0,0,1,45.007,0a17.971,17.971,0,0,1,6.2,1.135,16.128,16.128,0,0,1,5.247,3.033L52.318,9.253A11.613,11.613,0,0,0,48.842,6.99a9.887,9.887,0,0,0-3.878-.834,7.644,7.644,0,0,0-4.012,1.072,7.73,7.73,0,0,0-2.82,2.94A8.473,8.473,0,0,0,37.1,14.339a8.659,8.659,0,0,0,1.033,4.231A7.593,7.593,0,0,0,41,21.529,7.853,7.853,0,0,0,45.048,22.6a10.993,10.993,0,0,0,4.807-1.351ZM0,.435H7.826l6.951,20.141L21.769.435h7.473L18.353,28.283H10.8Z" fill="#fff"/></g><g transform="translate(169.92 10.08)"><path d="M4.8-.48V.48H-4.8V-.48Z" fill="#ff38a3"/></g><g transform="translate(169.92 7.2)"><path d="M4.8-.48V.48H-4.8V-.48Z" fill="#ff38a3"/></g></g></g></svg>