<svg xmlns="http://www.w3.org/2000/svg" width="102.322" height="17" viewBox="0 0 102.322 17"><g transform="translate(-379.211 -351.5)"><path d="M379.21,351.5h4.1l4.609,12.74,4.633-12.74h3.933l-6.708,16.89h-3.933Z" transform="translate(0 0)" fill="#fff"/><path d="M459,355.481l-5.26,12.909h-3.933l7.335-16.89h3.933l7.215,16.89h-4.078Z" transform="translate(-55.113 0)" fill="#fff"/><path d="M691.65,355.981l-5.26,12.909h-3.933L689.792,352h3.933l7.215,16.89h-4.078Z" transform="translate(-236.729 -0.39)" fill="#fff"/><path d="M555.975,351.5h3.619v16.89H556.12l-8.18-10.858V368.39H544.3V351.5h3.475l8.2,10.906Z" transform="translate(-128.875 0)" fill="#fff"/><path d="M625.586,351.5H639.7v3.233h-5.164V368.39h-3.812V354.733h-5.14Z" transform="translate(-192.333 0)" fill="#fff"/><path d="M787.623,351.5h3.619v16.89h-3.474l-8.18-10.858V368.39h-3.643V351.5h3.475l8.2,10.906Z" transform="translate(-309.71 0)" fill="#fff"/></g></svg>