<svg xmlns="http://www.w3.org/2000/svg" width="280.004" height="35.713" viewBox="0 0 280.004 35.713"><g transform="translate(-29.997 -29.997)"><path d="M706.21,352.458l-1.905,5.82a.111.111,0,0,1-.106.089h-.72a.113.113,0,0,1-.106-.089l-1.9-5.82c-.018-.053.018-.088.071-.088h.855a.106.106,0,0,1,.115.088l1.34,4.251h.027l1.288-4.251a.107.107,0,0,1,.115-.088h.855C706.191,352.37,706.227,352.4,706.21,352.458Zm3.421,3.041v2.778a.082.082,0,0,1-.076.089h-.749a.084.084,0,0,1-.088-.078v-.319h-.009a1.387,1.387,0,0,1-1.2.494,1.271,1.271,0,0,1-1.419-1.1,1.149,1.149,0,0,1-.01-.2c0-.926.653-1.35,1.7-1.35h.865a.046.046,0,0,0,.053-.04.029.029,0,0,0,0-.013v-.2c0-.485-.229-.706-.944-.706a1.494,1.494,0,0,0-.97.291.078.078,0,0,1-.111,0l-.013-.016-.326-.582a.083.083,0,0,1,.017-.115h0a2.482,2.482,0,0,1,1.508-.414C709.159,354.017,709.631,354.458,709.631,355.5Zm-.931,1.113a.046.046,0,0,0-.041-.052h-.719c-.635,0-.918.176-.918.573,0,.353.256.529.732.529.611,0,.946-.239.946-.724Zm3.859-2.6a1.314,1.314,0,0,0-1.12.494h-.009v-.319a.083.083,0,0,0-.088-.078h-.822a.084.084,0,0,0-.077.089v4.088a.084.084,0,0,0,.088.078h.823a.082.082,0,0,0,.076-.089v-2.452a.8.8,0,0,1-.007-.11.817.817,0,0,1,.818-.816c.527,0,.8.379.8.926v2.461a.085.085,0,0,0,.088.08l.815,0h.012a.082.082,0,0,0,.076-.089v-2.681a1.369,1.369,0,0,0,.006-.157A1.45,1.45,0,0,0,712.559,354.015Zm4.027,3.518h-.221c-.276,0-.4-.1-.4-.4V354.92a.047.047,0,0,1,.053-.04h.576a.083.083,0,0,0,.077-.088v-.6a.083.083,0,0,0-.088-.08h-.565a.028.028,0,0,1-.013,0,.048.048,0,0,1-.04-.053v-1.174a.083.083,0,0,0-.088-.078h-.821a.083.083,0,0,0-.078.088v1.164a.029.029,0,0,1,0,.013.046.046,0,0,1-.053.04h-.291a.085.085,0,0,0-.079.089v.6a.084.084,0,0,0,.088.078h.282a.028.028,0,0,1,.013,0,.047.047,0,0,1,.04.053v2.244c0,.829.327,1.243,1.182,1.243l.426-.005h.011a.083.083,0,0,0,.077-.088v-.714A.083.083,0,0,0,716.586,357.533Zm4.162-2.034v2.778a.082.082,0,0,1-.076.089h-.749a.085.085,0,0,1-.088-.08v-.317h-.008a1.389,1.389,0,0,1-1.2.494,1.271,1.271,0,0,1-1.419-1.1,1.149,1.149,0,0,1-.01-.2c0-.926.653-1.35,1.7-1.35h.864a.046.046,0,0,0,.053-.04.029.029,0,0,0,0-.013v-.2c0-.485-.229-.706-.944-.706a1.494,1.494,0,0,0-.97.291.078.078,0,0,1-.111,0l-.013-.016-.326-.582a.083.083,0,0,1,.017-.115h0a2.482,2.482,0,0,1,1.508-.414C720.276,354.017,720.748,354.458,720.748,355.5Zm-.931,1.113a.046.046,0,0,0-.041-.052h-.717c-.635,0-.918.176-.918.573,0,.353.256.529.732.529.609,0,.944-.239.944-.724Zm3.814-2.6a1.318,1.318,0,0,0-1.12.494H722.5v-.317a.084.084,0,0,0-.088-.08h-.822a.084.084,0,0,0-.077.089v4.088a.084.084,0,0,0,.088.078h.821a.084.084,0,0,0,.078-.089v-2.452a.8.8,0,0,1-.007-.11.817.817,0,0,1,.818-.816c.527,0,.8.379.8.926v2.461a.085.085,0,0,0,.088.08l.814,0h.012a.082.082,0,0,0,.076-.089v-2.681a1.355,1.355,0,0,0,.006-.157A1.45,1.45,0,0,0,723.631,354.015Zm5.672,1.053h-.01a.083.083,0,0,0-.078.088v.716a.084.084,0,0,0,.088.078h1a.046.046,0,0,1,.04.053,2.486,2.486,0,0,1-.1.776,1.13,1.13,0,0,1-1.138.75,1.09,1.09,0,0,1-1.129-.785,4.822,4.822,0,0,1-.106-1.376,4.751,4.751,0,0,1,.106-1.376,1.09,1.09,0,0,1,1.129-.785,1.278,1.278,0,0,1,1.208.741.092.092,0,0,0,.115.044l.741-.326a.1.1,0,0,0,.035-.124,2.111,2.111,0,0,0-2.09-1.27,2.071,2.071,0,0,0-2.143,1.447,8.583,8.583,0,0,0,0,3.3,2.284,2.284,0,0,0,4.26-.027,4.889,4.889,0,0,0,.141-1.314v-.531a.083.083,0,0,0-.088-.078Zm6.115.431v2.778a.082.082,0,0,1-.076.089h-.75a.084.084,0,0,1-.088-.078v-.319h-.009a1.387,1.387,0,0,1-1.2.494,1.271,1.271,0,0,1-1.419-1.1,1.155,1.155,0,0,1-.01-.2c0-.926.653-1.35,1.7-1.35h.864a.046.046,0,0,0,.053-.04.028.028,0,0,0,0-.013v-.2c0-.485-.229-.706-.944-.706a1.5,1.5,0,0,0-.97.291.078.078,0,0,1-.111,0l-.012-.015-.326-.582a.083.083,0,0,1,.018-.115h0a2.482,2.482,0,0,1,1.508-.414C734.946,354.017,735.418,354.458,735.418,355.5Zm-.932,1.113a.046.046,0,0,0-.041-.052h-.718c-.635,0-.917.176-.917.573,0,.353.256.529.732.529.609,0,.944-.239.944-.724Zm6.356-2.6a1.734,1.734,0,0,0-1.358.564h-.009a1.368,1.368,0,0,0-1.164-.564,1.315,1.315,0,0,0-1.12.494h-.009v-.319a.082.082,0,0,0-.088-.078h-.822a.084.084,0,0,0-.077.089v4.088a.084.084,0,0,0,.088.078h.823a.082.082,0,0,0,.076-.089v-2.452a.8.8,0,0,1-.007-.11.817.817,0,0,1,.818-.816c.527,0,.8.379.8.926v2.461a.085.085,0,0,0,.088.08h.822a.084.084,0,0,0,.078-.089v-2.452a.8.8,0,0,1-.007-.11.817.817,0,0,1,.818-.816c.527,0,.8.379.8.926v2.463a.084.084,0,0,0,.088.078l.817,0h.012a.082.082,0,0,0,.076-.089v-2.681a1.388,1.388,0,0,0,0-.2A1.464,1.464,0,0,0,740.842,354.015Zm5.773,1.177a3.785,3.785,0,0,1,.141,1.279.085.085,0,0,1-.082.089h-2.637a.049.049,0,0,0-.053.04v.012a.988.988,0,0,0,1.005.971H745a1.279,1.279,0,0,0,1-.406c.044-.044.088-.053.132-.018l.521.458a.08.08,0,0,1,.022.11l-.013.014a2.24,2.24,0,0,1-1.746.723,1.72,1.72,0,0,1-1.773-1.181,3.3,3.3,0,0,1-.15-1.04,3.423,3.423,0,0,1,.141-1.05,1.88,1.88,0,0,1,3.483,0Zm-.855.573a1.075,1.075,0,0,0-.052-.364v0a.908.908,0,0,0-1.667,0,1.084,1.084,0,0,0-.053.361.047.047,0,0,0,.04.053.028.028,0,0,0,.013,0h1.667a.046.046,0,0,0,.053-.04A.029.029,0,0,0,745.76,355.765Zm5.557-3.307,2.028,5.82c.018.053,0,.089-.062.089h-.864a.107.107,0,0,1-.115-.089l-.4-1.164h-2.25l-.4,1.164a.107.107,0,0,1-.115.089h-.855c-.062,0-.079-.036-.062-.089l2.054-5.82a.115.115,0,0,1,.115-.088h.811A.113.113,0,0,1,751.317,352.458Zm.273,3.731-.793-2.328h-.027l-.8,2.328Zm4.815,1.013-.012-.011a.081.081,0,0,0-.112.019.96.96,0,0,1-.784.371.783.783,0,0,1-.794-.547,2.589,2.589,0,0,1-.088-.793,2.534,2.534,0,0,1,.088-.785.78.78,0,0,1,.794-.556.96.96,0,0,1,.784.37l.011.015a.08.08,0,0,0,.113,0l.556-.485,0,0a.087.087,0,0,0,.006-.122,1.852,1.852,0,0,0-1.473-.661,1.716,1.716,0,0,0-1.755,1.173,4.241,4.241,0,0,0,0,2.1,1.716,1.716,0,0,0,1.755,1.172,1.872,1.872,0,0,0,1.473-.652c.027-.044.035-.089-.009-.124Zm4.626-1.7v2.778a.082.082,0,0,1-.076.089h-.746a.085.085,0,0,1-.088-.08v-.317h-.012a1.387,1.387,0,0,1-1.2.494,1.271,1.271,0,0,1-1.419-1.1,1.161,1.161,0,0,1-.01-.2c0-.926.653-1.35,1.7-1.35h.864a.046.046,0,0,0,.053-.04.028.028,0,0,0,0-.013v-.2c0-.485-.229-.706-.944-.706a1.5,1.5,0,0,0-.97.291.079.079,0,0,1-.111,0l-.013-.017-.326-.582a.083.083,0,0,1,.018-.115h0a2.476,2.476,0,0,1,1.508-.414C760.559,354.017,761.031,354.458,761.031,355.5Zm-.928,1.113a.046.046,0,0,0-.041-.052h-.717c-.635,0-.917.176-.917.573,0,.353.255.529.732.529.606,0,.941-.239.941-.724h0Zm5.216-4.249a.083.083,0,0,1,.088.078v5.83a.084.084,0,0,1-.078.089h-.01l-.811.007a.084.084,0,0,1-.088-.078v-.328h-.009a1.28,1.28,0,0,1-1.129.5,1.427,1.427,0,0,1-1.473-1.023,4.875,4.875,0,0,1,0-2.4,1.428,1.428,0,0,1,1.473-1.023,1.279,1.279,0,0,1,1.129.5h.009v-2.064a.083.083,0,0,1,.078-.088h.821Zm-.987,3.085a.843.843,0,0,0-1.579,0,3.631,3.631,0,0,0,0,1.587.843.843,0,0,0,1.579,0A3.6,3.6,0,0,0,764.332,355.448Zm5.226-.256a3.785,3.785,0,0,1,.141,1.279.085.085,0,0,1-.082.089h-2.634a.047.047,0,0,0-.052.039v.013a.988.988,0,0,0,1,.971h.009a1.279,1.279,0,0,0,1-.406c.044-.044.088-.053.132-.018l.52.458a.079.079,0,0,1,.022.11l-.013.014a2.241,2.241,0,0,1-1.746.723,1.722,1.722,0,0,1-1.776-1.181,3.3,3.3,0,0,1-.15-1.04,3.391,3.391,0,0,1,.141-1.05,1.88,1.88,0,0,1,3.483,0Zm-.855.573a1.048,1.048,0,0,0-.053-.364v0a.908.908,0,0,0-1.667,0,1.107,1.107,0,0,0-.052.361.047.047,0,0,0,.041.053h1.678a.046.046,0,0,0,.053-.04A.029.029,0,0,0,768.7,355.765Zm6.256-1.75a1.737,1.737,0,0,0-1.358.564h-.009a1.367,1.367,0,0,0-1.164-.564,1.316,1.316,0,0,0-1.12.494H771.3v-.318a.083.083,0,0,0-.089-.079h-.821a.085.085,0,0,0-.079.089v4.087a.084.084,0,0,0,.089.079h.822a.084.084,0,0,0,.078-.089v-2.452a.8.8,0,0,1-.007-.11.817.817,0,0,1,.818-.816c.527,0,.8.379.8.926v2.463a.084.084,0,0,0,.088.078h.823a.082.082,0,0,0,.076-.089v-2.452a.8.8,0,0,1-.007-.11.817.817,0,0,1,.818-.816c.527,0,.8.379.8.926v2.462a.084.084,0,0,0,.089.079l.816,0h.011a.084.084,0,0,0,.078-.089v-2.681a1.4,1.4,0,0,0,0-.2A1.463,1.463,0,0,0,774.959,354.015Zm5.651.106h-.837a.113.113,0,0,0-.106.089l-.917,2.778h-.017l-.962-2.778a.111.111,0,0,0-.106-.089h-.873c-.053,0-.088.036-.071.089l1.552,4-.123.362c-.135.35-.3.5-.635.5h-.169a.083.083,0,0,0-.078.088v.716a.084.084,0,0,0,.088.078l.273.006c.706,0,1.059-.317,1.429-1.323l1.623-4.427C780.7,354.157,780.663,354.121,780.61,354.121Zm-163.4.1h0v.018l4.962,0-.016-1.014-4.962.016.014.874Zm69.306.107.011,3.942c0,.468-.174.55-1.164.55-.252,0-.419-.008-.752-.029l-.31-.964h.017v0l.073.005c.358.007.572.013.711.013.451,0,.511-.038.511-.193v-2.265h-.222l-1.6.014v-.014h0v-.555l-.013-2.248,2.733-.017v.018h.005Zm-1.134-1.026-.7.012v.378h.039l.9-.02-.015-.37Zm.17,1.02-.868.015v.338l.944-.016-.016-.337Zm-93.606-.811v.014l.553-.142.145-.034v0l.014,0a7.151,7.151,0,0,0-.466-1.065l-.707.123v.047l.011.02A6.51,6.51,0,0,1,591.944,353.515Zm1.539,1.078-.014-.847v-.113h0v-.009l-1.988.009h-1.986c.036-.1.052-.216.084-.323.1-.335.15-.519.217-.811h-.006l0-.011-.808-.053-.274-.022v0l-.025,0a4.709,4.709,0,0,1-1.57,3.038l.723.81a4.7,4.7,0,0,0,1.26-1.656l1.832-.016c-.056,1.716-.447,2.453-1.749,2.861a7.869,7.869,0,0,1-1.226.26l.006.01-.025,0,.59.962h.01a5.6,5.6,0,0,0,2.238-.826,3.2,3.2,0,0,0,1.186-2.7c.013-.173.024-.354.03-.548Zm-.931-2.295-.069.016v0l-.011,0a5.861,5.861,0,0,1,.461,1.1v.014l.7-.182a6.324,6.324,0,0,0-.481-1.116Zm2.073,2.742h-.341l.016,1.041h5.577l-.016-1.057Zm9.271-.057-.125.052,0,0-.014.006c.4.591.763,1.2,1.1,1.832.025.048.054.1.079.144-.726.091-1.46.164-2.233.239-.2.016-.392.035-.6.05.172-.5.263-.774.379-1.125l.108-.324s.482-1.5.578-1.8c.058-.159.108-.318.159-.484l.081-.238c.037-.11.065-.19.078-.238l.106-.392.008-.028h0l0-.012-1.194-.111-.036.145c-.762,2.776-.92,3.3-1.393,4.659-.357.013-.4.016-.79.039h-.048v0h-.015l.406,1.05c1.238-.066,2.853-.246,4.785-.545l.047.137c.077.225.106.309.191.621l.006.02,1.007-.592a13.6,13.6,0,0,0-1.841-3.475Zm4.231-.3a.875.875,0,1,0,.861.889v-.014A.879.879,0,0,0,608.127,354.678Zm3.929-.538-.007.135a3.782,3.782,0,0,1-.338,2.116,3.342,3.342,0,0,1-1.688,1.343l-.044.032-.007,0,0,0-.015.01.774.868.076-.042a4.264,4.264,0,0,0,2.05-2.182,7.043,7.043,0,0,0,.258-2.223c0-.019,0-.038,0-.057h0c0-.007,0-.013,0-.02Zm-2.041-.555,0,.253h.006v.013l2.79-.013h1.733a3.971,3.971,0,0,1-1.211,1.807c-.037.029-.067.065-.1.093h0l-.007.006.8.754.011-.01a5.276,5.276,0,0,0,1.809-3.623l-5.843.016Zm6.685,3.427.016,1h5.966L622.666,357Zm12.733-.048a13.927,13.927,0,0,0-1.493-1.411,13.7,13.7,0,0,0,.827-2.236c.061-.2.135-.406.186-.614h-.007l.006-.021-1.124-.2-.014.065a15.171,15.171,0,0,1-.733,2.366c-.5-.351-.833-.565-1.1-.715-.141-.086-.282-.168-.426-.251l-.186-.109a.959.959,0,0,0-.123-.075l-.048-.027-.7.778.115.064c.635.349,1.249.734,1.846,1.143.029.021.06.039.089.06a5.927,5.927,0,0,1-2.842,1.988l.78.883h.011a6.6,6.6,0,0,0,2.75-2.078c.037-.046.08-.086.115-.133a9.493,9.493,0,0,1,1.3,1.34c.023.029.049.055.071.084h0l.009.011.657-.7.1-.109v0l.011-.012Zm1.952-2.286a.875.875,0,1,0,.861.889v-.014A.879.879,0,0,0,631.385,354.678Zm6.587.866-.008.286-3.16.015c0,.051.009.087.014.132a1.7,1.7,0,0,0,.038.285c0,.022.009.044.013.064a1.591,1.591,0,0,0,.192.419.932.932,0,0,0,.785.351l.046,0a.808.808,0,0,0,.854-.761l1.2-.013,0,.014h.008a3.618,3.618,0,0,1-.324.861,2.283,2.283,0,0,1-3.941-1.614,2.071,2.071,0,0,1,2.167-2.328,2.025,2.025,0,0,1,.419.016A2,2,0,0,1,637.972,355.544Zm-3.157-.4h.149l1.819-.014a1.725,1.725,0,0,0-.172-.652.88.88,0,0,0-.8-.4.871.871,0,0,0-.767.374A1.639,1.639,0,0,0,634.815,355.144Zm7.205.422a3.5,3.5,0,0,0-1.218-.471c-.6-.171-.777-.294-.777-.548a.571.571,0,0,1,.621-.516h0a.7.7,0,0,1,.528.2c.085.1.112.192.145.482l.93-.015h.109v0h.015a1.431,1.431,0,0,0-.361-.994,1.845,1.845,0,0,0-1.324-.434c-1.112,0-1.777.519-1.777,1.39a.993.993,0,0,0,.456.9,3.584,3.584,0,0,0,1.118.415c.649.173.868.325.868.6s-.29.492-.69.492c-.422,0-.665-.194-.665-.532a1.342,1.342,0,0,0-.008-.167l-1.129.017a1.347,1.347,0,0,0,.337.995,1.988,1.988,0,0,0,1.5.49,1.861,1.861,0,0,0,1.373-.417,1.232,1.232,0,0,0,.438-.981A1.008,1.008,0,0,0,642.02,355.566Zm5.578-.157c0,.006,0,.011,0,.017l0,.023c0,.049,0,.1,0,.146a2.473,2.473,0,0,1-.586,1.743,1.963,1.963,0,0,1-2.688.05v.954l.014,1.13h-1.088l-.016-6.061,1.088-.016v.015h0v.077l.013.394a1.512,1.512,0,0,1,.205-.211,1.487,1.487,0,0,1,1.095-.411c.052,0,.1.007.155.014a2.064,2.064,0,0,1,1.507.981l.006.01a2.065,2.065,0,0,1,.166.341l.009.022a2.051,2.051,0,0,1,.095.366l.005.028A2,2,0,0,1,647.6,355.409Zm-2.24-1.252c-.647,0-1.047.551-1.047,1.438s.418,1.438,1.089,1.438c.656,0,.989-.484.988-1.438C646.388,354.668,646.023,354.157,645.358,354.157Zm7.434,1.368a2.4,2.4,0,0,1-.017.242,2.048,2.048,0,0,1-2.147,2.135c-.032,0-.062.011-.095.012a2.07,2.07,0,0,1-2.184-2.32,2.212,2.212,0,0,1-.007-.293,2.131,2.131,0,0,1,2.224-2.034,2.217,2.217,0,0,1,.285.04l.095.013c.052.011.1.025.153.039a2.2,2.2,0,0,1,1.623,1.677,2.29,2.29,0,0,1,.05.325l0,.02v0C652.779,355.432,652.791,355.477,652.792,355.525Zm-2.26-1.417c-.669,0-1.038.557-1.038,1.557,0,.9.4,1.438,1.08,1.438s1.064-.567,1.064-1.557C651.638,354.608,651.255,354.108,650.532,354.108Zm4.447-.441a1.876,1.876,0,0,0-.268.245l-.016-.51-1.121.016.015,4.1v.255h0v.011h1.121v-2.554c.1-.406.167-.545.327-.674a1.484,1.484,0,0,1,.962-.243c.066,0,.182,0,.34-.008l-.017-1.033A1.766,1.766,0,0,0,654.979,353.667Zm5.1.6-.015-.876-.806.016-.014-1.153v-.134h0v-.013l-.894.013h-.184v0h-.022l.016,1.271-.674.013h-.134v0h-.021l.016.874.8-.016v2.486c0,.866.259,1.064,1.387,1.064a5.253,5.253,0,0,0,.547-.032l-.013-.707v-.153h0v-.014c-.2.008-.232.008-.324.008-.4,0-.482-.056-.482-.318l-.015-2.168v-.151Zm3.992,1.3a3.5,3.5,0,0,0-1.218-.471c-.6-.171-.777-.294-.777-.548a.571.571,0,0,1,.621-.516h0a.7.7,0,0,1,.528.2c.085.1.112.192.145.482l.93-.015h.107v0h.017a1.431,1.431,0,0,0-.361-.994,1.845,1.845,0,0,0-1.324-.434c-1.112,0-1.777.519-1.777,1.39a.993.993,0,0,0,.456.9,3.584,3.584,0,0,0,1.118.415c.649.173.868.325.868.6s-.29.492-.69.492c-.422,0-.665-.194-.665-.532a1.329,1.329,0,0,0-.007-.167l-1.129.017a1.347,1.347,0,0,0,.337.995,1.988,1.988,0,0,0,1.5.49,1.861,1.861,0,0,0,1.373-.417,1.233,1.233,0,0,0,.438-.981A1.007,1.007,0,0,0,664.067,355.566Zm8.241.142a2.52,2.52,0,0,1-1.025,2.208,4.039,4.039,0,0,1-1.667.587H669.6l-.49-.971.017,0,0,0c.133-.015.248-.036.367-.056,1.266-.232,1.732-.727,1.732-1.821a1.989,1.989,0,0,0-.644-1.6,1.727,1.727,0,0,0-.844-.379c-.008.047-.02.094-.029.141a26.459,26.459,0,0,1-.69,2.967c-.371,1.162-.677,1.535-1.271,1.535-.04-.007-.076-.022-.116-.031a1.563,1.563,0,0,1-.97-.486,2.193,2.193,0,0,1-.742-1.874,3.239,3.239,0,0,1,.834-2.162,3.294,3.294,0,0,1,2.532-1.06,2.906,2.906,0,0,1,.4,0A2.823,2.823,0,0,1,672.308,355.708Zm-4.915-1.21a2.187,2.187,0,0,0-.452,1.377,1.806,1.806,0,0,0,.372,1.152.472.472,0,0,0,.3.2c.192,0,.27-.179.57-1.274h0c.228-.845.366-1.463.51-2.264A2.161,2.161,0,0,0,667.393,354.5Zm12.239,2.741h-.013v0h-.264l-1.2.013v.157l.013.7c0,.6-.132.688-1.091.688-.072,0-.2,0-.744-.015l-.289-.907h.019l0-.005.108.005h.518c.512,0,.512,0,.512-.338v-.3h-.126l-1.807.015c.11.129.2.273.3.409a5.8,5.8,0,0,1,.368.476l-.012.007,0,0-.209.111-.661.363a7.376,7.376,0,0,0-.735-1.109l.474-.27h-1.162l-.512.009-.016-.745,4.11-.016h0l-.015-.254h-.648l-2.817.013-.016-2.521,2.182-.016v0l-.015-.253H675.4l-2.1.013v-.013h0v-.038l-.015-.687,2.615-.016v0l-.016-.443.919-.016.016.478,2.619-.016.016.738h-.019v0h-.477l-2.156.013.016.259,2.179-.016.016,2.522h-.052l-.807.015v.032l.014.227,1.45-.016v.016h0v.081Zm-1.569-2.878-1.246.016v.331l1.262-.016Zm-1.246,1.264,1.262-.016-.016-.331-1.246.016Zm-2.159,0,1.24-.016-.016-.331-1.224.016Zm0-.917,1.24-.016-.016-.331-1.224.016Zm8.681.678-1.814.016.016,3.422h-.911v-.018h0v-.66l-.015-5.561,2.709-.016Zm-1.127-2.08-.671.012v.378h.038l.87-.02-.015-.37Zm.163,1.02-.834.015v.338l.908-.016-.016-.337Zm12.117,3.693-.443.551-.231.3a7.2,7.2,0,0,1-1.54-1.271,6.881,6.881,0,0,1-.553.5,6.262,6.262,0,0,1-1.167.825l-.013.007-.564-.828a5,5,0,0,0,1.713-1.247,3.358,3.358,0,0,1-.328-.582l-.1-.258c-.041-.1-.079-.194-.144-.364-.075.089-.161.168-.243.251a2.557,2.557,0,0,1-.177.2l-.006-.008,0,0-.069-.086-.495-.588a5.332,5.332,0,0,0,1.059-1.427H690.7l-.383.01v.073l.013.327h-.013v.009h-.429l-.344.007v.059l.013.265a5.742,5.742,0,0,0,.934,1.331l-.009.019h0l-.061.123-.369.764-.005-.008-.005.009c-.074-.1-.129-.221-.2-.33a4.217,4.217,0,0,1-.3-.481v1.447l.013,1.139h-.013v.009h-.488l-.4.007v-.007h0v-.172l-.014-2.39c-.055.129-.12.253-.184.377a4.5,4.5,0,0,1-.452.778l-.006-.015-.009.014-.2-.541-.192-.473a6.774,6.774,0,0,0,.995-1.932l-.482,0-.386.009V354.4h0v-.216l-.012-.673.951-.016v-.3l-.012-.911.9-.016.016,1.244.706-.016-.016-.4,1.482-.016-.016-.793.955-.016.016.825,1.6-.016v.025h0v.03l.015.845h-.015v.006h-.374l-.644.01c.042.078.1.146.148.221a5.3,5.3,0,0,0,1.016,1.174l-.011.015,0,0-.115.148-.465.615-.009-.009,0,0c-.042-.039-.079-.085-.12-.126a2.959,2.959,0,0,1-.3-.3c-.062.143-.145.274-.214.413a6.194,6.194,0,0,1-.345.7A7.475,7.475,0,0,0,694.492,358l-.01.014Zm-2.166-1.97a10,10,0,0,0,.506-1.054,4.44,4.44,0,0,1-.39-.7l.518-.306h-.916l-.578.011.535.274c-.018.045-.045.085-.065.13l-.049.1c-.068.141-.131.284-.212.417a4.9,4.9,0,0,0,.6,1.218C692.295,356.107,692.309,356.077,692.326,356.049Z" transform="translate(-514.703 -294.25)" fill="#fff"/><path d="M572.184,377.177c-.675,5.945-2.613,11.324-5.444,14.96l-2.874-2.025c2.918-3.44,4.638-8.143,5.03-13.718Zm6.163-.849a51.151,51.151,0,0,1,5.422,13.609l-3.18,2.069a45.76,45.76,0,0,0-5.138-14.328Zm11.127-.828a30.132,30.132,0,0,1,6.576,4.094l-2.439,2.548a25.621,25.621,0,0,0-6.423-4.224Zm15.308,4.638c-2.787,8.449-6.837,11.715-15.9,12.782l-1.329-3.049c8.318-.566,12.238-3.789,14.372-11.889Zm9.773,1.992a33.885,33.885,0,0,1,3.908,2.864,17.985,17.985,0,0,0,2.178-5.487h-6.359a20.539,20.539,0,0,1-5.64,6.337l-2.134-2.374A16.183,16.183,0,0,0,613,374.564l3.353.174-.065.2a11.521,11.521,0,0,1-.675,1.829h8.775c-1.786,10.714-5.814,15.112-15.177,16.679l-1.568-2.939a17.2,17.2,0,0,0,8.775-3.223,23.948,23.948,0,0,0-3.758-2.86Zm14.859-6.63a30.133,30.133,0,0,1,6.576,4.094l-2.439,2.548a25.621,25.621,0,0,0-6.423-4.224Zm15.308,4.638c-2.787,8.449-6.837,11.715-15.9,12.782l-1.329-3.049c8.318-.566,12.238-3.789,14.372-11.889Zm10.489-5.422c-.261,1.132-.413,1.7-.958,3.418h12.042v2.875h-4.464c-.174,5.356-1.154,7.969-3.68,9.82a16.81,16.81,0,0,1-6.728,2.483l-1.764-2.875c7.011-.98,8.819-2.874,9.037-9.429h-5.575a14.588,14.588,0,0,1-3.832,5.008l-2.112-2.439c2.439-1.851,4.2-5.247,4.746-9.124Zm12.811,7.665H684.8v3.09H668.022Zm26.551-7.12-.392,1.241c-.066.239-.24.719-.479,1.437-.152.5-.3.98-.479,1.459-.5,1.59-.806,2.5-1.742,5.422-.544,1.633-.806,2.439-1.481,4.4,3.158-.218,5.88-.479,8.645-.828a52.4,52.4,0,0,0-3.549-6.032l2.9-1.22a42.331,42.331,0,0,1,5.487,10.452l-2.961,1.7c-.3-1.111-.37-1.263-.719-2.287-5.879.871-10.8,1.416-14.48,1.612l-1.176-3.136c1.35-.022,1.372-.022,2.526-.066,1.481-4.159,1.981-5.836,4.246-14.088l.109-.435Zm21.13,5.775a18.623,18.623,0,0,1-.794,5.5c-1.132,2.787-2.94,4.725-6.162,6.554l-.2.109-2.308-2.591.174-.065c2.635-1.2,4.268-2.482,5.117-4.072a8.238,8.238,0,0,0,.978-4.324c.013-.329.023-.687.03-1.081Zm-9.33-5.165h17.573c-.74,4.964-2.2,7.839-5.487,10.844l-2.4-2.242a11.565,11.565,0,0,0,4.007-5.727h-13.7Zm20.229,5.443v-2.94h6.141v-1.045l.021-1.307c.022-.348.022-.588.022-1.416h3.157c-.021,1.829-.043,2.657-.109,3.767h7.513a101.212,101.212,0,0,1-.871,11.432c-.522,2.439-1.35,3.027-4.442,3.027-.523,0-1.067-.021-2.4-.065l-1.045-3.092.327.022c.043,0,.348.021.74.043.718.043,1.372.065,1.938.065,1.307,0,1.807-.326,1.96-1.307a63.973,63.973,0,0,0,.522-7.186h-4.551c-.741,5.444-2.766,8.8-7.338,12.085l-2.221-2.635a1.533,1.533,0,0,0,.239-.152c.2-.109.37-.218.566-.348a11.733,11.733,0,0,0,5.683-8.95Zm19.925-.283h18.465v2.809h-7.12c-.021,3.353-.7,5.335-2.373,6.859a14.067,14.067,0,0,1-5.509,2.765l-.153.043-1.981-3.07c5.052-.675,6.9-2.482,6.75-6.6h-8.078Zm14.11-5.544v2.779H748.683v-2.787h11.675Zm7.174,11.118a76.353,76.353,0,0,1,15.4,3.9l.392.152-1.5,2.7a68.364,68.364,0,0,0-14.567-3.767l-.784-.152-.348-.066Zm1.894-11.78a68.705,68.705,0,0,1,13.37,3.44l-1.458,2.7a62.867,62.867,0,0,0-12.956-3.288l-.326-.066Zm.479,5.988a57.292,57.292,0,0,1,10.517,2.765l-1.372,2.679a58.311,58.311,0,0,0-10.147-2.679l-.3-.043Zm15.276,1.568h16.775v3.09H785.46Zm-120.737-4.79H662.64l-.767-3.141h2.083Zm2.743,0h-2.083l-.767-3.141H666.7Zm95.672,0h-2.083l-.767-3.141h2.083Zm2.739,0h-2.083l-.767-3.141h2.083Zm-184.01,0h-2.083l-.767-3.141H581.1Zm2.74,0h-2.083l-.767-3.141h2.083Zm-12.422-.421c-.675,5.945-2.613,11.324-5.444,14.96l-2.874-2.025c2.918-3.44,4.638-8.143,5.03-13.718Zm6.163-.849a51.074,51.074,0,0,1,5.422,13.609L580.59,392a45.728,45.728,0,0,0-5.138-14.328Zm11.127-.828a30.034,30.034,0,0,1,6.576,4.094l-2.439,2.548a25.565,25.565,0,0,0-6.423-4.224Zm15.308,4.638c-2.787,8.449-6.837,11.715-15.9,12.782l-1.329-3.049c8.318-.566,12.238-3.789,14.372-11.889Zm9.773,1.992a33.888,33.888,0,0,1,3.908,2.864,17.986,17.986,0,0,0,2.178-5.487h-6.359a20.54,20.54,0,0,1-5.64,6.337l-2.134-2.374A16.18,16.18,0,0,0,613,374.557l3.353.174-.065.2a11.625,11.625,0,0,1-.675,1.829h8.775c-1.786,10.714-5.814,15.112-15.177,16.679l-1.571-2.941a17.2,17.2,0,0,0,8.775-3.223,23.948,23.948,0,0,0-3.758-2.86Zm14.859-6.63a30.034,30.034,0,0,1,6.576,4.094l-2.439,2.548a25.566,25.566,0,0,0-6.423-4.224Zm15.308,4.638c-2.787,8.449-6.837,11.715-15.9,12.782l-1.329-3.049c8.318-.566,12.238-3.789,14.372-11.889Zm10.489-5.422c-.261,1.132-.413,1.7-.958,3.418H666.3V381h-4.464c-.174,5.356-1.154,7.969-3.68,9.82a16.81,16.81,0,0,1-6.728,2.483l-1.764-2.875c7.011-.98,8.819-2.874,9.037-9.429h-5.575a14.6,14.6,0,0,1-3.832,5.008l-2.112-2.439c2.439-1.851,4.2-5.247,4.746-9.124Zm12.811,7.665H684.8v3.09H668.023Zm26.551-7.12-.392,1.241c-.066.239-.24.719-.479,1.437-.152.5-.3.98-.479,1.459-.5,1.59-.806,2.5-1.742,5.422-.544,1.633-.806,2.439-1.481,4.4,3.158-.218,5.88-.479,8.645-.828a52.388,52.388,0,0,0-3.549-6.032l2.9-1.22a42.266,42.266,0,0,1,5.487,10.452l-2.961,1.7c-.3-1.111-.37-1.263-.719-2.287-5.879.871-10.8,1.416-14.48,1.612l-1.176-3.136c1.35-.022,1.372-.022,2.526-.066,1.481-4.159,1.981-5.836,4.246-14.088l.109-.435Zm21.13,5.775a18.623,18.623,0,0,1-.794,5.5c-1.132,2.787-2.94,4.725-6.162,6.554l-.2.109L706.24,390.6l.174-.065c2.635-1.2,4.268-2.482,5.117-4.072a8.227,8.227,0,0,0,.978-4.324c.013-.329.023-.687.03-1.081Zm-9.33-5.165h17.573c-.74,4.964-2.2,7.839-5.487,10.844l-2.4-2.242a11.566,11.566,0,0,0,4.007-5.727h-13.7Zm20.229,5.443v-2.94h6.141v-1.045l.021-1.307c.022-.348.022-.588.022-1.416h3.157c-.021,1.829-.043,2.657-.109,3.767h7.513a101.226,101.226,0,0,1-.871,11.432c-.522,2.439-1.35,3.027-4.442,3.027-.523,0-1.067-.021-2.4-.065l-1.045-3.092.327.022c.043,0,.348.021.74.043.718.043,1.372.065,1.938.065,1.307,0,1.807-.326,1.96-1.307a63.959,63.959,0,0,0,.522-7.186h-4.551c-.741,5.444-2.766,8.8-7.338,12.085l-2.221-2.635a1.53,1.53,0,0,0,.239-.152c.2-.109.37-.218.566-.348a11.737,11.737,0,0,0,5.683-8.95Zm19.925-.283h18.465v2.809h-7.12c-.021,3.353-.7,5.335-2.373,6.859a14.066,14.066,0,0,1-5.509,2.765l-.153.043-1.981-3.07c5.052-.675,6.9-2.482,6.75-6.6h-8.078Zm14.11-5.544v2.779H748.684v-2.787h11.675Zm7.174,11.118a76.354,76.354,0,0,1,15.4,3.9l.392.152-1.5,2.7a68.245,68.245,0,0,0-14.567-3.767l-.784-.152-.348-.066Zm1.894-11.78a68.619,68.619,0,0,1,13.37,3.44l-1.458,2.7a62.8,62.8,0,0,0-12.956-3.288l-.326-.066Zm.479,5.988a57.29,57.29,0,0,1,10.517,2.765l-1.372,2.679a58.311,58.311,0,0,0-10.147-2.679l-.3-.043Zm15.276,1.568h16.775v3.09H785.461Z" transform="translate(-492.234 -340.443)" fill="#fff"/><g transform="translate(35.998 35.998)"><path d="M172.97,427.906A17.812,17.812,0,1,1,155.159,410.1,17.812,17.812,0,0,1,172.97,427.906Z" transform="translate(-143.348 -416.096)" fill="#110605"/><path d="M686.393,383.075a1.75,1.75,0,0,0,0,3.5H693.7a1.75,1.75,0,0,0,0-3.5Zm-15.738.894a12.209,12.209,0,0,0,22.316,6.858,1.749,1.749,0,1,0-2.894-1.966,8.713,8.713,0,1,1-7.208-13.606,8.5,8.5,0,0,1,6.469,3.036,1.75,1.75,0,1,0,2.8-2.1c-.026-.035-.053-.069-.082-.1a11.919,11.919,0,0,0-9.188-4.331A12.226,12.226,0,0,0,670.655,383.969Z" transform="translate(-670.654 -372.158)" fill="#c5ce2a"/></g></g></svg>