<svg xmlns="http://www.w3.org/2000/svg" width="132.6" height="16.133" viewBox="0 0 132.6 16.133"><path d="M12.92-11.441v1.258L3.791-6.137V-6.1L12.92-2.057V-.8L2.941-5.423V-6.817ZM27.744-7.429v3.06h1.921v-3.06Zm0-1.156h1.921v-2.89H27.744Zm-3.3,1.156v3.06h2.04v-3.06Zm0-1.156h2.04v-2.89h-2.04ZM23.2-7.429H21.284v3.06H23.2Zm-1.921-4.046v2.89H23.2v-2.89Zm9.69,2.89h2.142v1.156H30.974v3.06h1.8v1.088H18.156V-4.369h1.819v-3.06H17.816V-8.585h2.159v-1.751A16.473,16.473,0,0,1,18.8-9.146l-.969-.731A16.148,16.148,0,0,0,21.2-14.331l1.207.323a11.769,11.769,0,0,1-.765,1.428h10.8v1.1H30.974ZM17.986.782a24.609,24.609,0,0,0,2.4-3.553l1.1.561A23.517,23.517,0,0,1,19.04,1.462Zm5.423.646A36.011,36.011,0,0,0,22.78-2.3l1.275-.2a35.594,35.594,0,0,1,.629,3.757Zm4.2-.034A37.394,37.394,0,0,0,26.163-2.3l1.19-.357a39.877,39.877,0,0,1,1.462,3.723Zm4.335-.034a37.75,37.75,0,0,0-2.4-3.621L30.6-2.873Q32.028-.9,33.014.765ZM47.481-2.652,40.528-1.36l-.119-1.156,7.072-1.326v-9.877H48.79V-4.08l1.683-.306.119,1.156-1.8.34V1.479H47.481Zm-1.547-6a41.813,41.813,0,0,0-3.162-3.2l.884-.85a40.2,40.2,0,0,1,3.179,3.2ZM44.795-4.539a47.689,47.689,0,0,0-3.383-3.417l.884-.85a40.1,40.1,0,0,1,3.4,3.4ZM40.885-8.3v1.105H38.93q1.53,3.026,1.938,3.859l-.9.7q-.884-1.887-1.428-3.043V1.479H37.281V-5A16.787,16.787,0,0,1,35.054-.561l-.7-1.173a18.12,18.12,0,0,0,2.686-5.457H34.714V-8.3h2.567v-5.423h1.258V-8.3Zm-6.222-4.3,1.105-.306q.68,1.989,1.122,3.842L35.8-8.772Q35.258-10.88,34.663-12.6Zm4.25,3.519a20.078,20.078,0,0,0,1.139-3.927l1.139.17a24.056,24.056,0,0,1-1.207,4.1ZM55.08-11.441l9.979,4.624v1.394L55.08-.8V-2.057L64.209-6.1v-.034L55.08-10.183ZM72.743-7.956,72.42-8.67q-.782.34-1.819.714Zm7.718,0A5.778,5.778,0,0,1,78.319-9.52a8.761,8.761,0,0,1-3.247,1.564Zm-7.82,4.845v.578h7.718v-.578Zm0-1.751v.578h7.718v-.578Zm0-1.19h7.718v-.561H72.641ZM72.2-11q-1.309-.561-3.247-1.207l.884-1.564q1.836.578,3.264,1.173ZM68.612-9.214a27.614,27.614,0,0,0,4.437-1.751L73.882-9.4a7.906,7.906,0,0,0,2.55-.935,1.805,1.805,0,0,0,.9-1.275H76.075a9.741,9.741,0,0,1-1.6,1.275L72.9-11.526a9.654,9.654,0,0,0,2.737-2.618l2.125.255q-.153.323-.357.663H83.9v1.615a7.586,7.586,0,0,1-1.87,2.023l-1.581-1.139a5.668,5.668,0,0,0,1-.884h-1.9a2.237,2.237,0,0,0,1.173,1.777,10.991,10.991,0,0,0,3.672,1.113l-.7,1.7q-.153-.017-1.02-.2v6.086H80.682A30.852,30.852,0,0,1,84.354.255l-1,1.547A37.993,37.993,0,0,0,77.877-.306l.391-.833H74.749l.391.68A19.255,19.255,0,0,1,69.462,1.7l-.8-1.615a32.037,32.037,0,0,0,3.978-1.224H70.329V-7.871q-.51.187-1.071.357ZM97.9-1.819,92.021-.6l-.187-1.921L97.9-3.774V-13.821h2.21v9.588l1.411-.306.187,1.938-1.6.323V1.581H97.9ZM96.135-8.551q-1.462-1.632-3.026-3.077l1.5-1.394a40.43,40.43,0,0,1,3.026,3.043Zm-.51,4.4q-1.547-1.751-3.4-3.468l1.5-1.377a43.742,43.742,0,0,1,3.4,3.4ZM85.459-12.6l1.632-.544q.527,1.6.918,3.213v-3.893h1.972v3.842a20.623,20.623,0,0,0,.884-3.264l1.717.374a30.185,30.185,0,0,1-1.224,4.131l-1.377-.527v.85h2.074V-6.6H90.644q.578,1.105,1.717,3.434L91.018-1.989l-1-2.261V1.581h-2.04V-3.434A11.285,11.285,0,0,1,86.207-.1l-.935-2.176A14.284,14.284,0,0,0,87.584-6.6H85.646V-8.415h2.363v-.833l-1.445.476Q86.071-10.693,85.459-12.6ZM105.026,1.054v.612h-1.887V-3.519h5.151V1.054Zm0-1.632h1.53V-1.887h-1.53Zm6.154-2.431v.663h4.386v-.663Zm0-1.343h4.386v-.663H111.18Zm-8.041-7.276v-1.717h5.1v1.717Zm-.459,2.55v-1.836h5.865v1.836Zm.6,2.414V-8.33h4.93v1.666Zm0,2.4V-5.916h4.93v1.649Zm11.356-4.386h3.808v1.564H108.63V-8.653h3.689V-9.3H109.14v-1.445h3.179v-.646H108.8v-1.581h3.519v-1.02h2.312v1.02h3.57v1.581h-3.57v.646h3.179V-9.3h-3.179Zm.663,10.1q-.527,0-1.87-.085l-.068-1.734q1.088.068,1.649.068a1.243,1.243,0,0,0,.493-.051q.068-.051.068-.374V-.986H111.18V1.479H109V-6.528h8.84V-.9q0,1.632-.4,1.989A3.874,3.874,0,0,1,115.294,1.445Zm4.539-2.873a31.665,31.665,0,0,0,5.457-3.927l1.156,1.581A27.4,27.4,0,0,1,120.853.34Zm1-6.8,1.428-1.309a31.531,31.531,0,0,1,2.771,2.958l-1.428,1.36A39.8,39.8,0,0,0,120.836-8.228Zm14.212-3.893v1.87H128.86v.221a20.142,20.142,0,0,0,1.581,3.349,24.771,24.771,0,0,0,2.55-2.839L134.657-8.3a19.505,19.505,0,0,1-3.043,3.4,20.318,20.318,0,0,0,3.927,4.063L134.079.833a20.807,20.807,0,0,1-5.219-6.46v4.3A13.885,13.885,0,0,1,128.8.187a1.353,1.353,0,0,1-.366.807,1.3,1.3,0,0,1-.757.382,10.368,10.368,0,0,1-1.4.068q-.51,0-2.635-.085l-.1-1.921q1.87.085,2.295.085.561,0,.663-.11a1.308,1.308,0,0,0,.1-.689v-8.976h-6.681v-1.87H126.6v-1.955h2.261v1.955h2.669q-.612-.765-1.258-1.462l1.717-.731q.918,1,1.819,2.193Z" transform="translate(-2.941 14.33)"/></svg>