<svg xmlns="http://www.w3.org/2000/svg" width="288" height="60" viewBox="0 0 288 60"><g transform="translate(-16 -675)"><rect width="288" height="60" transform="translate(16 675)" fill="#ff38a3"/><rect width="4" height="60" transform="translate(16 675)"/><path d="M3.728-2.032a.052.052,0,0,0-.016.064.064.064,0,0,0,.064.032H8.112a.185.185,0,0,1,.136.056.185.185,0,0,1,.056.136V-.192a.185.185,0,0,1-.056.136A.185.185,0,0,1,8.112,0H.912A.185.185,0,0,1,.776-.056.185.185,0,0,1,.72-.192V-1.664a.326.326,0,0,1,.1-.24q.784-.768,1.6-1.672T3.44-4.7q.448-.528.912-1.008a4.63,4.63,0,0,0,1.456-2.4,1.182,1.182,0,0,0-.4-.92,1.5,1.5,0,0,0-1.04-.36,1.5,1.5,0,0,0-1.04.36,1.219,1.219,0,0,0-.4.952v.4a.185.185,0,0,1-.056.136.185.185,0,0,1-.136.056H.848a.185.185,0,0,1-.136-.056A.185.185,0,0,1,.656-7.68v-.752A2.75,2.75,0,0,1,1.2-9.96a3.156,3.156,0,0,1,1.32-1.016,4.66,4.66,0,0,1,1.848-.352,4.334,4.334,0,0,1,1.976.424A3.2,3.2,0,0,1,7.64-9.76,2.929,2.929,0,0,1,8.1-8.16,3.182,3.182,0,0,1,7.76-6.784a7.608,7.608,0,0,1-1.008,1.52q-.5.624-1.072,1.232T3.968-2.272ZM13.5.176A3.85,3.85,0,0,1,10.72-.808,3.542,3.542,0,0,1,9.7-3.488V-7.712a3.475,3.475,0,0,1,1.024-2.64,3.869,3.869,0,0,1,2.784-.976,3.9,3.9,0,0,1,2.792.976,3.46,3.46,0,0,1,1.032,2.64v4.224A3.527,3.527,0,0,1,16.3-.808,3.878,3.878,0,0,1,13.5.176Zm0-1.936a1.515,1.515,0,0,0,1.144-.44,1.623,1.623,0,0,0,.424-1.176v-4.4a1.623,1.623,0,0,0-.424-1.176,1.515,1.515,0,0,0-1.144-.44,1.494,1.494,0,0,0-1.128.44,1.623,1.623,0,0,0-.424,1.176v4.4A1.623,1.623,0,0,0,12.376-2.2,1.494,1.494,0,0,0,13.5-1.76Zm6.8-9.392a.476.476,0,0,1,.24-.048H22.48a.185.185,0,0,1,.136.056.185.185,0,0,1,.056.136V-.192a.185.185,0,0,1-.056.136A.185.185,0,0,1,22.48,0H20.608a.185.185,0,0,1-.136-.056.185.185,0,0,1-.056-.136V-8.96a.092.092,0,0,0-.032-.064.052.052,0,0,0-.064-.016l-1.584.432-.064.016q-.144,0-.144-.176l-.048-1.376a.227.227,0,0,1,.144-.224ZM31.1-9.168A4.084,4.084,0,0,1,31.376-7.6v4.816a2.667,2.667,0,0,1-.448,1.528A2.884,2.884,0,0,1,29.664-.232a4.6,4.6,0,0,1-1.872.36,4.442,4.442,0,0,1-1.84-.36A2.944,2.944,0,0,1,24.7-1.24a2.566,2.566,0,0,1-.448-1.5v-.448a.185.185,0,0,1,.056-.136.185.185,0,0,1,.136-.056H26.32a.185.185,0,0,1,.136.056.185.185,0,0,1,.056.136v.144a1.18,1.18,0,0,0,.36.88,1.261,1.261,0,0,0,.92.352,1.314,1.314,0,0,0,.96-.36,1.232,1.232,0,0,0,.368-.92V-4.576a.064.064,0,0,0-.032-.064.052.052,0,0,0-.064.016,2.57,2.57,0,0,1-1.728.56,3.37,3.37,0,0,1-1.72-.44,3.057,3.057,0,0,1-1.192-1.272,3.877,3.877,0,0,1-.4-1.84A4.062,4.062,0,0,1,24.3-9.28a3.149,3.149,0,0,1,1.288-1.488,3.917,3.917,0,0,1,2.088-.544,3.9,3.9,0,0,1,2.12.568A3.212,3.212,0,0,1,31.1-9.168ZM27.68-5.952a1.27,1.27,0,0,0,1.2-.656,2.127,2.127,0,0,0,.24-1.072,2.289,2.289,0,0,0-.208-.976,1.247,1.247,0,0,0-1.216-.7,1.288,1.288,0,0,0-1.216.7,2.1,2.1,0,0,0-.24,1.008,2,2,0,0,0,.272,1.056A1.294,1.294,0,0,0,27.68-5.952Z" transform="translate(214 721)" fill="#fff"/><path d="M3.776-9.44H.064V-11.2h9.5v1.76H5.856V0H3.776ZM16.208.16A6.387,6.387,0,0,1,13.12-.584a5.51,5.51,0,0,1-2.16-2.064A5.671,5.671,0,0,1,10.176-5.6a5.671,5.671,0,0,1,.784-2.952,5.51,5.51,0,0,1,2.16-2.064,6.387,6.387,0,0,1,3.088-.744,6.387,6.387,0,0,1,3.088.744,5.527,5.527,0,0,1,2.16,2.056A5.659,5.659,0,0,1,22.24-5.6a5.659,5.659,0,0,1-.784,2.96A5.527,5.527,0,0,1,19.3-.584,6.387,6.387,0,0,1,16.208.16Zm0-1.824a4.04,4.04,0,0,0,2.016-.5,3.645,3.645,0,0,0,1.408-1.408A4.034,4.034,0,0,0,20.144-5.6a4.034,4.034,0,0,0-.512-2.024,3.645,3.645,0,0,0-1.408-1.408,4.04,4.04,0,0,0-2.016-.5,4.04,4.04,0,0,0-2.016.5,3.645,3.645,0,0,0-1.408,1.408A4.034,4.034,0,0,0,12.272-5.6a4.034,4.034,0,0,0,.512,2.024,3.645,3.645,0,0,0,1.408,1.408A4.04,4.04,0,0,0,16.208-1.664ZM28.3-4.688,26.528-2.864V0h-2.08V-11.2h2.08v5.744L32.064-11.2H34.4L29.7-6.192,34.688,0H32.256Zm13.12.736V0h-2.08V-3.92l-4.4-7.28h2.224l3.28,5.456L43.76-11.2h2.048ZM51.92.16a6.387,6.387,0,0,1-3.088-.744,5.51,5.51,0,0,1-2.16-2.064A5.671,5.671,0,0,1,45.888-5.6a5.671,5.671,0,0,1,.784-2.952,5.51,5.51,0,0,1,2.16-2.064,6.387,6.387,0,0,1,3.088-.744,6.387,6.387,0,0,1,3.088.744,5.527,5.527,0,0,1,2.16,2.056,5.659,5.659,0,0,1,.784,2.96,5.659,5.659,0,0,1-.784,2.96,5.527,5.527,0,0,1-2.16,2.056A6.387,6.387,0,0,1,51.92.16Zm0-1.824a4.04,4.04,0,0,0,2.016-.5,3.645,3.645,0,0,0,1.408-1.408A4.034,4.034,0,0,0,55.856-5.6a4.034,4.034,0,0,0-.512-2.024,3.645,3.645,0,0,0-1.408-1.408,4.04,4.04,0,0,0-2.016-.5,4.04,4.04,0,0,0-2.016.5A3.645,3.645,0,0,0,48.5-7.624,4.034,4.034,0,0,0,47.984-5.6,4.034,4.034,0,0,0,48.5-3.576,3.645,3.645,0,0,0,49.9-2.168,4.04,4.04,0,0,0,51.92-1.664Zm20.3-4.064h1.968v4.464A6.258,6.258,0,0,1,72.176-.208,7.735,7.735,0,0,1,69.808.16,6.387,6.387,0,0,1,66.72-.584,5.527,5.527,0,0,1,64.56-2.64a5.659,5.659,0,0,1-.784-2.96,5.659,5.659,0,0,1,.784-2.96,5.513,5.513,0,0,1,2.168-2.056,6.467,6.467,0,0,1,3.112-.744,6.8,6.8,0,0,1,2.56.464,5.023,5.023,0,0,1,1.936,1.36l-1.312,1.28a4.208,4.208,0,0,0-3.088-1.28,4.363,4.363,0,0,0-2.1.5,3.617,3.617,0,0,0-1.44,1.392,4,4,0,0,0-.52,2.048,3.942,3.942,0,0,0,.52,2.016,3.729,3.729,0,0,0,1.44,1.408,4.22,4.22,0,0,0,2.088.512,4.505,4.505,0,0,0,2.3-.576ZM84.192-2.592h-5.6L77.488,0H75.344l5.04-11.2h2.048L87.488,0H85.312ZM83.5-4.224l-2.112-4.9-2.1,4.9ZM99.2,0l-.016-7.424L95.5-1.28h-.928L90.9-7.328V0H88.912V-11.2h1.712l4.448,7.424L99.44-11.2h1.712L101.168,0Zm13.392-1.744V0h-8.4V-11.2h8.176v1.744h-6.1v2.912h5.408v1.712h-5.408v3.088ZM122.8.16a8.545,8.545,0,0,1-2.5-.368,5.226,5.226,0,0,1-1.912-.976L119.1-2.8a5.672,5.672,0,0,0,1.688.888,6.138,6.138,0,0,0,2.008.344,3.47,3.47,0,0,0,1.864-.4,1.212,1.212,0,0,0,.616-1.056,1.022,1.022,0,0,0-.344-.792,2.415,2.415,0,0,0-.872-.488q-.528-.176-1.44-.4a16.786,16.786,0,0,1-2.072-.608,3.41,3.41,0,0,1-1.36-.952,2.564,2.564,0,0,1-.568-1.752,2.989,2.989,0,0,1,.5-1.688,3.41,3.41,0,0,1,1.52-1.208,6.158,6.158,0,0,1,2.488-.448,8.036,8.036,0,0,1,2.016.256,5.572,5.572,0,0,1,1.712.736l-.656,1.616a6.472,6.472,0,0,0-1.536-.656,5.746,5.746,0,0,0-1.552-.224,3.242,3.242,0,0,0-1.832.416,1.283,1.283,0,0,0-.6,1.1,1,1,0,0,0,.344.784,2.485,2.485,0,0,0,.872.48q.528.176,1.44.4a15.153,15.153,0,0,1,2.048.6,3.507,3.507,0,0,1,1.368.952,2.509,2.509,0,0,1,.568,1.728,2.951,2.951,0,0,1-.5,1.68,3.428,3.428,0,0,1-1.528,1.2A6.216,6.216,0,0,1,122.8.16ZM139.344-11.2V0h-2.08V-4.8h-5.792V0h-2.08V-11.2h2.08v4.624h5.792V-11.2ZM147.584.16A6.387,6.387,0,0,1,144.5-.584a5.51,5.51,0,0,1-2.16-2.064,5.671,5.671,0,0,1-.784-2.952,5.671,5.671,0,0,1,.784-2.952,5.51,5.51,0,0,1,2.16-2.064,6.387,6.387,0,0,1,3.088-.744,6.387,6.387,0,0,1,3.088.744,5.527,5.527,0,0,1,2.16,2.056,5.659,5.659,0,0,1,.784,2.96,5.659,5.659,0,0,1-.784,2.96,5.527,5.527,0,0,1-2.16,2.056A6.387,6.387,0,0,1,147.584.16Zm0-1.824a4.04,4.04,0,0,0,2.016-.5,3.645,3.645,0,0,0,1.408-1.408A4.034,4.034,0,0,0,151.52-5.6a4.034,4.034,0,0,0-.512-2.024A3.645,3.645,0,0,0,149.6-9.032a4.04,4.04,0,0,0-2.016-.5,4.04,4.04,0,0,0-2.016.5,3.645,3.645,0,0,0-1.408,1.408,4.034,4.034,0,0,0-.512,2.024,4.034,4.034,0,0,0,.512,2.024,3.645,3.645,0,0,0,1.408,1.408A4.04,4.04,0,0,0,147.584-1.664ZM171.84-11.2,168.128,0H165.92l-2.768-8.288L160.336,0h-2.224L154.4-11.2h2.16l2.784,8.512,2.9-8.512h1.92l2.832,8.56,2.864-8.56Z" transform="translate(37 721)"/><g transform="translate(37 685)"><rect width="13.5" height="1" transform="translate(0 13)"/><path d="M2.33-1.27a.033.033,0,0,0-.01.04.04.04,0,0,0,.04.02H5.07a.116.116,0,0,1,.085.035.116.116,0,0,1,.035.085v.97a.116.116,0,0,1-.035.085A.116.116,0,0,1,5.07,0H.57A.116.116,0,0,1,.485-.035.116.116,0,0,1,.45-.12v-.92a.2.2,0,0,1,.06-.15q.49-.48,1-1.045t.64-.705q.28-.33.57-.63a2.894,2.894,0,0,0,.91-1.5.739.739,0,0,0-.25-.575.935.935,0,0,0-.65-.225.935.935,0,0,0-.65.225.762.762,0,0,0-.25.595v.25a.116.116,0,0,1-.035.085.116.116,0,0,1-.085.035H.53a.116.116,0,0,1-.085-.035A.116.116,0,0,1,.41-4.8v-.47a1.719,1.719,0,0,1,.34-.955,1.973,1.973,0,0,1,.825-.635A2.913,2.913,0,0,1,2.73-7.08a2.709,2.709,0,0,1,1.235.265,2,2,0,0,1,.81.715,1.831,1.831,0,0,1,.285,1,1.988,1.988,0,0,1-.21.86,4.755,4.755,0,0,1-.63.95q-.31.39-.67.77T2.48-1.42ZM8.64.11A2.406,2.406,0,0,1,6.9-.5,2.214,2.214,0,0,1,6.26-2.18V-4.82A2.172,2.172,0,0,1,6.9-6.47a2.418,2.418,0,0,1,1.74-.61,2.436,2.436,0,0,1,1.745.61,2.163,2.163,0,0,1,.645,1.65v2.64A2.2,2.2,0,0,1,10.385-.5,2.424,2.424,0,0,1,8.64.11Zm0-1.21a.947.947,0,0,0,.715-.275A1.015,1.015,0,0,0,9.62-2.11V-4.86a1.015,1.015,0,0,0-.265-.735A.947.947,0,0,0,8.64-5.87a.934.934,0,0,0-.7.275,1.015,1.015,0,0,0-.265.735v2.75a1.015,1.015,0,0,0,.265.735A.934.934,0,0,0,8.64-1.1Zm4.45-5.87A.3.3,0,0,1,13.24-7h1.21a.116.116,0,0,1,.085.035.116.116,0,0,1,.035.085V-.12a.116.116,0,0,1-.035.085A.116.116,0,0,1,14.45,0H13.28a.116.116,0,0,1-.085-.035A.116.116,0,0,1,13.16-.12V-5.6a.058.058,0,0,0-.02-.04.033.033,0,0,0-.04-.01l-.99.27-.04.01q-.09,0-.09-.11l-.03-.86a.142.142,0,0,1,.09-.14Zm6.95,1.24a2.553,2.553,0,0,1,.17.98v3.01a1.667,1.667,0,0,1-.28.955,1.8,1.8,0,0,1-.79.64A2.873,2.873,0,0,1,17.97.08a2.776,2.776,0,0,1-1.15-.225,1.84,1.84,0,0,1-.78-.63,1.6,1.6,0,0,1-.28-.935v-.28a.116.116,0,0,1,.035-.085.116.116,0,0,1,.085-.035h1.17a.116.116,0,0,1,.085.035.116.116,0,0,1,.035.085v.09a.738.738,0,0,0,.225.55.788.788,0,0,0,.575.22.821.821,0,0,0,.6-.225.77.77,0,0,0,.23-.575v-.93a.04.04,0,0,0-.02-.04.033.033,0,0,0-.04.01,1.606,1.606,0,0,1-1.08.35,2.106,2.106,0,0,1-1.075-.275,1.911,1.911,0,0,1-.745-.8,2.423,2.423,0,0,1-.25-1.15,2.539,2.539,0,0,1,.2-1.04,1.968,1.968,0,0,1,.8-.93A2.448,2.448,0,0,1,17.9-7.07a2.438,2.438,0,0,1,1.325.355A2.007,2.007,0,0,1,20.04-5.73ZM17.9-3.72a.794.794,0,0,0,.75-.41,1.329,1.329,0,0,0,.15-.67,1.431,1.431,0,0,0-.13-.61.78.78,0,0,0-.76-.44.805.805,0,0,0-.76.44,1.313,1.313,0,0,0-.15.63,1.247,1.247,0,0,0,.17.66A.809.809,0,0,0,17.9-3.72Z" transform="translate(50 9)"/><path d="M5.55-1.97H1.49L.6,0H.05L3.27-7h.51L7,0H6.45ZM5.36-2.4,3.52-6.44,1.69-2.4ZM13.33,0,11.66-2.34a5.107,5.107,0,0,1-.68.05h-2V0H8.47V-7h2.51a3.138,3.138,0,0,1,2.07.625A2.135,2.135,0,0,1,13.8-4.64a2.254,2.254,0,0,1-.425,1.395,2.252,2.252,0,0,1-1.215.795L13.91,0ZM10.98-2.74a2.6,2.6,0,0,0,1.71-.5,1.732,1.732,0,0,0,.59-1.4,1.732,1.732,0,0,0-.59-1.405,2.6,2.6,0,0,0-1.71-.495h-2v3.8ZM18.83.05a3.744,3.744,0,0,1-1.855-.46,3.4,3.4,0,0,1-1.3-1.27A3.53,3.53,0,0,1,15.2-3.5a3.53,3.53,0,0,1,.475-1.82,3.4,3.4,0,0,1,1.3-1.27,3.744,3.744,0,0,1,1.855-.46,3.885,3.885,0,0,1,1.4.245,2.885,2.885,0,0,1,1.09.725L21-5.75a2.93,2.93,0,0,0-2.15-.83,3.238,3.238,0,0,0-1.6.4,2.927,2.927,0,0,0-1.13,1.105A3.075,3.075,0,0,0,15.71-3.5a3.075,3.075,0,0,0,.41,1.575,2.927,2.927,0,0,0,1.13,1.1,3.238,3.238,0,0,0,1.6.4A2.932,2.932,0,0,0,21-1.26l.32.33a2.928,2.928,0,0,1-1.1.73A3.827,3.827,0,0,1,18.83.05ZM28.93-7V0h-.51V-3.33H23.74V0h-.51V-7h.51v3.22h4.68V-7Zm2.64,0h.51V0h-.51Zm8.65,0L37.1,0h-.51L33.47-7h.56L36.86-.66,39.69-7ZM46.38-.46V0H41.55V-7h4.68v.46H42.06v2.76h3.73v.45H42.06V-.46Z" transform="translate(0 9)" fill="#fff"/></g></g></svg>